<svg width="98" height="49" viewBox="0 0 98 49" fill="none" xmlns="http://www.w3.org/2000/svg">
<path fill-rule="evenodd" clip-rule="evenodd" d="M46.1873 2.80546C46.6669 2.74188 47.1541 2.70221 47.6475 2.68769C47.7562 1.18519 49.0097 0 50.5399 0C50.9515 0 51.3431 0.0857675 51.6978 0.240408C52.3812 0.488539 52.9258 1.02623 53.1831 1.70518C53.348 2.06953 53.4399 2.47404 53.4399 2.9C53.4399 3.16367 53.4047 3.41911 53.3388 3.6619C54.9336 4.2887 56.3877 5.19536 57.6406 6.32141C58.6813 5.61363 59.9381 5.19998 61.2916 5.19998C64.8814 5.19998 67.7916 8.11013 67.7916 11.7C67.7916 14.9445 65.4144 17.6338 62.3067 18.1212C62.0758 20.8358 61.0822 23.333 59.541 25.3974L65.3127 31.1691C65.508 31.3644 65.508 31.681 65.3127 31.8762L63.05 34.139C62.8547 34.3342 62.5381 34.3342 62.3429 34.139L56.5613 28.3574C56.3592 28.5063 56.153 28.6498 55.943 28.788C56.1656 29.2323 56.2909 29.7337 56.2909 30.2645C56.2909 32.087 54.8134 33.5645 52.9909 33.5645C51.4301 33.5645 50.1224 32.481 49.779 31.0251C49.2411 31.0868 48.6942 31.1186 48.1399 31.1186C48.127 31.1186 48.1142 31.1185 48.1014 31.1185C48.0922 31.1185 48.083 31.1185 48.0737 31.1185C42.5312 31.1185 37.7293 27.9472 35.3837 23.3201C34.8459 24.4127 33.7214 25.1645 32.4213 25.1645C30.5988 25.1645 29.1213 23.687 29.1213 21.8645C29.1213 20.0419 30.5988 18.5645 32.4213 18.5645C32.995 18.5645 33.5345 18.7109 34.0045 18.9683C33.9697 18.729 33.9407 18.4876 33.9179 18.2445C32.5087 17.5959 31.5303 16.1713 31.5303 14.5182C31.5303 12.3269 33.2493 10.5372 35.4123 10.4239C36.1501 8.9842 37.1263 7.68686 38.2887 6.58391C38.6773 4.03977 40.8749 2.09082 43.5277 2.09082C44.497 2.09082 45.4056 2.35105 46.1873 2.80546ZM44.36 3.17131C44.0907 3.1185 43.8124 3.09082 43.5277 3.09082C41.8736 3.09082 40.4376 4.02481 39.7184 5.39418C41.0987 4.39003 42.6668 3.62822 44.36 3.17131ZM34.9161 11.5008C33.5483 11.8234 32.5303 13.0519 32.5303 14.5182C32.5303 15.5704 33.0545 16.5002 33.8561 17.0606C33.8555 17.0071 33.8552 16.9536 33.8552 16.9C33.8552 14.9887 34.2323 13.1656 34.9161 11.5008ZM34.3404 20.5962C33.9286 19.9745 33.2229 19.5645 32.4213 19.5645C31.1511 19.5645 30.1213 20.5942 30.1213 21.8645C30.1213 23.1347 31.1511 24.1645 32.4213 24.1645C33.6916 24.1645 34.7213 23.1347 34.7213 21.8645C34.7213 21.8413 34.721 21.8182 34.7203 21.7952C34.5766 21.4033 34.4497 21.0034 34.3404 20.5962ZM35.6751 21.3106C37.4869 26.431 42.3645 30.1023 48.1017 30.1185C48.6427 30.1174 49.176 30.0838 49.6998 30.0195C49.7798 28.9299 50.3888 27.9873 51.271 27.4475C50.2591 27.7538 49.1857 27.9185 48.0737 27.9185C46.1177 27.9185 44.2806 27.4088 42.6882 26.515C42.2492 26.6985 41.7673 26.7999 41.2618 26.7999C39.2183 26.7999 37.5618 25.1434 37.5618 23.0999C37.5618 22.4711 37.7186 21.8789 37.9954 21.3604C37.5753 20.4126 37.2849 19.3944 37.1469 18.3285C36.6778 18.5154 36.1661 18.6182 35.6303 18.6182C35.4251 18.6182 35.2234 18.6031 35.0263 18.574C35.1072 19.2144 35.234 19.8405 35.4032 20.4489C35.5312 20.7181 35.6238 21.0073 35.6751 21.3106ZM34.9366 17.5402C35.1596 17.5912 35.3918 17.6182 35.6303 17.6182C36.1465 17.6182 36.6332 17.492 37.0613 17.2689C37.0572 17.1464 37.0552 17.0234 37.0552 16.9C37.0552 15.3314 37.3829 13.8394 37.9737 12.4887C37.5007 11.943 36.8402 11.5642 36.0925 11.4524C35.3402 13.1135 34.9213 14.9578 34.9213 16.9C34.9213 17.1146 34.9264 17.3281 34.9366 17.5402ZM36.5582 10.5236C37.2786 10.6903 37.9263 11.0468 38.4458 11.5377C38.6645 11.1458 38.9064 10.7686 39.1698 10.4081C38.7034 9.73579 38.3887 8.9504 38.2749 8.10137C37.6164 8.83916 37.0394 9.65129 36.5582 10.5236ZM39.2354 7.1305C39.2303 7.21661 39.2277 7.30341 39.2277 7.39082C39.2277 8.19364 39.4477 8.94507 39.8307 9.58811C41.7431 7.43373 44.4872 6.0343 47.5597 5.8932C47.2513 5.06332 46.6941 4.35444 45.9786 3.85726C43.4044 4.28062 41.0807 5.44769 39.2354 7.1305ZM47.3366 3.70545C47.9247 4.31315 48.3687 5.06116 48.6135 5.89441C49.0595 5.91593 49.4986 5.96396 49.9293 6.03699C50.0114 5.94485 50.1003 5.85884 50.1951 5.77971C49.0204 5.64054 48.0609 4.79923 47.748 3.68714C47.6103 3.69115 47.4732 3.69726 47.3366 3.70545ZM52.2513 5.24138C53.4146 5.45548 54.2959 6.47481 54.2959 7.7C54.2959 7.73474 54.2952 7.7693 54.2938 7.8037C54.7164 8.09322 55.1178 8.41142 55.4952 8.7555C55.8331 8.09162 56.2817 7.49354 56.8167 6.98557C55.6698 5.97341 54.3459 5.15716 52.8974 4.58917C52.7179 4.83924 52.4996 5.05958 52.2513 5.24138ZM57.5421 7.67607C56.9931 8.18781 56.549 8.81055 56.2455 9.50855C57.9819 11.4271 59.0521 13.96 59.0912 16.7422C59.7643 17.0363 60.5076 17.1996 61.289 17.2C61.2912 17.1002 61.2923 17.0002 61.2923 16.9C61.2923 13.3119 59.8627 10.0578 57.5421 7.67607ZM61.2292 18.1997C60.4661 18.1925 59.7343 18.0538 59.0556 17.8052C58.8976 19.7488 58.2351 21.5499 57.1993 23.0771C57.234 23.0978 57.2667 23.1231 57.2966 23.153L58.7876 24.644C60.1244 22.7976 60.9957 20.5921 61.2292 18.1997ZM58.1663 25.4369L56.943 24.2137L56.7138 24.4429C56.4151 25.0065 55.958 25.4732 55.4017 25.7836L56.6106 26.9925C57.1712 26.5179 57.6916 25.9974 58.1663 25.4369ZM55.8177 27.6138L54.3565 26.1526C54.2379 26.1729 54.1172 26.1868 53.9947 26.1941C53.5122 26.5021 53.0042 26.7736 52.4744 27.0046C52.6427 26.9782 52.8152 26.9645 52.9909 26.9645C53.9093 26.9645 54.7401 27.3396 55.3383 27.9451C55.5007 27.8381 55.6605 27.7277 55.8177 27.6138ZM54.4466 28.4837C54.0501 28.1592 53.5432 27.9645 52.9909 27.9645C51.8614 27.9645 50.9221 28.7786 50.7277 29.852C52.0498 29.5826 53.3001 29.1157 54.4466 28.4837ZM55.0842 29.3103C53.7631 30.0511 52.3116 30.5871 50.7728 30.8752C51.0404 31.849 51.9321 32.5645 52.9909 32.5645C54.2611 32.5645 55.2909 31.5347 55.2909 30.2645C55.2909 29.9241 55.2169 29.601 55.0842 29.3103ZM57.3505 27.7324L62.6964 33.0783L64.252 31.5227L58.9112 26.1818C58.4316 26.7379 57.9097 27.2564 57.3505 27.7324ZM62.3571 17.0968C64.8847 16.6006 66.7916 14.373 66.7916 11.7C66.7916 8.66241 64.3291 6.19998 61.2916 6.19998C60.2217 6.19998 59.2232 6.50545 58.3785 7.03394C60.8428 9.59078 62.3584 13.0684 62.3584 16.9C62.3584 16.9657 62.358 17.0313 62.3571 17.0968ZM52.1849 3.26509C52.2871 3.06243 52.3446 2.83344 52.3446 2.59102C52.3446 2.41464 52.3141 2.24538 52.2582 2.08819C52.0665 1.68315 51.7358 1.35673 51.3277 1.17052C51.1761 1.11898 51.0136 1.09102 50.8446 1.09102C50.0161 1.09102 49.3446 1.76259 49.3446 2.59102C49.3446 2.63867 49.3468 2.6858 49.3511 2.73231C50.3271 2.81465 51.2751 2.99558 52.1849 3.26509ZM51.1904 4.05096C50.7942 3.95518 50.3909 3.87726 49.9816 3.81809C50.2257 3.99004 50.5233 4.09102 50.8446 4.09102C50.9636 4.09102 51.0794 4.07715 51.1904 4.05096ZM56.0959 22.9023C55.4275 23.7942 54.6138 24.571 53.6899 25.1976C52.4689 25.1422 51.4959 24.1347 51.4959 22.9C51.4959 21.6297 52.5257 20.6 53.7959 20.6C55.0662 20.6 56.0959 21.6297 56.0959 22.9L56.0959 22.9023ZM56.8704 21.6987C56.3901 20.4702 55.1946 19.6 53.7959 19.6C51.9734 19.6 50.4959 21.0775 50.4959 22.9C50.4959 24.2435 51.2988 25.3994 52.4508 25.9143C51.6189 26.319 50.7225 26.612 49.7812 26.7736C50.3413 26.2449 50.6909 25.4955 50.6909 24.6645C50.6909 23.0629 49.3925 21.7645 47.7909 21.7645C46.1892 21.7645 44.8909 23.0629 44.8909 24.6645C44.8909 25.42 45.1798 26.108 45.6531 26.6241C44.963 26.4529 44.3011 26.2101 43.6757 25.9041C44.4632 25.2256 44.9618 24.221 44.9618 23.0999C44.9618 21.4243 43.848 20.0089 42.3203 19.5536C42.3977 19.5608 42.4761 19.5645 42.5553 19.5645C43.936 19.5645 45.0553 18.4452 45.0553 17.0645C45.0553 15.6838 43.936 14.5645 42.5553 14.5645C41.1746 14.5645 40.0553 15.6838 40.0553 17.0645C40.0553 18.1633 40.7642 19.0965 41.7496 19.4318C41.59 19.4108 41.4271 19.3999 41.2618 19.3999C40.2656 19.3999 39.3614 19.7936 38.6962 20.4338C38.3824 19.6014 38.1762 18.7162 38.0946 17.7952C39.088 17.047 39.7303 15.8576 39.7303 14.5182C39.7303 13.7351 39.5108 13.0033 39.1299 12.3809C39.3388 11.9683 39.5753 11.5721 39.8372 11.1948C40.7915 12.1208 42.093 12.6908 43.5277 12.6908C46.4548 12.6908 48.8277 10.3179 48.8277 7.39082C48.8277 7.22799 48.8203 7.06687 48.806 6.90777C49.0072 6.92231 49.2067 6.94278 49.4045 6.96903C49.3339 7.20024 49.2959 7.44569 49.2959 7.7C49.2959 9.08071 50.4152 10.2 51.7959 10.2C52.7668 10.2 53.6084 9.64655 54.0225 8.83794C54.3993 9.11644 54.7559 9.42073 55.0897 9.7482C54.896 10.3643 54.7916 11.0199 54.7916 11.7C54.7916 14.1226 56.117 16.2357 58.0822 17.3537C58.0123 18.9229 57.5813 20.3983 56.8704 21.6987ZM58.065 16.1546C57.912 14.0746 57.124 12.1712 55.8941 10.6374C55.8268 10.9812 55.7916 11.3365 55.7916 11.7C55.7916 13.5321 56.6874 15.1551 58.065 16.1546ZM53.1867 7.13701C52.9641 6.58755 52.4253 6.2 51.7959 6.2C51.5799 6.2 51.3745 6.24569 51.1888 6.32793C51.886 6.53303 52.5545 6.80521 53.1867 7.13701ZM50.3989 7.15264C51.3914 7.38851 52.3267 7.77202 53.1802 8.27869C52.9538 8.81981 52.4192 9.2 51.7959 9.2C50.9675 9.2 50.2959 8.52843 50.2959 7.7C50.2959 7.50684 50.3324 7.32222 50.3989 7.15264ZM47.7983 6.88514C44.8585 6.9645 42.2347 8.31022 40.4527 10.3965C41.2334 11.1951 42.3226 11.6908 43.5277 11.6908C45.9025 11.6908 47.8277 9.76565 47.8277 7.39082C47.8277 7.21974 47.8177 7.051 47.7983 6.88514ZM38.6011 13.6296C38.2953 14.5155 38.1103 15.4576 38.0657 16.4364C38.4819 15.9087 38.7303 15.2424 38.7303 14.5182C38.7303 14.2094 38.6852 13.9111 38.6011 13.6296ZM38.6163 22.5571C38.5806 22.7325 38.5618 22.914 38.5618 23.0999C38.5618 24.5911 39.7706 25.7999 41.2618 25.7999C41.3608 25.7999 41.4586 25.7946 41.5549 25.7842C40.3741 24.9163 39.3726 23.8186 38.6163 22.5571ZM42.7224 25.3711C41.2012 24.4081 39.9572 23.0467 39.1372 21.4335C39.6315 20.8042 40.3994 20.3999 41.2618 20.3999C42.7529 20.3999 43.9618 21.6088 43.9618 23.0999C43.9618 24.0529 43.468 24.8906 42.7224 25.3711ZM34.0213 7C33.6347 7 33.3213 7.3134 33.3213 7.7C33.3213 8.0866 33.6347 8.4 34.0213 8.4C34.4079 8.4 34.7213 8.0866 34.7213 7.7C34.7213 7.3134 34.4079 7 34.0213 7ZM32.3213 7.7C32.3213 6.76112 33.0824 6 34.0213 6C34.9602 6 35.7213 6.76112 35.7213 7.7C35.7213 8.63888 34.9602 9.4 34.0213 9.4C33.0824 9.4 32.3213 8.63888 32.3213 7.7ZM50.1909 11.4182C48.0369 11.4182 46.2909 13.1643 46.2909 15.3182C46.2909 17.4721 48.0369 19.2182 50.1909 19.2182C52.3448 19.2182 54.0909 17.4721 54.0909 15.3182C54.0909 13.1643 52.3448 11.4182 50.1909 11.4182ZM45.2909 15.3182C45.2909 12.612 47.4847 10.4182 50.1909 10.4182C52.897 10.4182 55.0909 12.612 55.0909 15.3182C55.0909 18.0244 52.897 20.2182 50.1909 20.2182C47.4847 20.2182 45.2909 18.0244 45.2909 15.3182ZM42.5553 15.5645C41.7269 15.5645 41.0553 16.2361 41.0553 17.0645C41.0553 17.8929 41.7269 18.5645 42.5553 18.5645C43.3838 18.5645 44.0553 17.8929 44.0553 17.0645C44.0553 16.2361 43.3838 15.5645 42.5553 15.5645ZM24.2371 17.4C23.4086 17.4 22.7371 18.0716 22.7371 18.9C22.7371 19.7284 23.4086 20.4 24.2371 20.4C25.0655 20.4 25.7371 19.7284 25.7371 18.9C25.7371 18.0716 25.0655 17.4 24.2371 17.4ZM21.7371 18.9C21.7371 17.5193 22.8563 16.4 24.2371 16.4C25.6178 16.4 26.7371 17.5193 26.7371 18.9C26.7371 20.2807 25.6178 21.4 24.2371 21.4C22.8563 21.4 21.7371 20.2807 21.7371 18.9ZM47.7909 22.7645C46.7415 22.7645 45.8909 23.6151 45.8909 24.6645C45.8909 25.7138 46.7415 26.5645 47.7909 26.5645C48.8402 26.5645 49.6909 25.7138 49.6909 24.6645C49.6909 23.6151 48.8402 22.7645 47.7909 22.7645ZM26.2371 27.9186C25.6295 27.9186 25.1371 28.411 25.1371 29.0186C25.1371 29.6261 25.6295 30.1186 26.2371 30.1186C26.8446 30.1186 27.3371 29.6261 27.3371 29.0186C27.3371 28.411 26.8446 27.9186 26.2371 27.9186ZM24.1371 29.0186C24.1371 27.8588 25.0773 26.9186 26.2371 26.9186C27.3968 26.9186 28.3371 27.8588 28.3371 29.0186C28.3371 30.1784 27.3968 31.1186 26.2371 31.1186C25.0773 31.1186 24.1371 30.1784 24.1371 29.0186ZM54.9639 38.649C54.7754 38.649 54.6522 38.7039 54.5555 38.7963C54.4693 38.8786 54.4239 38.9753 54.4239 39.124C54.4239 39.2576 54.4651 39.3593 54.5595 39.4554C54.6556 39.5456 54.7779 39.599 54.9639 39.599C55.1628 39.599 55.2787 39.5432 55.3606 39.4632C55.456 39.3616 55.5039 39.2453 55.5039 39.085C55.5039 38.9582 55.4648 38.8758 55.3768 38.7993C55.3742 38.7969 55.3715 38.7946 55.3689 38.7922C55.3658 38.7894 55.3627 38.7865 55.3597 38.7836C55.2761 38.7039 55.1596 38.649 54.9639 38.649ZM53.8647 38.0733C54.1667 37.7846 54.546 37.649 54.9639 37.649C55.3711 37.649 55.7453 37.7737 56.0417 38.0523C56.3467 38.3215 56.5039 38.6783 56.5039 39.085C56.5039 39.4945 56.3625 39.8625 56.0793 40.1586L56.0716 40.1666C55.7723 40.4659 55.386 40.599 54.9639 40.599C54.5458 40.599 54.1664 40.4632 53.8643 40.1743L53.8563 40.1666C53.5722 39.8826 53.4239 39.5258 53.4239 39.124C53.4239 38.718 53.5696 38.355 53.8647 38.0733ZM2.08659 38.877C2.71796 38.5868 3.48363 38.455 4.36103 38.455C4.94987 38.455 5.53349 38.5298 6.11097 38.6788C6.69238 38.8289 7.21213 39.048 7.66316 39.3422C7.8636 39.4729 7.94332 39.7273 7.85331 39.949L7.32031 41.262C7.26547 41.3971 7.1544 41.5016 7.01618 41.548C6.87797 41.5944 6.72638 41.5781 6.60113 41.5035C6.23198 41.2836 5.85521 41.125 5.47021 41.0249L5.46119 41.0225C5.06619 40.9119 4.6957 40.859 4.34803 40.859C3.91579 40.859 3.60183 40.9116 3.38478 40.9942C3.16216 41.0822 3.03758 41.1803 2.96934 41.2671C2.90577 41.3586 2.87203 41.4622 2.87203 41.594C2.87203 41.7374 2.91352 41.8232 2.98642 41.8926C3.12261 42.0025 3.31181 42.1024 3.56955 42.1813C3.87907 42.2733 4.22395 42.3659 4.60463 42.459C5.00336 42.5477 5.39778 42.6497 5.78785 42.7649C6.21122 42.8873 6.5998 43.0494 6.95052 43.2537C7.34162 43.4762 7.65765 43.7809 7.89213 44.1631C8.15372 44.5747 8.26703 45.0679 8.26703 45.611C8.26703 46.1941 8.10404 46.7383 7.78477 47.2331C7.46191 47.7384 6.97551 48.1237 6.3641 48.4052L6.35811 48.4079C5.72829 48.6878 4.96433 48.815 4.08803 48.815C3.32994 48.815 2.60005 48.7085 1.90043 48.494L1.89463 48.4922C1.20407 48.2712 0.624153 47.9806 0.178227 47.6057C0.00761601 47.4622 -0.0474135 47.2231 0.0433082 47.0195L0.628308 45.7065C0.691036 45.5657 0.815189 45.4617 0.964796 45.4246C1.1144 45.3876 1.27274 45.4216 1.39394 45.5168C1.70668 45.7625 2.10666 45.9772 2.60423 46.1538C3.08854 46.3256 3.58236 46.411 4.08803 46.411C4.5346 46.411 4.85776 46.3614 5.07862 46.2835C5.31501 46.2 5.43878 46.1066 5.50111 46.0309C5.57185 45.9362 5.60303 45.84 5.60303 45.728C5.60303 45.5874 5.56072 45.5125 5.48559 45.4505L5.47583 45.4424C5.34272 45.3266 5.1514 45.2215 4.88154 45.1412L4.86591 45.1363C4.57323 45.0387 4.23921 44.9478 3.86256 44.8641L3.86022 44.8635C3.46915 44.7747 3.07416 44.6726 2.67526 44.5573L2.66237 44.5536C2.25073 44.4226 1.86753 44.2573 1.51422 44.0568L1.5003 44.0486C1.12266 43.8178 0.81237 43.5123 0.572679 43.1372C0.308286 42.7233 0.195027 42.2236 0.195027 41.672C0.195027 41.0849 0.351083 40.5405 0.663566 40.051L0.665002 40.0487C0.994797 39.5381 1.4793 39.1516 2.08659 38.877ZM65.3725 39.085C65.3725 38.8088 65.5963 38.585 65.8725 38.585H67.5625C67.8386 38.585 68.0625 38.8088 68.0625 39.085V46.255H72.3205C72.5966 46.255 72.8205 46.4788 72.8205 46.755V48.185C72.8205 48.4611 72.5966 48.685 72.3205 48.685H65.8725C65.5963 48.685 65.3725 48.4611 65.3725 48.185V39.085ZM66.3725 39.585V47.685H71.8205V47.255H67.5625C67.2863 47.255 67.0625 47.0311 67.0625 46.755V39.585H66.3725ZM48.2262 39.709C48.2262 39.4328 48.45 39.209 48.7262 39.209H50.3512C50.6273 39.209 50.8512 39.4328 50.8512 39.709V40.795H52.2102C52.4863 40.795 52.7102 41.0188 52.7102 41.295V42.595C52.7102 42.8711 52.4863 43.095 52.2102 43.095H50.8512V45.897C50.8512 46.1394 50.9095 46.2601 50.9648 46.3239C51.025 46.3847 51.1212 46.437 51.3132 46.437C51.586 46.437 51.7748 46.3674 51.9143 46.2578C52.0385 46.1602 52.2016 46.127 52.3542 46.1684C52.5067 46.2098 52.6306 46.3209 52.6885 46.468L53.1435 47.625C53.223 47.8271 53.1629 48.0574 52.9948 48.1949C52.7426 48.4013 52.444 48.5468 52.1115 48.6403C51.7892 48.731 51.4575 48.776 51.1182 48.776C50.2723 48.776 49.5445 48.5585 49.0082 48.0557L49.0042 48.052C48.4598 47.5303 48.2262 46.7957 48.2262 45.936V43.095H47.5822C47.306 43.095 47.0822 42.8711 47.0822 42.595V41.295C47.0822 41.0188 47.306 40.795 47.5822 40.795H48.2262V39.709ZM48.2262 41.795H48.0822V42.095H48.2262V41.795ZM49.2262 42.095V41.795H49.8512V42.095H49.2262ZM49.2262 43.095V45.936C49.2262 46.6172 49.4076 47.0521 49.694 47.3279C49.9897 47.6041 50.4401 47.776 51.1182 47.776C51.3681 47.776 51.6085 47.743 51.8408 47.6776C51.9203 47.6553 51.993 47.6296 52.0595 47.601L51.9585 47.3441C51.7553 47.4072 51.5388 47.437 51.3132 47.437C50.9035 47.437 50.5229 47.31 50.2361 47.0088L50.2273 46.9995C49.9545 46.698 49.8512 46.3072 49.8512 45.897V43.095H49.2262ZM50.8512 42.095H51.7102V41.795H50.8512V42.095ZM49.8512 40.795H49.2262V40.209H49.8512V40.795ZM12.4328 41.665C11.8155 41.665 11.2815 41.7991 10.8181 42.0563C10.3599 42.3152 10.0002 42.671 9.73295 43.1308C9.47911 43.5736 9.34481 44.0962 9.34481 44.714C9.34481 45.3185 9.48137 45.8404 9.74368 46.2933C10.0157 46.7482 10.3933 47.1096 10.8873 47.3799C11.384 47.6384 11.9767 47.776 12.6798 47.776C13.2336 47.776 13.7042 47.6891 14.1012 47.5277C14.363 47.418 14.5915 47.2815 14.7894 47.119L14.5568 46.8517C14.3705 46.9873 14.1691 47.0979 13.953 47.182C13.5746 47.3292 13.1607 47.398 12.7188 47.398C12.2031 47.398 11.7258 47.2985 11.2992 47.0852C10.8704 46.8708 10.5286 46.5588 10.287 46.1525C10.207 46.0179 10.1409 45.8776 10.0883 45.7321C9.83253 45.71 9.63181 45.4955 9.63181 45.234V44.155C9.63181 43.9059 9.81394 43.6994 10.0523 43.6613C10.0996 43.5056 10.1613 43.3564 10.2384 43.2144L10.2407 43.2101C10.4554 42.8238 10.7513 42.5146 11.1263 42.294L11.1317 42.2908C11.5207 42.0685 11.9596 41.965 12.4328 41.965C12.8981 41.965 13.3294 42.0689 13.7106 42.2924C14.0901 42.5099 14.3918 42.8119 14.6089 43.1919C14.6933 43.3395 14.7598 43.4941 14.8095 43.655H15.0588C15.1494 43.655 15.2354 43.6793 15.3097 43.7225C15.2458 43.4974 15.1596 43.2906 15.0524 43.1008C14.7933 42.6419 14.4431 42.2927 13.9964 42.0437C13.5505 41.7952 13.0338 41.665 12.4328 41.665ZM15.4349 44.4845C15.3957 44.5292 15.3481 44.5675 15.2932 44.5966L15.0344 44.734H15.4428C15.4424 44.6489 15.4398 44.5658 15.4349 44.4845ZM13.9837 44.734C13.9698 44.7087 13.9581 44.6823 13.9488 44.655H10.9308V44.734H13.9837ZM11.2064 45.734C11.3405 45.9248 11.5177 46.0764 11.7464 46.1908C12.0132 46.3241 12.3331 46.398 12.7188 46.398C13.0569 46.398 13.3451 46.3455 13.5906 46.25C13.8282 46.1576 14.0436 46.0114 14.2383 45.8028C14.2624 45.7769 14.2891 45.7539 14.3176 45.734H11.2064ZM14.89 45.734C14.9233 45.7572 14.9539 45.7846 14.981 45.8158L15.852 46.8168C16.0148 47.0039 16.0159 47.2821 15.8544 47.4704C15.4878 47.8981 15.0277 48.2242 14.4847 48.4513L14.4805 48.453C13.9418 48.6724 13.3385 48.776 12.6798 48.776C11.8421 48.776 11.0841 48.6109 10.4203 48.2641L10.4123 48.26C9.76522 47.907 9.25189 47.4206 8.88345 46.8032L8.88038 46.7981C8.51969 46.1769 8.34481 45.4776 8.34481 44.714C8.34481 43.9455 8.51364 43.2465 8.86613 42.6321L8.86742 42.6299C9.22377 42.0162 9.71261 41.532 10.328 41.1846L10.331 41.1829C10.9592 40.8339 11.6641 40.665 12.4328 40.665C13.1839 40.665 13.8717 40.8294 14.4832 41.1702C15.0939 41.5106 15.5756 41.9934 15.9232 42.6092C16.2759 43.234 16.4428 43.9544 16.4428 44.753C16.4428 44.8351 16.4381 44.9218 16.4297 45.0121C16.4289 45.1066 16.4238 45.1991 16.4137 45.2892C16.3856 45.5424 16.1716 45.734 15.9168 45.734H14.89ZM11.1383 43.655H13.7212C13.5943 43.4451 13.4264 43.2818 13.2117 43.1591L13.2063 43.156C12.9988 43.0339 12.7464 42.965 12.4328 42.965C12.11 42.965 11.8477 43.0341 11.6306 43.1575C11.43 43.2762 11.2665 43.4388 11.1383 43.655ZM21.4557 41.665C20.9545 41.665 20.5244 41.7668 20.1539 41.9588C19.9741 42.0542 19.8167 42.1713 19.6807 42.3116V42.5047C19.7397 42.4613 19.8013 42.4209 19.8657 42.3836L19.8716 42.3801C20.2322 42.1773 20.6347 42.082 21.0657 42.082C21.6743 42.082 22.2113 42.27 22.597 42.7055C22.9797 43.1375 23.1257 43.7387 23.1257 44.415V47.685H23.7507V44.662C23.7507 44.262 23.7991 43.8916 23.9097 43.5625L23.3068 43.3533C23.1754 43.3078 23.0689 43.2095 23.013 43.0821C22.957 42.9547 22.9566 42.8098 23.0119 42.6822C23.0639 42.5622 23.1225 42.4471 23.1874 42.3368C23.0932 42.2312 22.9872 42.1405 22.8701 42.0631L22.8666 42.0608C22.483 41.8028 22.0198 41.665 21.4557 41.665ZM24.399 42.4011C24.528 42.2764 24.6766 42.1634 24.846 42.0617C25.2786 41.8021 25.7897 41.665 26.3957 41.665C26.8843 41.665 27.2939 41.76 27.6375 41.9353L27.6411 41.9372C27.977 42.1051 28.2417 42.3626 28.4385 42.728L28.4404 42.7316C28.6298 43.0766 28.7427 43.5578 28.7427 44.207V47.685H28.1177V44.415C28.1177 43.7387 27.9717 43.1375 27.589 42.7055C27.2033 42.27 26.6663 42.082 26.0577 42.082C25.6267 42.082 25.2242 42.1773 24.8636 42.3802L24.8577 42.3836C24.7261 42.4599 24.6058 42.5491 24.4965 42.6501C24.467 42.5648 24.4345 42.4818 24.399 42.4011ZM23.8329 41.5642C23.7097 41.4409 23.5732 41.3293 23.4231 41.2299C22.8538 40.8475 22.1909 40.665 21.4557 40.665C20.8138 40.665 20.2217 40.7968 19.6913 41.0722L19.6878 41.0741C19.6775 41.0795 19.6673 41.085 19.6571 41.0906C19.5926 40.889 19.4037 40.743 19.1807 40.743H17.6337C17.3576 40.743 17.1337 40.9668 17.1337 41.243V48.185C17.1337 48.4611 17.3576 48.685 17.6337 48.685H19.2587C19.5349 48.685 19.7587 48.4611 19.7587 48.185V44.662C19.7587 44.2453 19.8244 43.9423 19.9271 43.7284C20.0427 43.5055 20.1896 43.3526 20.365 43.25C20.5584 43.142 20.7875 43.082 21.0657 43.082C21.4624 43.082 21.6968 43.1973 21.8484 43.3685C22.0031 43.5431 22.1257 43.8606 22.1257 44.415V48.185C22.1257 48.4611 22.3496 48.685 22.6257 48.685H24.2507C24.5269 48.685 24.7507 48.4611 24.7507 48.185V44.662C24.7507 44.2453 24.8164 43.9423 24.9191 43.7284C25.0347 43.5055 25.1816 43.3526 25.357 43.25C25.5504 43.142 25.7795 43.082 26.0577 43.082C26.4544 43.082 26.6888 43.1973 26.8404 43.3685C26.9951 43.5431 27.1177 43.8606 27.1177 44.415V48.185C27.1177 48.4611 27.3416 48.685 27.6177 48.685H29.2427C29.5189 48.685 29.7427 48.4611 29.7427 48.185V44.207C29.7427 43.453 29.6132 42.7908 29.318 42.2521C29.0298 41.7177 28.6195 41.3088 28.0901 41.0437C27.5849 40.7863 27.0157 40.665 26.3957 40.665C25.6324 40.665 24.9388 40.8398 24.3315 41.2042C24.1511 41.3124 23.9847 41.4324 23.8329 41.5642ZM18.6807 41.743H18.1337V47.685H18.7587V44.662C18.7587 44.2457 18.8112 43.8615 18.9315 43.5224C18.8485 43.4747 18.7787 43.403 18.7335 43.3126L18.4605 42.7666C18.3889 42.6234 18.3902 42.4546 18.464 42.3126C18.5292 42.187 18.6015 42.068 18.6807 41.9559V41.743ZM34.1013 41.665C33.5915 41.665 33.1001 41.7326 32.6256 41.867L32.6201 41.8686C32.3223 41.9493 32.0564 42.0565 31.8202 42.1883L31.9799 42.4849C32.1708 42.3814 32.3762 42.2946 32.5945 42.2235L32.5977 42.2225C33.0267 42.086 33.4635 42.017 33.9063 42.017C34.5526 42.017 35.1311 42.1652 35.5457 42.5528C35.8791 42.8573 36.0592 43.2533 36.1156 43.7014C36.2599 43.7891 36.3563 43.9478 36.3563 44.129V45.208C36.3563 45.3808 36.2686 45.5331 36.1353 45.623V45.9453L36.3898 46.8542C36.4187 46.9576 36.4136 47.0675 36.3752 47.1678C36.3328 47.2785 36.2831 47.3839 36.2263 47.4838V47.685H36.7603V44.116C36.7603 43.1992 36.5095 42.622 36.1024 42.2722L36.096 42.2667C35.6711 41.889 35.0304 41.665 34.1013 41.665ZM35.1353 45.708V45.9121C35.0366 46.1226 34.8929 46.2753 34.6995 46.3851L34.6943 46.3881C34.4666 46.521 34.1998 46.593 33.8803 46.593C33.527 46.593 33.3209 46.5186 33.2029 46.4312C33.098 46.3535 33.0543 46.2694 33.0543 46.131C33.0543 46.0104 33.0912 45.9285 33.1766 45.8509L33.1855 45.8426C33.195 45.8336 33.2439 45.7955 33.3814 45.7619C33.5159 45.7291 33.7048 45.708 33.9583 45.708H35.1353ZM35.1353 44.629V44.708H33.9583C33.657 44.708 33.3823 44.7323 33.1442 44.7905C32.911 44.8474 32.6801 44.9447 32.4997 45.1149C32.2065 45.3834 32.0543 45.7335 32.0543 46.131C32.0543 46.5818 32.2446 46.9658 32.6077 47.2347C32.9577 47.494 33.4015 47.593 33.8803 47.593C34.3183 47.593 34.7279 47.5005 35.0984 47.307C35.0182 47.378 34.9262 47.4424 34.8212 47.5005L34.8172 47.5027C34.5151 47.6735 34.0999 47.776 33.5423 47.776C33.0793 47.776 32.6974 47.6992 32.3845 47.5609C32.0689 47.4129 31.8414 47.2226 31.6825 46.9962C31.5322 46.7619 31.4553 46.4996 31.4553 46.196C31.4553 45.8893 31.5254 45.6279 31.6575 45.3995C31.7817 45.1985 31.9961 45.0125 32.3482 44.8615C32.6869 44.7164 33.1752 44.629 33.8413 44.629H35.1353ZM35.0819 43.629C35.0353 43.4811 34.9611 43.3728 34.8699 43.2899L34.8639 43.2844C34.7067 43.1367 34.4198 43.017 33.9063 43.017C33.5696 43.017 33.2356 43.0691 32.9025 43.1749C32.5815 43.2796 32.3242 43.4202 32.1204 43.5901C32.0051 43.6862 31.8527 43.7254 31.7053 43.6969C31.558 43.6684 31.4312 43.5752 31.36 43.443L30.723 42.26C30.6067 42.0441 30.6643 41.7756 30.8589 41.6263C31.2887 41.2964 31.7906 41.0577 32.3557 40.9041C32.9203 40.7444 33.5027 40.665 34.1013 40.665C35.1811 40.665 36.0905 40.9255 36.7572 41.5164C37.4573 42.1198 37.7603 43.0236 37.7603 44.116V48.185C37.7603 48.4611 37.5364 48.685 37.2603 48.685H35.7263C35.5247 48.685 35.3511 48.5657 35.2719 48.394C34.7841 48.6592 34.1985 48.776 33.5423 48.776C32.9672 48.776 32.4405 48.6801 31.9742 48.4729L31.9658 48.4691C31.5066 48.2548 31.1301 47.954 30.8566 47.5602L30.8478 47.5471C30.5849 47.1418 30.4553 46.6868 30.4553 46.196C30.4553 45.7247 30.5662 45.2856 30.7964 44.891L30.8015 44.8822C31.059 44.4608 31.4596 44.1544 31.9543 43.9424C32.4649 43.7236 33.1033 43.629 33.8413 43.629H35.0819ZM43.4148 41.665C42.8761 41.665 42.4198 41.7723 42.0329 41.9728L42.0297 41.9745C41.8352 42.0736 41.6668 42.1941 41.5228 42.3368V42.5418C41.6065 42.48 41.6956 42.424 41.7898 42.3741C42.1663 42.1747 42.5867 42.082 43.0378 42.082C43.6579 42.082 44.2055 42.266 44.6081 42.6914C45.0255 43.123 45.1888 43.73 45.1888 44.415V47.685H45.8138V44.207C45.8138 43.5602 45.6974 43.0815 45.5021 42.7381L45.5001 42.7345C45.2958 42.3682 45.0227 42.1085 44.6767 41.9389L44.6731 41.9372C44.3187 41.7599 43.9031 41.665 43.4148 41.665ZM40.5228 41.9702C40.446 42.0749 40.3755 42.1857 40.3115 42.3023C40.234 42.4434 40.2292 42.6131 40.2985 42.7583L40.5715 43.3303C40.617 43.4256 40.6896 43.501 40.7765 43.5501C40.6542 43.8861 40.6008 44.2654 40.6008 44.675V47.685H39.9758V41.743H40.5228V41.9702ZM41.5074 41.1193C41.5294 41.1074 41.5517 41.0957 41.5742 41.0843C42.123 40.8001 42.7408 40.665 43.4148 40.665C44.035 40.665 44.6068 40.7864 45.1186 41.0419C45.6552 41.3053 46.0744 41.712 46.3724 42.2456C46.6791 42.7859 46.8138 43.4506 46.8138 44.207V48.185C46.8138 48.4611 46.5899 48.685 46.3138 48.685H44.6888C44.4126 48.685 44.1888 48.4611 44.1888 48.185V44.415C44.1888 43.8708 44.058 43.5603 43.8881 43.3854L43.8829 43.38C43.7137 43.2006 43.4564 43.082 43.0378 43.082C42.7262 43.082 42.4705 43.1452 42.2577 43.2579C42.0578 43.3637 41.8987 43.5216 41.7782 43.7489C41.6702 43.9601 41.6008 44.26 41.6008 44.675V48.185C41.6008 48.4611 41.3769 48.685 41.1008 48.685H39.4758C39.1996 48.685 38.9758 48.4611 38.9758 48.185V41.243C38.9758 40.9668 39.1996 40.743 39.4758 40.743H41.0228C41.2562 40.743 41.4523 40.903 41.5074 41.1193ZM61.2177 41.665C60.5617 41.665 59.9942 41.8009 59.5033 42.061C59.0183 42.3225 58.6441 42.6797 58.3711 43.1372L58.3693 43.1403C58.1016 43.5816 57.9607 44.1007 57.9607 44.714C57.9607 45.3172 58.101 45.8381 58.3711 46.2907C58.6444 46.7487 59.0195 47.1111 59.506 47.3814C59.9964 47.6405 60.5629 47.776 61.2177 47.776C61.8234 47.776 62.3322 47.6524 62.759 47.4212C63.0474 47.2624 63.2867 47.0629 63.4801 46.8205L63.0638 46.5777C62.8718 46.7899 62.6503 46.9641 62.3981 47.0942C62.0292 47.289 61.6286 47.385 61.2047 47.385C60.731 47.385 60.2884 47.2812 59.888 47.0648C59.4838 46.8464 59.1646 46.532 58.9369 46.1308L58.9341 46.1258C58.7038 45.7091 58.5987 45.2325 58.5987 44.714C58.5987 44.1971 58.7032 43.7233 58.9353 43.3129C59.162 42.9037 59.481 42.5831 59.888 42.3631C60.2884 42.1467 60.731 42.043 61.2047 42.043C61.6286 42.043 62.0292 42.1389 62.3981 42.3337C62.6503 42.4639 62.8718 42.638 63.0638 42.8503L63.4824 42.6061C63.2903 42.3644 63.0535 42.172 62.7692 42.0252L62.7603 42.0206C62.3332 41.7889 61.8241 41.665 61.2177 41.665ZM59.0335 41.1782C59.6862 40.8321 60.4184 40.665 61.2177 40.665C61.9615 40.665 62.6381 40.8176 63.2325 41.139C63.8449 41.4564 64.3128 41.9311 64.6275 42.5504C64.7475 42.7866 64.6625 43.0754 64.4337 43.2089L63.1857 43.9369C62.9531 44.0725 62.6548 43.9996 62.511 43.772C62.3438 43.5072 62.1513 43.3313 61.9381 43.2216L61.9328 43.2189C61.7131 43.1026 61.4732 43.043 61.2047 43.043C60.8811 43.043 60.6044 43.1126 60.3635 43.2428C60.1299 43.3691 59.9466 43.5504 59.8094 43.7988L59.8066 43.8038C59.6759 44.0342 59.5987 44.3307 59.5987 44.714C59.5987 45.0955 59.6752 45.3983 59.8081 45.6398C59.9442 45.8786 60.1272 46.0574 60.3635 46.1851C60.6044 46.3154 60.8811 46.385 61.2047 46.385C61.4732 46.385 61.7131 46.3254 61.9328 46.2091L61.9381 46.2063C62.1513 46.0966 62.3438 45.9207 62.511 45.656C62.6548 45.4283 62.9531 45.3554 63.1857 45.4911L64.4337 46.2191C64.6636 46.3532 64.7482 46.644 64.626 46.8805C64.3111 47.4899 63.8454 47.965 63.2397 48.2981L63.2371 48.2995C62.6415 48.6225 61.9634 48.776 61.2177 48.776C60.4184 48.776 59.6862 48.6088 59.0335 48.2627L59.0255 48.2584C58.3872 47.9049 57.8797 47.4187 57.5124 46.8032C57.1412 46.1812 56.9607 45.4801 56.9607 44.714C56.9607 43.9411 57.1403 43.2387 57.5135 42.623C57.8814 42.0071 58.3903 41.5246 59.0307 41.1797L59.0335 41.1782ZM76.5812 41.665C75.9639 41.665 75.4299 41.7991 74.9664 42.0563C74.5083 42.3152 74.1486 42.671 73.8813 43.1308C73.6275 43.5736 73.4932 44.0962 73.4932 44.714C73.4932 45.3185 73.6298 45.8404 73.8921 46.2932C74.1641 46.7481 74.5417 47.1096 75.0357 47.3799C75.5324 47.6384 76.1251 47.776 76.8282 47.776C77.382 47.776 77.8528 47.6891 78.2498 47.5276C78.5115 47.4179 78.74 47.2815 78.9378 47.1189L78.7052 46.8517C78.5189 46.9873 78.3175 47.0979 78.1014 47.182C77.723 47.3292 77.3091 47.398 76.8672 47.398C76.3515 47.398 75.8742 47.2985 75.4476 47.0852C75.0188 46.8708 74.677 46.5588 74.4354 46.1525C74.3554 46.0179 74.2893 45.8776 74.2367 45.7321C73.9809 45.7101 73.7802 45.4955 73.7802 45.234V44.155C73.7802 43.9059 73.9623 43.6993 74.2007 43.6613C74.248 43.5056 74.3097 43.3564 74.3868 43.2144L74.3891 43.2101C74.6038 42.8238 74.8997 42.5146 75.2747 42.294L75.2801 42.2908C75.6692 42.0686 76.108 41.965 76.5812 41.965C77.0464 41.965 77.4778 42.0689 77.8589 42.2924C78.2385 42.5099 78.5402 42.8119 78.7573 43.1919C78.8417 43.3395 78.9082 43.4941 78.9579 43.655H79.2072C79.2978 43.655 79.3838 43.6793 79.4581 43.7225C79.3942 43.4974 79.308 43.2906 79.2008 43.1008C78.9417 42.6419 78.5915 42.2927 78.1448 42.0437C77.6989 41.7952 77.1822 41.665 76.5812 41.665ZM79.5833 44.4845C79.5441 44.5292 79.4965 44.5675 79.4416 44.5966L79.1828 44.734H79.5912C79.5908 44.6489 79.5882 44.5658 79.5833 44.4845ZM78.1321 44.734C78.1182 44.7087 78.1065 44.6823 78.0972 44.655H75.0792V44.734H78.1321ZM75.3548 45.734C75.4889 45.9248 75.6661 46.0764 75.8948 46.1908C76.1616 46.3241 76.4815 46.398 76.8672 46.398C77.2053 46.398 77.4935 46.3455 77.739 46.25C77.9766 46.1576 78.192 46.0114 78.3867 45.8028C78.4109 45.7769 78.4375 45.7539 78.466 45.734H75.3548ZM79.0384 45.734C79.0717 45.7572 79.1023 45.7846 79.1294 45.8158L80.0004 46.8168C80.1632 47.0039 80.1642 47.2821 80.0028 47.4704C79.6362 47.8981 79.1761 48.2242 78.6331 48.4513L78.6289 48.453C78.0902 48.6724 77.4869 48.776 76.8282 48.776C75.9905 48.776 75.2325 48.6109 74.5687 48.2641L74.5607 48.26C73.9136 47.907 73.4003 47.4206 73.0319 46.8032L73.0288 46.798C72.6681 46.1768 72.4932 45.4776 72.4932 44.714C72.4932 43.9455 72.662 43.2465 73.0145 42.6321L73.0158 42.6299C73.3722 42.0162 73.861 41.532 74.4764 41.1846L74.4794 41.1829C75.1076 40.8339 75.8124 40.665 76.5812 40.665C77.3323 40.665 78.0201 40.8294 78.6316 41.1702C79.2423 41.5106 79.724 41.9934 80.0716 42.6092C80.4243 43.234 80.5912 43.9544 80.5912 44.753C80.5912 44.8351 80.5865 44.9218 80.5781 45.0121C80.5773 45.1066 80.5722 45.1991 80.5621 45.2892C80.534 45.5424 80.32 45.734 80.0652 45.734H79.0384ZM75.2867 43.655H77.8697C77.7427 43.4451 77.5748 43.2818 77.3601 43.1591L77.3547 43.1559C77.1472 43.0339 76.8948 42.965 76.5812 42.965C76.2584 42.965 75.9961 43.0341 75.779 43.1576C75.5783 43.2762 75.4149 43.4388 75.2867 43.655ZM85.7211 41.665C85.1824 41.665 84.7261 41.7723 84.3393 41.9728L84.3361 41.9745C84.1415 42.0736 83.9731 42.1941 83.8291 42.3368V42.5418C83.9129 42.48 84.0019 42.424 84.0962 42.3741C84.4727 42.1747 84.8931 42.082 85.3441 42.082C85.9641 42.082 86.5116 42.2659 86.9141 42.691C87.3318 43.1226 87.4951 43.7298 87.4951 44.415V47.685H88.1201V44.207C88.1201 43.5602 88.0037 43.0815 87.8085 42.7381L87.8064 42.7345C87.6022 42.3682 87.329 42.1085 86.983 41.9389L86.9795 41.9372C86.625 41.7599 86.2095 41.665 85.7211 41.665ZM82.8291 41.9702C82.7524 42.075 82.6819 42.1857 82.6178 42.3023C82.5404 42.4434 82.5356 42.6131 82.6049 42.7583L82.8779 43.3303C82.9234 43.4256 82.9959 43.501 83.0829 43.5501C82.9606 43.8861 82.9071 44.2654 82.9071 44.675V47.685H82.2821V41.743H82.8291V41.9702ZM83.8137 41.1193C83.8358 41.1074 83.8581 41.0957 83.8806 41.0843C84.4293 40.8001 85.0471 40.665 85.7211 40.665C86.3414 40.665 86.9132 40.7864 87.425 41.0419C87.9615 41.3053 88.3808 41.712 88.6788 42.2456C88.9855 42.7859 89.1201 43.4506 89.1201 44.207V48.185C89.1201 48.4611 88.8963 48.685 88.6201 48.685H86.9951C86.719 48.685 86.4951 48.4611 86.4951 48.185V44.415C86.4951 43.8708 86.3644 43.5603 86.1945 43.3854L86.1893 43.38C86.0201 43.2006 85.7627 43.082 85.3441 43.082C85.0325 43.082 84.7769 43.1452 84.5641 43.2579C84.3641 43.3637 84.205 43.5217 84.0845 43.7491C83.9766 43.9603 83.9071 44.2601 83.9071 44.675V48.185C83.9071 48.4611 83.6833 48.685 83.4071 48.685H81.7821C81.506 48.685 81.2821 48.4611 81.2821 48.185V41.243C81.2821 40.9668 81.506 40.743 81.7821 40.743H83.3291C83.5626 40.743 83.7587 40.903 83.8137 41.1193ZM93.2815 41.665C92.7047 41.665 92.2282 41.7493 91.8407 41.9028L91.836 41.9046C91.4572 42.0503 91.1875 42.251 91.001 42.4953L90.9971 42.5004C90.8207 42.7254 90.7265 42.9957 90.7265 43.336C90.7265 43.6741 90.7932 43.8909 90.8811 44.0276C90.9931 44.2018 91.1373 44.3409 91.319 44.4484C91.5267 44.5623 91.7596 44.6541 92.0202 44.7217C92.3171 44.7875 92.6091 44.8408 92.8963 44.8819C93.2165 44.9263 93.5089 44.9757 93.7728 45.0303C94.062 45.0902 94.3285 45.1856 94.5521 45.3328C94.8585 45.524 95.0165 45.8306 95.0165 46.183C95.0165 46.6236 94.7787 46.9584 94.4241 47.1699C94.0757 47.3828 93.5907 47.45 93.0605 47.45C92.5764 47.45 92.0947 47.3772 91.6169 47.2339C91.3456 47.1525 91.0916 47.0572 90.8562 46.9468L90.6784 47.2988C90.8821 47.3959 91.1268 47.4884 91.4165 47.5741C91.9075 47.7082 92.4204 47.776 92.9565 47.776C93.5624 47.776 94.0584 47.6952 94.4562 47.5484C94.8578 47.3916 95.1352 47.1881 95.319 46.9535L95.3241 46.947C95.5081 46.7201 95.6025 46.4558 95.6025 46.131C95.6025 45.8041 95.5368 45.5906 95.448 45.4523C95.3409 45.2859 95.2012 45.1603 95.0209 45.0702C95.0149 45.0672 95.0089 45.064 95.003 45.0608C94.7917 44.9442 94.5542 44.8507 94.288 44.7822C94.0075 44.7101 93.723 44.658 93.4343 44.6259L93.4188 44.6239C93.1026 44.5788 92.8094 44.524 92.5402 44.459C92.2519 44.3894 91.9887 44.2883 91.7692 44.142C91.4571 43.9339 91.3125 43.6116 91.3125 43.258C91.3125 42.8202 91.5558 42.4908 91.8971 42.2759L91.904 42.2715C92.2635 42.0533 92.7422 41.978 93.2685 41.978C93.6353 41.978 94.001 42.0212 94.3647 42.1067C94.5938 42.1543 94.8185 42.2266 95.0387 42.3223L95.207 41.9893C95.0289 41.9208 94.8246 41.8602 94.592 41.8095C94.1488 41.7128 93.7122 41.665 93.2815 41.665ZM91.4746 40.9722C92.0052 40.7624 92.6114 40.665 93.2815 40.665C93.7869 40.665 94.2949 40.7211 94.8051 40.8325C95.3192 40.9446 95.7698 41.1087 96.1423 41.3363C96.3646 41.4722 96.4453 41.7559 96.3278 41.9885L95.7038 43.2234C95.641 43.3477 95.5292 43.4402 95.3954 43.4786C95.2616 43.517 95.1178 43.4978 94.9986 43.4257C94.7126 43.2526 94.432 43.1414 94.1561 43.0848L94.1413 43.0815C93.8487 43.0122 93.558 42.978 93.2685 42.978C92.8107 42.978 92.5532 43.0488 92.4262 43.1245C92.3596 43.167 92.3333 43.1999 92.3237 43.2151C92.3165 43.2266 92.3125 43.237 92.3125 43.258C92.3125 43.277 92.3141 43.2897 92.3157 43.2975C92.3164 43.3011 92.3176 43.3053 92.3176 43.3053C92.3176 43.3053 92.3209 43.3079 92.3239 43.3099C92.4164 43.3716 92.5605 43.4352 92.7749 43.4869C93.0063 43.5428 93.2654 43.5917 93.5528 43.6329C93.8854 43.6703 94.2135 43.7305 94.5371 43.8137C94.8742 43.9004 95.1884 44.022 95.4775 44.1804C95.8129 44.3501 96.086 44.5957 96.2891 44.9116C96.5122 45.2586 96.6025 45.6779 96.6025 46.131C96.6025 46.6714 96.4378 47.1599 96.1036 47.5736C95.7855 47.978 95.3456 48.2755 94.8148 48.482L94.8072 48.4849C94.2697 48.684 93.6488 48.776 92.9565 48.776C92.3331 48.776 91.7295 48.6968 91.1473 48.5372L91.138 48.5346C90.5791 48.3697 90.1042 48.1642 89.7333 47.9067C89.5285 47.7644 89.4598 47.493 89.5723 47.2705L90.1963 46.0355C90.26 45.9093 90.3742 45.816 90.5105 45.7787C90.6469 45.7414 90.7926 45.7635 90.9117 45.8396C91.1773 46.0093 91.5058 46.1565 91.9042 46.2761C92.293 46.3927 92.678 46.45 93.0605 46.45C93.5513 46.45 93.8015 46.3789 93.9035 46.3161L93.9106 46.3118C93.975 46.2736 93.998 46.244 94.0053 46.2323C94.0106 46.224 94.0165 46.2121 94.0165 46.183C94.0165 46.1809 94.0165 46.1773 94.0165 46.1773L94.0117 46.1743C94.0095 46.1729 94.0073 46.1714 94.0052 46.17C93.9184 46.1121 93.7804 46.0531 93.5702 46.0096C93.3318 45.9603 93.0612 45.9144 92.7578 45.8722L92.7558 45.8719C92.4393 45.8267 92.119 45.7681 91.7951 45.6961L91.779 45.6922C91.4386 45.6047 91.1214 45.4815 90.83 45.3208L90.8186 45.3145C90.5002 45.1278 90.2389 44.8778 90.04 44.5683C89.8158 44.2197 89.7265 43.7952 89.7265 43.336C89.7265 42.7935 89.883 42.3021 90.2078 41.8864C90.5234 41.4738 90.9541 41.1728 91.4746 40.9722ZM53.6449 41.243C53.6449 40.9668 53.8688 40.743 54.1449 40.743H55.7699C56.0461 40.743 56.2699 40.9668 56.2699 41.243V48.185C56.2699 48.4611 56.0461 48.685 55.7699 48.685H54.1449C53.8688 48.685 53.6449 48.4611 53.6449 48.185V41.243ZM54.6449 41.743V47.685H55.2699V41.743H54.6449Z" fill="white"/>
<path d="M4.08804 48.3151C3.37738 48.3151 2.69704 48.2154 2.04704 48.0161C1.39704 47.8081 0.881377 47.5437 0.500044 47.2231L1.08504 45.9101C1.44904 46.1961 1.89971 46.4344 2.43704 46.6251C2.97438 46.8157 3.52471 46.9111 4.08804 46.9111C4.56471 46.9111 4.95038 46.8591 5.24504 46.7551C5.53971 46.6511 5.75638 46.5124 5.89504 46.3391C6.03371 46.1571 6.10304 45.9534 6.10304 45.7281C6.10304 45.4507 6.00338 45.2297 5.80404 45.0651C5.60471 44.8917 5.34471 44.7574 5.02404 44.6621C4.71204 44.5581 4.36104 44.4627 3.97104 44.3761C3.58971 44.2894 3.20404 44.1897 2.81404 44.0771C2.43271 43.9557 2.08171 43.8041 1.76104 43.6221C1.44904 43.4314 1.19338 43.1801 0.994044 42.8681C0.794711 42.5561 0.695044 42.1574 0.695044 41.6721C0.695044 41.1781 0.825044 40.7274 1.08504 40.3201C1.35371 39.9041 1.75671 39.5747 2.29404 39.3321C2.84004 39.0807 3.52904 38.9551 4.36104 38.9551C4.90704 38.9551 5.44871 39.0244 5.98604 39.1631C6.52338 39.3017 6.99138 39.5011 7.39004 39.7611L6.85704 41.0741C6.44971 40.8314 6.02938 40.6537 5.59604 40.5411C5.16271 40.4197 4.74671 40.3591 4.34804 40.3591C3.88004 40.3591 3.49871 40.4154 3.20404 40.5281C2.91804 40.6407 2.70571 40.7881 2.56704 40.9701C2.43704 41.1521 2.37204 41.3601 2.37204 41.5941C2.37204 41.8714 2.46738 42.0967 2.65804 42.2701C2.85738 42.4347 3.11304 42.5647 3.42504 42.6601C3.74571 42.7554 4.10104 42.8507 4.49104 42.9461C4.88104 43.0327 5.26671 43.1324 5.64804 43.2451C6.03804 43.3577 6.38904 43.5051 6.70104 43.6871C7.02171 43.8691 7.27738 44.1161 7.46804 44.4281C7.66738 44.7401 7.76704 45.1344 7.76704 45.6111C7.76704 46.0964 7.63271 46.5471 7.36404 46.9631C7.10404 47.3704 6.70104 47.6997 6.15504 47.9511C5.60904 48.1937 4.92004 48.3151 4.08804 48.3151ZM12.6798 48.2761C11.9085 48.2761 11.2325 48.1244 10.6518 47.8211C10.0798 47.5091 9.63349 47.0844 9.31283 46.5471C9.00083 46.0097 8.84483 45.3987 8.84483 44.7141C8.84483 44.0207 8.99649 43.4097 9.29983 42.8811C9.61183 42.3437 10.0365 41.9234 10.5738 41.6201C11.1198 41.3167 11.7395 41.1651 12.4328 41.1651C13.1088 41.1651 13.7112 41.3124 14.2398 41.6071C14.7685 41.9017 15.1845 42.3177 15.4878 42.8551C15.7912 43.3924 15.9428 44.0251 15.9428 44.7531C15.9428 44.8224 15.9385 44.9004 15.9298 44.9871C15.9298 45.0737 15.9255 45.1561 15.9168 45.2341H10.1318V44.1551H15.0588L14.4218 44.4931C14.4305 44.0944 14.3482 43.7434 14.1748 43.4401C14.0015 43.1367 13.7632 42.8984 13.4598 42.7251C13.1652 42.5517 12.8228 42.4651 12.4328 42.4651C12.0342 42.4651 11.6832 42.5517 11.3798 42.7251C11.0852 42.8984 10.8512 43.1411 10.6778 43.4531C10.5132 43.7564 10.4308 44.1161 10.4308 44.5321V44.7921C10.4308 45.2081 10.5262 45.5764 10.7168 45.8971C10.9075 46.2177 11.1762 46.4647 11.5228 46.6381C11.8695 46.8114 12.2682 46.8981 12.7188 46.8981C13.1088 46.8981 13.4598 46.8374 13.7718 46.7161C14.0838 46.5947 14.3612 46.4041 14.6038 46.1441L15.4748 47.1451C15.1628 47.5091 14.7685 47.7907 14.2918 47.9901C13.8238 48.1807 13.2865 48.2761 12.6798 48.2761ZM26.3957 41.1651C26.9504 41.1651 27.4401 41.2734 27.8647 41.4901C28.2981 41.7067 28.6361 42.0404 28.8787 42.4911C29.1214 42.9331 29.2427 43.5051 29.2427 44.2071V48.1851H27.6177V44.4151C27.6177 43.7997 27.4834 43.3404 27.2147 43.0371C26.9461 42.7337 26.5604 42.5821 26.0577 42.5821C25.7024 42.5821 25.3861 42.6601 25.1087 42.8161C24.8401 42.9721 24.6277 43.2017 24.4717 43.5051C24.3244 43.8084 24.2507 44.1941 24.2507 44.6621V48.1851H22.6257V44.4151C22.6257 43.7997 22.4914 43.3404 22.2227 43.0371C21.9541 42.7337 21.5684 42.5821 21.0657 42.5821C20.7104 42.5821 20.3941 42.6601 20.1167 42.8161C19.8481 42.9721 19.6357 43.2017 19.4797 43.5051C19.3324 43.8084 19.2587 44.1941 19.2587 44.6621V48.1851H17.6337V41.2431H19.1807V43.0891L18.9077 42.5431C19.1417 42.0924 19.4797 41.7501 19.9217 41.5161C20.3724 41.2821 20.8837 41.1651 21.4557 41.1651C22.1057 41.1651 22.6691 41.3254 23.1457 41.6461C23.6311 41.9667 23.9517 42.4521 24.1077 43.1021L23.4707 42.8811C23.6961 42.3611 24.0687 41.9451 24.5887 41.6331C25.1087 41.3211 25.7111 41.1651 26.3957 41.1651ZM35.7263 48.1851V46.7811L35.6353 46.4821V44.0251C35.6353 43.5484 35.4923 43.1801 35.2063 42.9201C34.9203 42.6514 34.487 42.5171 33.9063 42.5171C33.5163 42.5171 33.1306 42.5777 32.7493 42.6991C32.3766 42.8204 32.0603 42.9894 31.8003 43.2061L31.1633 42.0231C31.536 41.7371 31.978 41.5247 32.4893 41.3861C33.0093 41.2387 33.5466 41.1651 34.1013 41.1651C35.1066 41.1651 35.8823 41.4077 36.4283 41.8931C36.983 42.3697 37.2603 43.1107 37.2603 44.1161V48.1851H35.7263ZM33.5423 48.2761C33.0223 48.2761 32.5673 48.1894 32.1773 48.0161C31.7873 47.8341 31.484 47.5871 31.2673 47.2751C31.0593 46.9544 30.9553 46.5947 30.9553 46.1961C30.9553 45.8061 31.0463 45.4551 31.2283 45.1431C31.419 44.8311 31.7266 44.5841 32.1513 44.4021C32.576 44.2201 33.1393 44.1291 33.8413 44.1291H35.8563V45.2081H33.9583C33.4036 45.2081 33.031 45.2991 32.8403 45.4811C32.6496 45.6544 32.5543 45.8711 32.5543 46.1311C32.5543 46.4257 32.6713 46.6597 32.9053 46.8331C33.1393 47.0064 33.4643 47.0931 33.8803 47.0931C34.279 47.0931 34.6343 47.0021 34.9463 46.8201C35.267 46.6381 35.4966 46.3694 35.6353 46.0141L35.9083 46.9891C35.7523 47.3964 35.4706 47.7127 35.0633 47.9381C34.6646 48.1634 34.1576 48.2761 33.5423 48.2761ZM43.4148 41.1651C43.9694 41.1651 44.4634 41.2734 44.8968 41.4901C45.3388 41.7067 45.6854 42.0404 45.9368 42.4911C46.1881 42.9331 46.3138 43.5051 46.3138 44.2071V48.1851H44.6888V44.4151C44.6888 43.7997 44.5414 43.3404 44.2468 43.0371C43.9608 42.7337 43.5578 42.5821 43.0378 42.5821C42.6564 42.5821 42.3184 42.6601 42.0238 42.8161C41.7291 42.9721 41.4994 43.2061 41.3348 43.5181C41.1788 43.8214 41.1008 44.2071 41.1008 44.6751V48.1851H39.4758V41.2431H41.0228V43.1151L40.7498 42.5431C40.9924 42.1011 41.3434 41.7631 41.8028 41.5291C42.2708 41.2864 42.8081 41.1651 43.4148 41.1651ZM51.1182 48.2761C50.3555 48.2761 49.7662 48.0811 49.3502 47.6911C48.9342 47.2924 48.7262 46.7074 48.7262 45.9361V39.7091H50.3512V45.8971C50.3512 46.2264 50.4335 46.4821 50.5982 46.6641C50.7715 46.8461 51.0099 46.9371 51.3132 46.9371C51.6772 46.9371 51.9805 46.8417 52.2232 46.6511L52.6782 47.8081C52.4875 47.9641 52.2535 48.0811 51.9762 48.1591C51.6989 48.2371 51.4129 48.2761 51.1182 48.2761ZM47.5822 42.5951V41.2951H52.2102V42.5951H47.5822ZM54.1449 48.1851V41.2431H55.7699V48.1851H54.1449ZM54.9639 40.0991C54.6606 40.0991 54.4093 40.0037 54.2099 39.8131C54.0193 39.6224 53.9239 39.3927 53.9239 39.1241C53.9239 38.8467 54.0193 38.6171 54.2099 38.4351C54.4093 38.2444 54.6606 38.1491 54.9639 38.1491C55.2673 38.1491 55.5143 38.2401 55.7049 38.4221C55.9043 38.5954 56.0039 38.8164 56.0039 39.0851C56.0039 39.3711 55.9086 39.6137 55.7179 39.8131C55.5273 40.0037 55.2759 40.0991 54.9639 40.0991ZM61.2178 48.2761C60.4898 48.2761 59.8398 48.1244 59.2678 47.8211C58.7044 47.5091 58.2624 47.0844 57.9418 46.5471C57.6211 46.0097 57.4608 45.3987 57.4608 44.7141C57.4608 44.0207 57.6211 43.4097 57.9418 42.8811C58.2624 42.3437 58.7044 41.9234 59.2678 41.6201C59.8398 41.3167 60.4898 41.1651 61.2178 41.1651C61.8938 41.1651 62.4874 41.3037 62.9988 41.5811C63.5188 41.8497 63.9131 42.2484 64.1818 42.7771L62.9338 43.5051C62.7258 43.1757 62.4701 42.9331 62.1668 42.7771C61.8721 42.6211 61.5514 42.5431 61.2048 42.5431C60.8061 42.5431 60.4464 42.6297 60.1258 42.8031C59.8051 42.9764 59.5538 43.2277 59.3718 43.5571C59.1898 43.8777 59.0988 44.2634 59.0988 44.7141C59.0988 45.1647 59.1898 45.5547 59.3718 45.8841C59.5538 46.2047 59.8051 46.4517 60.1258 46.6251C60.4464 46.7984 60.8061 46.8851 61.2048 46.8851C61.5514 46.8851 61.8721 46.8071 62.1668 46.6511C62.4701 46.4951 62.7258 46.2524 62.9338 45.9231L64.1818 46.6511C63.9131 47.1711 63.5188 47.5741 62.9988 47.8601C62.4874 48.1374 61.8938 48.2761 61.2178 48.2761ZM65.8725 48.1851V39.0851H67.5625V46.7551H72.3205V48.1851H65.8725ZM76.8282 48.2761C76.0569 48.2761 75.3809 48.1244 74.8002 47.8211C74.2282 47.5091 73.7819 47.0844 73.4612 46.5471C73.1492 46.0097 72.9932 45.3987 72.9932 44.7141C72.9932 44.0207 73.1449 43.4097 73.4482 42.8811C73.7602 42.3437 74.1849 41.9234 74.7222 41.6201C75.2682 41.3167 75.8879 41.1651 76.5812 41.1651C77.2572 41.1651 77.8596 41.3124 78.3882 41.6071C78.9169 41.9017 79.3329 42.3177 79.6362 42.8551C79.9396 43.3924 80.0912 44.0251 80.0912 44.7531C80.0912 44.8224 80.0869 44.9004 80.0782 44.9871C80.0782 45.0737 80.0739 45.1561 80.0652 45.2341H74.2802V44.1551H79.2072L78.5702 44.4931C78.5789 44.0944 78.4966 43.7434 78.3232 43.4401C78.1499 43.1367 77.9116 42.8984 77.6082 42.7251C77.3136 42.5517 76.9712 42.4651 76.5812 42.4651C76.1826 42.4651 75.8316 42.5517 75.5282 42.7251C75.2336 42.8984 74.9996 43.1411 74.8262 43.4531C74.6616 43.7564 74.5792 44.1161 74.5792 44.5321V44.7921C74.5792 45.2081 74.6746 45.5764 74.8652 45.8971C75.0559 46.2177 75.3246 46.4647 75.6712 46.6381C76.0179 46.8114 76.4166 46.8981 76.8672 46.8981C77.2572 46.8981 77.6082 46.8374 77.9202 46.7161C78.2322 46.5947 78.5096 46.4041 78.7522 46.1441L79.6232 47.1451C79.3112 47.5091 78.9169 47.7907 78.4402 47.9901C77.9722 48.1807 77.4349 48.2761 76.8282 48.2761ZM85.7211 41.1651C86.2758 41.1651 86.7698 41.2734 87.2031 41.4901C87.6451 41.7067 87.9918 42.0404 88.2431 42.4911C88.4945 42.9331 88.6201 43.5051 88.6201 44.2071V48.1851H86.9951V44.4151C86.9951 43.7997 86.8478 43.3404 86.5531 43.0371C86.2671 42.7337 85.8641 42.5821 85.3441 42.5821C84.9628 42.5821 84.6248 42.6601 84.3301 42.8161C84.0355 42.9721 83.8058 43.2061 83.6411 43.5181C83.4851 43.8214 83.4071 44.2071 83.4071 44.6751V48.1851H81.7821V41.2431H83.3291V43.1151L83.0561 42.5431C83.2988 42.1011 83.6498 41.7631 84.1091 41.5291C84.5771 41.2864 85.1145 41.1651 85.7211 41.1651ZM92.9566 48.2761C92.3759 48.2761 91.8169 48.2024 91.2796 48.0551C90.7509 47.8991 90.3306 47.7127 90.0186 47.4961L90.6426 46.2611C90.9546 46.4604 91.3272 46.6251 91.7606 46.7551C92.1939 46.8851 92.6272 46.9501 93.0606 46.9501C93.5719 46.9501 93.9402 46.8807 94.1656 46.7421C94.3996 46.6034 94.5166 46.4171 94.5166 46.1831C94.5166 45.9924 94.4386 45.8494 94.2826 45.7541C94.1266 45.6501 93.9229 45.5721 93.6716 45.5201C93.4202 45.4681 93.1386 45.4204 92.8266 45.3771C92.5232 45.3337 92.2156 45.2774 91.9036 45.2081C91.6002 45.1301 91.3229 45.0217 91.0716 44.8831C90.8202 44.7357 90.6166 44.5407 90.4606 44.2981C90.3046 44.0554 90.2266 43.7347 90.2266 43.3361C90.2266 42.8941 90.3522 42.5127 90.6036 42.1921C90.8549 41.8627 91.2059 41.6114 91.6566 41.4381C92.1159 41.2561 92.6576 41.1651 93.2816 41.1651C93.7496 41.1651 94.2219 41.2171 94.6986 41.3211C95.1752 41.4251 95.5696 41.5724 95.8816 41.7631L95.2576 42.9981C94.9282 42.7987 94.5946 42.6644 94.2566 42.5951C93.9272 42.5171 93.5979 42.4781 93.2686 42.4781C92.7746 42.4781 92.4062 42.5517 92.1636 42.6991C91.9296 42.8464 91.8126 43.0327 91.8126 43.2581C91.8126 43.4661 91.8906 43.6221 92.0466 43.7261C92.2026 43.8301 92.4062 43.9124 92.6576 43.9731C92.9089 44.0337 93.1862 44.0857 93.4896 44.1291C93.8016 44.1637 94.1092 44.2201 94.4126 44.2981C94.7159 44.3761 94.9932 44.4844 95.2446 44.6231C95.5046 44.7531 95.7126 44.9394 95.8686 45.1821C96.0246 45.4247 96.1026 45.7411 96.1026 46.1311C96.1026 46.5644 95.9726 46.9414 95.7126 47.2621C95.4612 47.5827 95.1016 47.8341 94.6336 48.0161C94.1656 48.1894 93.6066 48.2761 92.9566 48.2761Z" fill="#122C41"/>
<circle cx="51.796" cy="7.69995" r="2" fill="#D9D9D9"/>
<circle cx="50.8446" cy="2.59106" r="2" fill="#D9D9D9"/>
<circle cx="24.2371" cy="18.8999" r="2" fill="#D9D9D9"/>
<circle cx="26.2371" cy="29.0185" r="1.6" fill="#D9D9D9"/>
<circle cx="32.4213" cy="21.8645" r="2.8" fill="#D9D9D9"/>
<circle cx="34.0214" cy="7.7" r="1.2" fill="#D9D9D9"/>
<circle cx="53.796" cy="22.9001" r="2.8" fill="#D9D9D9"/>
<circle cx="52.9909" cy="30.2644" r="2.8" fill="#D9D9D9"/>
<circle cx="50.5399" cy="2.9" r="2.4" fill="#D9D9D9"/>
<circle cx="43.5277" cy="7.39082" r="4.8" fill="#D9D9D9"/>
<circle cx="35.6303" cy="14.5182" r="3.6" fill="#D9D9D9"/>
<circle cx="61.2916" cy="11.7" r="6" fill="#D9D9D9"/>
<mask id="mask0_69_1094" style="mask-type:alpha" maskUnits="userSpaceOnUse" x="34" y="3" width="28" height="28">
<circle cx="48.1399" cy="16.9" r="13.7186" fill="#D9D9D9"/>
</mask>
<g mask="url(#mask0_69_1094)">
<circle cx="42.5554" cy="17.0645" r="2" fill="#52B791"/>
<circle cx="51.796" cy="7.69995" r="2" fill="#003499"/>
<circle cx="50.8446" cy="2.59106" r="2" fill="#52B791"/>
<circle cx="41.2618" cy="23.0999" r="3.2" fill="#E240DD"/>
<circle cx="53.796" cy="22.9001" r="2.8" fill="#FCC700"/>
<circle cx="52.9909" cy="30.2644" r="2.8" fill="#FCC700"/>
<circle cx="47.7909" cy="24.6644" r="2.4" fill="#C220C5"/>
<circle cx="50.5399" cy="2.9" r="2.4" fill="#C220C5"/>
<circle cx="43.5277" cy="7.39082" r="4.8" fill="#006A6D"/>
<circle cx="35.6303" cy="14.5182" r="3.6" fill="#52B791"/>
<circle cx="61.2916" cy="11.7" r="6" fill="#F49832"/>
<circle cx="50.1909" cy="15.3182" r="4.4" fill="#0094FF"/>
</g>
<circle cx="48.1523" cy="16.9" r="12.1186" stroke="#122C41" stroke-width="3.2"/>
<path d="M62.7749 31.5227L57.0215 25.7693" stroke="#122C41" stroke-width="3.2" stroke-linecap="square"/>
</svg>
