<svg
    xmlns="http://www.w3.org/2000/svg"
    xmlns:ev="http://www.w3.org/2001/xml-events"
    xmlns:xlink="http://www.w3.org/1999/xlink"
    zoomAndPan="magnify"
    preserveAspectRatio="xMidYMid meet"
    version="1.0"
    width="{{ 3125 + 1000 * (project_name | length - 1) }}"
    height="3125"
    viewBox="0 0 {{ 2343.75 + 750 * (project_name | length ) }} 2343.75"
>
    <defs />
    <path
        fill="#ca5b32"
        d="M 1115.949219 1156.054688 L 1115.949219 773.84375 L 781.164062 579.949219 L 781.164062 962.160156 Z M 1227.542969 1156.054688 L 1562.328125 962.160156 L 1562.328125 579.949219 L 1227.542969 773.84375 Z M 1171.746094 677.59375 L 1502.34375 486.488281 L 1171.746094 295.382812 L 841.148438 486.488281 Z M 725.367188 1059.804688 C 707.699219 1049.574219 693.980469 1036.089844 684.21875 1019.351562 C 674.453125 1002.613281 669.570312 984.015625 669.570312 963.554688 L 669.570312 519.964844 C 669.570312 499.507812 674.453125 480.910156 684.21875 464.167969 C 693.980469 447.429688 707.699219 433.945312 725.367188 423.714844 L 1115.949219 199.132812 C 1133.617188 188.902344 1152.214844 183.789062 1171.746094 183.789062 C 1191.273438 183.789062 1209.875 188.902344 1227.542969 199.132812 L 1618.125 423.714844 C 1635.792969 433.945312 1649.511719 447.429688 1659.273438 464.167969 C 1669.039062 480.910156 1673.921875 499.507812 1673.921875 519.964844 L 1673.921875 963.554688 C 1673.921875 984.015625 1669.039062 1002.613281 1659.273438 1019.351562 C 1649.511719 1036.089844 1635.792969 1049.574219 1618.125 1059.804688 L 1227.542969 1284.390625 C 1209.875 1294.617188 1191.273438 1299.734375 1171.746094 1299.734375 C 1152.214844 1299.734375 1133.617188 1294.617188 1115.949219 1284.390625 Z M 1171.746094 741.761719 Z M 1171.746094 741.761719 " fill-opacity="1" fill-rule="nonzero"/><path fill="#ca5b32" d="M 613.769531 2016.027344 L 613.769531 1633.8125 L 278.988281 1439.917969 L 278.988281 1822.128906 Z M 725.363281 2016.027344 L 1060.148438 1822.128906 L 1060.148438 1439.917969 L 725.363281 1633.8125 Z M 669.566406 1537.5625 L 1000.167969 1346.457031 L 669.566406 1155.351562 L 338.96875 1346.457031 Z M 223.1875 1919.773438 C 205.519531 1909.546875 191.804688 1896.0625 182.039062 1879.320312 C 172.273438 1862.582031 167.390625 1843.984375 167.390625 1823.523438 L 167.390625 1379.9375 C 167.390625 1359.476562 172.273438 1340.878906 182.039062 1324.140625 C 191.804688 1307.398438 205.519531 1293.914062 223.1875 1283.6875 L 613.769531 1059.101562 C 631.4375 1048.871094 650.039062 1043.757812 669.566406 1043.757812 C 689.097656 1043.757812 707.695312 1048.871094 725.363281 1059.101562 L 1115.945312 1283.6875 C 1133.613281 1293.914062 1147.332031 1307.398438 1157.097656 1324.140625 C 1166.859375 1340.878906 1171.742188 1359.476562 1171.742188 1379.9375 L 1171.742188 1823.523438 C 1171.742188 1843.984375 1166.859375 1862.582031 1157.097656 1879.320312 C 1147.332031 1896.0625 1133.613281 1909.546875 1115.945312 1919.773438 L 725.363281 2144.359375 C 707.695312 2154.589844 689.097656 2159.703125 669.566406 2159.703125 C 650.039062 2159.703125 631.4375 2154.589844 613.769531 2144.359375 Z M 669.566406 1601.730469 Z M 669.566406 1601.730469 " fill-opacity="1" fill-rule="nonzero"/><path fill="#ca5b32" d="M 1617.914062 2016.027344 L 1617.914062 1633.8125 L 1283.128906 1439.917969 L 1283.128906 1822.128906 Z M 1729.507812 2016.027344 L 2064.289062 1822.128906 L 2064.289062 1439.917969 L 1729.507812 1633.8125 Z M 1673.710938 1537.5625 L 2004.308594 1346.457031 L 1673.710938 1155.351562 L 1343.109375 1346.457031 Z M 1227.332031 1919.773438 C 1209.664062 1909.546875 1195.945312 1896.0625 1186.179688 1879.320312 C 1176.417969 1862.582031 1171.535156 1843.984375 1171.535156 1823.523438 L 1171.535156 1379.9375 C 1171.535156 1359.476562 1176.417969 1340.878906 1186.179688 1324.140625 C 1195.945312 1307.398438 1209.664062 1293.914062 1227.332031 1283.6875 L 1617.914062 1059.101562 C 1635.582031 1048.871094 1654.179688 1043.757812 1673.710938 1043.757812 C 1693.238281 1043.757812 1711.839844 1048.871094 1729.507812 1059.101562 L 2120.089844 1283.6875 C 2137.757812 1293.914062 2151.472656 1307.398438 2161.238281 1324.140625 C 2171.003906 1340.878906 2175.886719 1359.476562 2175.886719 1379.9375 L 2175.886719 1823.523438 C 2175.886719 1843.984375 2171.003906 1862.582031 2161.238281 1879.320312 C 2151.472656 1896.0625 2137.757812 1909.546875 2120.089844 1919.773438 L 1729.507812 2144.359375 C 1711.839844 2154.589844 1693.238281 2159.703125 1673.710938 2159.703125 C 1654.179688 2159.703125 1635.582031 2154.589844 1617.914062 2144.359375 Z M 1673.710938 1601.730469 Z M 1673.710938 1601.730469"
    />
    <text
        fill="#ca5b32"
        font-family="monospace"
        font-size="1250"
        x="2343.75"
        y="1562.5"
    >
        {{ project_name }}
    </text>
</svg>
