<svg width="800" height="500" xmlns="http://www.w3.org/2000/svg">
  <!-- Background -->
  <rect width="800" height="500" fill="#f8f9fa" stroke="#e9ecef" stroke-width="1"/>
  
  <!-- Title -->
  <text x="400" y="30" text-anchor="middle" font-family="Arial, sans-serif" font-size="20" font-weight="bold" fill="#212529">Memory Usage Comparison</text>
  
  <!-- Chart area -->
  <rect x="80" y="60" width="640" height="360" fill="white" stroke="#dee2e6" stroke-width="1"/>
  
  <!-- Y-axis labels -->
  <text x="70" y="70" text-anchor="end" font-family="Arial, sans-serif" font-size="12" fill="#6c757d">40</text>
  <text x="70" y="130" text-anchor="end" font-family="Arial, sans-serif" font-size="12" fill="#6c757d">35</text>
  <text x="70" y="190" text-anchor="end" font-family="Arial, sans-serif" font-size="12" fill="#6c757d">30</text>
  <text x="70" y="250" text-anchor="end" font-family="Arial, sans-serif" font-size="12" fill="#6c757d">25</text>
  <text x="70" y="310" text-anchor="end" font-family="Arial, sans-serif" font-size="12" fill="#6c757d">20</text>
  <text x="70" y="370" text-anchor="end" font-family="Arial, sans-serif" font-size="12" fill="#6c757d">15</text>
  <text x="70" y="430" text-anchor="end" font-family="Arial, sans-serif" font-size="12" fill="#6c757d">10</text>
  
  <!-- Y-axis title -->
  <text x="25" y="250" text-anchor="middle" font-family="Arial, sans-serif" font-size="14" fill="#495057" transform="rotate(-90 25 250)">Memory Usage (MB)</text>
  
  <!-- X-axis labels -->
  <text x="180" y="450" text-anchor="middle" font-family="Arial, sans-serif" font-size="12" fill="#6c757d">Concurrency 1</text>
  <text x="400" y="450" text-anchor="middle" font-family="Arial, sans-serif" font-size="12" fill="#6c757d">Concurrency 10</text>
  <text x="620" y="450" text-anchor="middle" font-family="Arial, sans-serif" font-size="12" fill="#6c757d">Concurrency 50</text>
  
  <!-- X-axis title -->
  <text x="400" y="480" text-anchor="middle" font-family="Arial, sans-serif" font-size="14" fill="#495057">Concurrency Level</text>
  
  <!-- Grid lines -->
  <line x1="80" y1="130" x2="720" y2="130" stroke="#e9ecef" stroke-width="1"/>
  <line x1="80" y1="190" x2="720" y2="190" stroke="#e9ecef" stroke-width="1"/>
  <line x1="80" y1="250" x2="720" y2="250" stroke="#e9ecef" stroke-width="1"/>
  <line x1="80" y1="310" x2="720" y2="310" stroke="#e9ecef" stroke-width="1"/>
  <line x1="80" y1="370" x2="720" y2="370" stroke="#e9ecef" stroke-width="1"/>
  
  <!-- Bars for Concurrency 1 -->
  <!-- RequestX: 15.2 MB -->
  <rect x="140" y="398" width="30" height="22" fill="#28a745"/>
  <text x="155" y="393" text-anchor="middle" font-family="Arial, sans-serif" font-size="10" fill="#28a745">15.2</text>
  
  <!-- requests: 18.5 MB -->
  <rect x="175" y="390" width="30" height="30" fill="#dc3545"/>
  <text x="190" y="385" text-anchor="middle" font-family="Arial, sans-serif" font-size="10" fill="#dc3545">18.5</text>
  
  <!-- httpx: 17.9 MB -->
  <rect x="210" y="391" width="30" height="29" fill="#ffc107"/>
  <text x="225" y="386" text-anchor="middle" font-family="Arial, sans-serif" font-size="10" fill="#ffc107">17.9</text>
  
  <!-- Bars for Concurrency 10 -->
  <!-- RequestX: 16.8 MB -->
  <rect x="360" y="396" width="30" height="24" fill="#28a745"/>
  <text x="375" y="391" text-anchor="middle" font-family="Arial, sans-serif" font-size="10" fill="#28a745">16.8</text>
  
  <!-- requests: 22.1 MB -->
  <rect x="395" y="376" width="30" height="44" fill="#dc3545"/>
  <text x="410" y="371" text-anchor="middle" font-family="Arial, sans-serif" font-size="10" fill="#dc3545">22.1</text>
  
  <!-- httpx: 21.3 MB -->
  <rect x="430" y="378" width="30" height="42" fill="#ffc107"/>
  <text x="445" y="373" text-anchor="middle" font-family="Arial, sans-serif" font-size="10" fill="#ffc107">21.3</text>
  
  <!-- Bars for Concurrency 50 -->
  <!-- RequestX: 25.4 MB -->
  <rect x="580" y="369" width="30" height="51" fill="#28a745"/>
  <text x="595" y="364" text-anchor="middle" font-family="Arial, sans-serif" font-size="10" fill="#28a745">25.4</text>
  
  <!-- requests: 35.7 MB -->
  <rect x="615" y="348" width="30" height="72" fill="#dc3545"/>
  <text x="630" y="343" text-anchor="middle" font-family="Arial, sans-serif" font-size="10" fill="#dc3545">35.7</text>
  
  <!-- httpx: 32.8 MB -->
  <rect x="650" y="354" width="30" height="66" fill="#ffc107"/>
  <text x="665" y="349" text-anchor="middle" font-family="Arial, sans-serif" font-size="10" fill="#ffc107">32.8</text>
  
  <!-- Legend -->
  <rect x="550" y="80" width="150" height="80" fill="white" stroke="#dee2e6" stroke-width="1"/>
  <rect x="560" y="95" width="15" height="10" fill="#28a745"/>
  <text x="580" y="103" font-family="Arial, sans-serif" font-size="12" fill="#495057">RequestX</text>
  <rect x="560" y="115" width="15" height="10" fill="#dc3545"/>
  <text x="580" y="123" font-family="Arial, sans-serif" font-size="12" fill="#495057">requests</text>
  <rect x="560" y="135" width="15" height="10" fill="#ffc107"/>
  <text x="580" y="143" font-family="Arial, sans-serif" font-size="12" fill="#495057">httpx</text>
  
  <!-- Efficiency indicator -->
  <text x="400" y="50" text-anchor="middle" font-family="Arial, sans-serif" font-size="12" fill="#28a745" font-style="italic">RequestX shows 15-30% lower memory usage</text>
</svg>