<svg width="800" height="500" xmlns="http://www.w3.org/2000/svg">
  <!-- Background -->
  <rect width="800" height="500" fill="#f8f9fa" stroke="#e9ecef" stroke-width="1"/>
  
  <!-- Title -->
  <text x="400" y="30" text-anchor="middle" font-family="Arial, sans-serif" font-size="20" font-weight="bold" fill="#212529">Average Response Time Comparison</text>
  
  <!-- Chart area -->
  <rect x="80" y="60" width="640" height="360" fill="white" stroke="#dee2e6" stroke-width="1"/>
  
  <!-- Y-axis labels -->
  <text x="70" y="70" text-anchor="end" font-family="Arial, sans-serif" font-size="12" fill="#6c757d">120</text>
  <text x="70" y="110" text-anchor="end" font-family="Arial, sans-serif" font-size="12" fill="#6c757d">100</text>
  <text x="70" y="150" text-anchor="end" font-family="Arial, sans-serif" font-size="12" fill="#6c757d">80</text>
  <text x="70" y="190" text-anchor="end" font-family="Arial, sans-serif" font-size="12" fill="#6c757d">60</text>
  <text x="70" y="230" text-anchor="end" font-family="Arial, sans-serif" font-size="12" fill="#6c757d">40</text>
  <text x="70" y="270" text-anchor="end" font-family="Arial, sans-serif" font-size="12" fill="#6c757d">20</text>
  <text x="70" y="310" text-anchor="end" font-family="Arial, sans-serif" font-size="12" fill="#6c757d">10</text>
  <text x="70" y="350" text-anchor="end" font-family="Arial, sans-serif" font-size="12" fill="#6c757d">5</text>
  <text x="70" y="390" text-anchor="end" font-family="Arial, sans-serif" font-size="12" fill="#6c757d">2</text>
  <text x="70" y="420" text-anchor="end" font-family="Arial, sans-serif" font-size="12" fill="#6c757d">0</text>
  
  <!-- Y-axis title -->
  <text x="25" y="250" text-anchor="middle" font-family="Arial, sans-serif" font-size="14" fill="#495057" transform="rotate(-90 25 250)">Response Time (ms)</text>
  
  <!-- X-axis labels -->
  <text x="180" y="450" text-anchor="middle" font-family="Arial, sans-serif" font-size="12" fill="#6c757d">Concurrency 1</text>
  <text x="400" y="450" text-anchor="middle" font-family="Arial, sans-serif" font-size="12" fill="#6c757d">Concurrency 10</text>
  <text x="620" y="450" text-anchor="middle" font-family="Arial, sans-serif" font-size="12" fill="#6c757d">Concurrency 50</text>
  
  <!-- X-axis title -->
  <text x="400" y="480" text-anchor="middle" font-family="Arial, sans-serif" font-size="14" fill="#495057">Concurrency Level</text>
  
  <!-- Grid lines -->
  <line x1="80" y1="110" x2="720" y2="110" stroke="#e9ecef" stroke-width="1"/>
  <line x1="80" y1="150" x2="720" y2="150" stroke="#e9ecef" stroke-width="1"/>
  <line x1="80" y1="190" x2="720" y2="190" stroke="#e9ecef" stroke-width="1"/>
  <line x1="80" y1="230" x2="720" y2="230" stroke="#e9ecef" stroke-width="1"/>
  <line x1="80" y1="270" x2="720" y2="270" stroke="#e9ecef" stroke-width="1"/>
  <line x1="80" y1="310" x2="720" y2="310" stroke="#e9ecef" stroke-width="1"/>
  <line x1="80" y1="350" x2="720" y2="350" stroke="#e9ecef" stroke-width="1"/>
  <line x1="80" y1="390" x2="720" y2="390" stroke="#e9ecef" stroke-width="1"/>
  
  <!-- Bars for Concurrency 1 -->
  <!-- RequestX: 2.1 ms -->
  <rect x="140" y="415" width="30" height="5" fill="#28a745"/>
  <text x="155" y="410" text-anchor="middle" font-family="Arial, sans-serif" font-size="10" fill="#28a745">2.1</text>
  
  <!-- requests: 3.8 ms -->
  <rect x="175" y="408" width="30" height="12" fill="#dc3545"/>
  <text x="190" y="403" text-anchor="middle" font-family="Arial, sans-serif" font-size="10" fill="#dc3545">3.8</text>
  
  <!-- httpx: 4.2 ms -->
  <rect x="210" y="406" width="30" height="14" fill="#ffc107"/>
  <text x="225" y="401" text-anchor="middle" font-family="Arial, sans-serif" font-size="10" fill="#ffc107">4.2</text>
  
  <!-- Bars for Concurrency 10 -->
  <!-- RequestX: 8.5 ms -->
  <rect x="360" y="386" width="30" height="34" fill="#28a745"/>
  <text x="375" y="381" text-anchor="middle" font-family="Arial, sans-serif" font-size="10" fill="#28a745">8.5</text>
  
  <!-- requests: 15.2 ms -->
  <rect x="395" y="359" width="30" height="61" fill="#dc3545"/>
  <text x="410" y="354" text-anchor="middle" font-family="Arial, sans-serif" font-size="10" fill="#dc3545">15.2</text>
  
  <!-- httpx: 18.7 ms -->
  <rect x="430" y="345" width="30" height="75" fill="#ffc107"/>
  <text x="445" y="340" text-anchor="middle" font-family="Arial, sans-serif" font-size="10" fill="#ffc107">18.7</text>
  
  <!-- Bars for Concurrency 50 -->
  <!-- RequestX: 42.3 ms -->
  <rect x="580" y="251" width="30" height="169" fill="#28a745"/>
  <text x="595" y="246" text-anchor="middle" font-family="Arial, sans-serif" font-size="10" fill="#28a745">42.3</text>
  
  <!-- requests: 89.6 ms -->
  <rect x="615" y="151" width="30" height="269" fill="#dc3545"/>
  <text x="630" y="146" text-anchor="middle" font-family="Arial, sans-serif" font-size="10" fill="#dc3545">89.6</text>
  
  <!-- httpx: 105.4 ms -->
  <rect x="650" y="135" width="30" height="285" fill="#ffc107"/>
  <text x="665" y="130" text-anchor="middle" font-family="Arial, sans-serif" font-size="10" fill="#ffc107">105.4</text>
  
  <!-- Legend -->
  <rect x="550" y="80" width="150" height="80" fill="white" stroke="#dee2e6" stroke-width="1"/>
  <rect x="560" y="95" width="15" height="10" fill="#28a745"/>
  <text x="580" y="103" font-family="Arial, sans-serif" font-size="12" fill="#495057">RequestX</text>
  <rect x="560" y="115" width="15" height="10" fill="#dc3545"/>
  <text x="580" y="123" font-family="Arial, sans-serif" font-size="12" fill="#495057">requests</text>
  <rect x="560" y="135" width="15" height="10" fill="#ffc107"/>
  <text x="580" y="143" font-family="Arial, sans-serif" font-size="12" fill="#495057">httpx</text>
  
  <!-- Performance indicator -->
  <text x="400" y="50" text-anchor="middle" font-family="Arial, sans-serif" font-size="12" fill="#28a745" font-style="italic">RequestX delivers 2-3x faster response times</text>
</svg>