<?xml version="1.0" encoding="UTF-8" standalone="no"?>
<!-- Created with Inkscape (http://www.inkscape.org/) -->

<svg
   width="32"
   height="32"
   viewBox="0 0 32 32"
   version="1.1"
   id="svg1"
   inkscape:version="1.4 (e7c3feb, 2024-10-09)"
   sodipodi:docname="logo.svg"
   xmlns:inkscape="http://www.inkscape.org/namespaces/inkscape"
   xmlns:sodipodi="http://sodipodi.sourceforge.net/DTD/sodipodi-0.dtd"
   xmlns="http://www.w3.org/2000/svg"
   xmlns:svg="http://www.w3.org/2000/svg">
  <sodipodi:namedview
     id="namedview1"
     pagecolor="#505050"
     bordercolor="#eeeeee"
     borderopacity="1"
     inkscape:showpageshadow="0"
     inkscape:pageopacity="0"
     inkscape:pagecheckerboard="0"
     inkscape:deskcolor="#505050"
     inkscape:document-units="px"
     inkscape:zoom="26.4375"
     inkscape:cx="16"
     inkscape:cy="16"
     inkscape:window-width="1920"
     inkscape:window-height="1048"
     inkscape:window-x="0"
     inkscape:window-y="0"
     inkscape:window-maximized="1"
     inkscape:current-layer="layer1" />
  <defs
     id="defs1" />
  <g
     inkscape:label="Camada 1"
     inkscape:groupmode="layer"
     id="layer1">
    <g
       id="g1">
      <circle
         style="fill:#000000;stroke-width:0.2;stroke-linecap:round"
         id="path1"
         cx="16"
         cy="16"
         r="16" />
      <path
         d="m 10.243289,10.968533 h 2.427995 q 0.04477,0.123094 0.413998,1.006994 0.369224,0.872731 0.615416,1.745456 0.313289,-0.783216 0.738474,-1.342655 0.436384,-0.559476 0.861543,-0.861544 0.42516,-0.302061 0.973435,-0.46993 0.548255,-0.167805 0.973434,-0.212578 0.42516,-0.04477 0.995809,-0.04477 4.49794,0 4.49794,5.930076 V 23.5 h -6.288159 v -1.588807 h 4.207027 v -5.191595 q 0,-2.181825 -0.682526,-3.22238 -0.682519,-1.051755 -1.767844,-1.051755 -2.014003,0 -2.976249,1.790216 -0.537096,1.018182 -1.007002,3.323083 -0.02207,0.156643 -0.07832,0.413931 l -1.096518,5.527276 h -2.081134 l 0.895112,-4.676924 q 0.03342,-0.17903 0.111871,-0.5818 0.08948,-0.413932 0.111871,-0.559414 0.03342,-0.156643 0.06716,-0.436381 0.04477,-0.290899 0.05612,-0.503478 0.02207,-0.22374 0.02207,-0.46993 0,-0.716088 -0.525869,-2.181825 -0.514702,-1.476924 -1.465744,-3.121678 z M 9.2586665,7.5 H 10.937002 V 9.178322 H 9.2586665 Z"
         id="text1"
         style="font-size:5.33333px;font-family:'Ubuntu Mono';-inkscape-font-specification:'Ubuntu Mono';text-align:center;text-anchor:middle;fill:#ffffff;stroke-width:0.2;stroke-linecap:round"
         aria-label="מֹ" />
    </g>
    <text
       xml:space="preserve"
       style="font-size:5.33333px;font-family:Ubuntu;-inkscape-font-specification:Ubuntu;text-align:center;writing-mode:lr-tb;direction:ltr;text-anchor:middle;fill:#ffffff;stroke-width:0.2;stroke-linecap:round;font-weight:normal;font-style:normal;font-stretch:normal;font-variant:normal"
       x="48.264774"
       y="-25.56974"
       id="text2"><tspan
         sodipodi:role="line"
         id="tspan2"
         x="48.264774"
         y="-25.56974" /></text>
    <text
       xml:space="preserve"
       style="font-style:normal;font-variant:normal;font-weight:normal;font-stretch:normal;font-size:5.33333px;font-family:Ubuntu;-inkscape-font-specification:Ubuntu;text-align:center;writing-mode:lr-tb;direction:ltr;text-anchor:middle;fill:#ffffff;stroke-width:0.2;stroke-linecap:round"
       x="53.333332"
       y="-31.508274"
       id="text3"><tspan
         sodipodi:role="line"
         id="tspan3"
         x="53.333332"
         y="-31.508274" /></text>
  </g>
</svg>
