<?xml version="1.0" encoding="UTF-8" standalone="no"?> <svg width="32" height="32" viewBox="0 0 8.4666665 8.4666666" version="1.1" id="svg5" xml:space="preserve" inkscape:version="1.2 (dc2aeda, 2022-05-15)" sodipodi:docname="mosheh.svg" xmlns:inkscape="http://www.inkscape.org/namespaces/inkscape" xmlns:sodipodi="http://sodipodi.sourceforge.net/DTD/sodipodi-0.dtd" xmlns="http://www.w3.org/2000/svg" xmlns:svg="http://www.w3.org/2000/svg"><sodipodi:namedview id="namedview7" pagecolor="#ffffff" bordercolor="#999999" borderopacity="1" inkscape:showpageshadow="0" inkscape:pageopacity="0" inkscape:pagecheckerboard="0" inkscape:deskcolor="#d1d1d1" inkscape:document-units="mm" showgrid="false" inkscape:zoom="26.5625" inkscape:cx="16" inkscape:cy="16" inkscape:window-width="1920" inkscape:window-height="1052" inkscape:window-x="0" inkscape:window-y="0" inkscape:window-maximized="1" inkscape:current-layer="layer1" /><defs id="defs2" /><g inkscape:label="Camada 1" inkscape:groupmode="layer" id="layer1"><ellipse style="fill:none;stroke:#008000;stroke-width:0;stroke-linecap:square;stroke-linejoin:round;stroke-miterlimit:0;paint-order:stroke fill markers;stroke-dasharray:none" id="path670" cx="11.598701" cy="1.1671114" rx="1.5028949" ry="1.4619142" /><g id="g2132"><path id="path2127" style="fill:#1a1a1a;fill-opacity:1;stroke-width:0;stroke-linecap:square;stroke-linejoin:round;stroke-miterlimit:0;paint-order:stroke fill markers" d="M 4.6063388,0.01646506 4.0722732,0.46372681 3.5023674,0.06371516 3.1023559,0.63362092 2.4477525,0.39486461 2.209028,1.0491039 1.5152568,0.98773602 1.4538888,1.6815082 0.76790308,1.801682 0.88804403,2.4880319 0.25677008,2.7817924 0.55053115,3.4130662 0.01646506,3.8603279 0.4637273,4.3943936 0.06371524,4.9642994 0.6336212,5.364311 0.3948655,6.0189143 1.0491047,6.2576384 0.98773675,6.9514106 1.6815079,7.0127785 1.801682,7.6987644 2.488032,7.5786229 2.7817925,8.2098965 3.4130663,7.9161361 3.860328,8.4502017 4.3943936,8.0029399 4.9642994,8.4029514 5.3643109,7.8330457 6.0189143,8.071802 6.2576384,7.4175627 6.9514106,7.4789307 7.0127786,6.7851584 7.6987644,6.6649847 7.5786228,5.9786348 8.2098966,5.6848743 7.9161361,5.0536004 8.4502016,4.6063387 8.0029399,4.0722731 8.4029515,3.5023673 7.8330456,3.1023558 8.071802,2.4477524 7.4175627,2.2090282 7.4789307,1.515256 6.7851584,1.453888 6.6649847,0.76790218 5.9786349,0.88804374 5.6848743,0.25676999 5.0536005,0.55053065 Z" /><path id="rect2030" style="fill:#808080;fill-opacity:1;stroke-width:0;stroke-linecap:square;stroke-linejoin:round;stroke-miterlimit:0;paint-order:stroke fill markers" d="M 4.6063388,0.01646506 3.7407539,0.4925795 3.5023674,0.06371516 2.7895786,0.7472737 2.4477525,0.39486461 1.936334,1.2398532 1.5152568,0.98773602 1.239854,1.9363343 0.76790308,1.801682 0.747274,2.7895785 0.25677008,2.7817924 0.49258,3.7407538 0.01646506,3.8603279 0.49258,4.7259128 0.06371524,4.9642994 0.747274,5.6770882 0.3948655,6.0189143 1.239854,6.5303323 0.98773675,6.9514106 1.936334,7.2268134 1.801682,7.6987644 2.7895786,7.7193929 2.7817925,8.2098965 3.7407539,7.9740872 3.860328,8.4502017 4.7259129,7.9740872 4.9642994,8.4029514 5.6770882,7.7193929 6.0189143,8.071802 6.5303323,7.2268134 6.9514106,7.4789307 7.2268134,6.5303323 7.6987644,6.6649847 7.7193928,5.6770882 8.2098966,5.6848743 7.9740872,4.7259128 8.4502016,4.6063387 7.9740872,3.7407538 8.4029515,3.5023673 7.7193928,2.7895785 8.071802,2.4477524 7.2268134,1.9363343 7.4789307,1.515256 6.5303323,1.2398532 6.6649847,0.76790218 5.6770882,0.7472737 5.6848743,0.25676999 4.7259129,0.4925795 Z" sodipodi:nodetypes="ccccccccccccccccccccccccccccccccccccccccccccccccc" /><path style="fill:#1a1a1a;fill-opacity:1;stroke:none;stroke-width:0.05;stroke-linecap:square;stroke-linejoin:round;stroke-miterlimit:0;stroke-dasharray:none;stroke-opacity:0.995527;paint-order:stroke fill markers" d="m 4.6916477,3.6921368 c 0.025612,-0.03772 0.013896,-0.025504 0.02969,-0.041015 0.00798,-0.0078 0.015996,-0.016744 0.02333,-0.025143 0.032422,-0.037135 0.02936,-0.034014 0.013694,-0.063336 -0.00706,-0.013244 -0.040444,-0.051955 -0.032826,-0.071737 C 4.8413563,3.3679288 4.93924,3.3582522 5.0310838,3.2152103 c 0.014988,-0.011109 0.090236,0.075421 0.125029,0.041391 0.02287,-0.065938 0.039216,-0.1226179 0.07459,-0.1788184 0.01781,0.00656 0.092356,0.069133 0.1361896,0.074157 0.035814,-0.00555 0.2264278,-0.1673272 0.257874,-0.1893677 C 5.6664564,2.9316824 5.4921181,2.8316359 5.4542715,2.7895959 5.5096745,2.7885659 5.593025,2.754382 5.6114866,2.7277479 5.6209266,2.5529797 5.7098156,2.4385793 5.751716,2.3560976 6.0267048,2.5216653 6.1852253,2.3818397 6.2577824,2.1223459 6.1246279,2.2574979 6.0006704,2.2718851 5.827013,2.274116 6.0278754,2.216368 6.0914684,2.0644123 6.1346517,1.9258777 c -0.04763,0.06504 -0.1021353,0.06579 -0.148879,0.050393 C 6.0689696,1.8354697 6.1539202,1.6239854 6.0936014,1.6757222 5.9416452,1.7477475 5.8627301,1.7246567 5.7835821,1.6057402 5.6482331,1.4031838 5.5139439,1.2815837 5.275994,1.1674024 5.0969841,1.0417855 4.8296935,0.92480995 4.6630559,1.1167491 4.4385434,1.0521536 4.3440862,1.0196285 4.1319937,1.2654396 3.9199021,1.5112509 3.8556684,2.0089174 3.7052119,2.2546884 3.8184764,2.2741932 3.9129043,2.1346697 3.9818205,2.1685583 3.9977155,1.9362754 4.0556765,1.8544458 4.1864357,1.7957206 4.3900811,1.7512145 4.4583197,1.98681 4.3927641,2.1206714 c -0.018728,0.033584 -0.029361,0.058178 -0.052635,0.08825 -0.00971,0.012549 -0.014538,0.028519 -0.024888,0.04072 -0.045183,0.053261 -0.1206089,0.1828132 -0.175071,0.2232459 -0.19432,0.1746501 -0.320934,0.4518004 -0.1658171,0.707774 0.073864,0.1410611 0.1581611,0.2986005 0.2533389,0.3964736 0.1155323,0.1188052 0.274821,0.1249558 0.423358,0.131137 0.059785,0.00143 0.039655,0.089046 0.0714,0.1337225 0.096654,0.1289694 0.083646,0.6380179 0.089284,0.9748203 0.014364,0.040948 0.1101561,0.056044 0.1442425,0.070478 0.032084,0.1154538 0.1149923,0.1211771 0.1412018,0.1493874 0.050518,0.00995 0.1525879,0.1372768 0.1866028,0.1412279 0.038069,-0.016343 0.064598,-0.067209 0.087569,-0.09729 0.034256,-0.044843 0.1106539,-0.1190807 0.163136,-0.1411633 0.038142,-0.01605 0.077412,-0.032031 0.116131,-0.043436 0.03125,-0.0092 0.1010389,-0.00399 0.1271713,-0.019812 0.01287,-0.0078 0.0253,-0.00569 0.03893,-0.010233 0.010762,-0.00358 0.01375,-0.0117 0.026244,-0.015202 0.012632,-0.00355 0.055256,-0.00521 0.055376,-0.00543 C 5.7743641,4.5764053 5.7995333,4.6648673 5.7199021,4.4765443 c -0.079631,-0.188323 0.07809,-0.2126948 0.1456054,-0.052669 0.067512,0.1600264 0.00284,-0.00654 0.15339,0.3777055 0.00174,0.00671 0.014245,-0.0015 0.02111,0 0.2168785,-0.033189 0.2278509,0.028433 0.2765948,0.092261 0.048748,0.063829 0.015436,0.1341191 0.00962,0.1976447 0.1283767,0.044392 0.1456083,0.2261052 0.050032,0.2311626 0.043148,0.056045 0.046172,0.1532859 -0.059996,0.2374122 C 7.4952151,5.2351105 7.1738043,5.3211915 7.5911711,5.2102836 6.5906276,6.4297858 7.5757252,5.2341893 6.5476533,6.4740612 4.3321603,6.8344443 6.5058899,6.4963674 4.2778871,6.8361103 5.1866014,6.0703414 4.2988056,6.8080245 5.2101405,6.0409217 4.889662,6.011909 4.9253552,6.1147289 4.8160498,6.1488548 4.8077098,6.1594128 4.8200898,6.3664873 4.8131098,6.377867 3.8870644,6.6829358 4.1214419,6.4106057 3.623928,6.6492478 3.2433683,6.6882612 2.7488839,6.8881078 2.500462,6.8087596 1.9401288,6.66863 1.6562859,4.8470493 1.8132206,3.8898667 1.8657457,3.5695014 1.9664574,3.526846 2.1597224,3.3196622 2.3963275,3.1012502 2.6531196,2.9430169 2.8730221,2.8438307 3.1889906,3.1005277 3.3585267,3.6301121 3.4599516,3.8880951 3.6352471,3.7238973 3.9834209,3.4917928 4.0005635,3.6734699 c 0.016784,0.083456 -0.1378734,0.025896 -0.1478504,0.039384 0.08834,0.2673933 0.3159767,0.270794 0.3578502,0.5643304 0.010964,-0.00493 0.021432,-0.033787 0.02277,-0.043851 C 4.2457913,4.1397193 4.2615023,4.060049 4.3105893,3.97615 4.3379973,3.9293 4.3966273,3.893181 4.4376937,3.8595812 4.5144097,3.7968112 4.5947678,3.7221287 4.6916606,3.6921325 Z" id="path1928" sodipodi:nodetypes="ccccccccccccccccccccczccccssccsccccccsssccsczzcczcccccccccccscccccccsscc" /></g></g></svg> 
