<?xml version="1.0" standalone="no"?>
<!DOCTYPE svg PUBLIC "-//W3C//DTD SVG 20010904//EN"
 "http://www.w3.org/TR/2001/REC-SVG-20010904/DTD/svg10.dtd">
<svg version="1.0" xmlns="http://www.w3.org/2000/svg"
 width="512.000000pt" height="512.000000pt" viewBox="0 0 512.000000 512.000000"
 preserveAspectRatio="xMidYMid meet">
<metadata>
Created by potrace 1.14, written by Peter Selinger 2001-2017
</metadata>
<g transform="translate(0.000000,512.000000) scale(0.100000,-0.100000)"
fill="#000000" stroke="none">
<path d="M825 5101 c-51 -24 -93 -68 -110 -117 -10 -30 -13 -207 -12 -861 0
-453 -2 -825 -4 -827 -3 -3 -41 -6 -86 -7 -144 -3 -245 -63 -295 -173 l-23
-51 0 -810 c0 -803 0 -810 21 -856 54 -116 142 -170 286 -175 50 -1 92 -5 95
-8 3 -3 5 -239 5 -524 1 -404 4 -528 14 -558 17 -49 80 -109 130 -123 27 -8
552 -11 1725 -11 l1685 0 50 25 c53 26 86 68 102 126 5 20 10 245 10 520 0
266 1 500 1 519 l1 35 93 1 c73 0 103 5 144 23 60 27 116 83 146 149 l22 47 0
810 0 810 -24 52 c-49 109 -152 169 -296 172 -44 1 -81 4 -84 6 -2 2 -4 142
-4 310 0 237 -3 311 -14 331 -10 21 -70 93 -148 180 -31 34 -195 222 -231 263
-16 19 -33 39 -39 45 -5 6 -57 65 -115 131 -104 119 -280 319 -395 450 -33 37
-62 71 -65 74 -3 4 -16 15 -30 24 -23 16 -114 17 -1270 17 -1188 -1 -1247 -1
-1285 -19z m2405 -711 l0 -530 29 -32 29 -33 464 -3 463 -3 1 -249 0 -250
-1655 2 -1656 3 0 812 -1 813 1163 0 1163 0 0 -530z m-1485 -1414 c58 -8 185
-46 185 -55 0 -3 -9 -40 -21 -81 -11 -41 -22 -83 -24 -93 -13 -59 -10 -57 -73
-36 -69 23 -176 36 -265 33 -193 -8 -325 -99 -386 -265 -20 -53 -23 -203 -6
-276 20 -85 44 -130 101 -188 80 -81 183 -116 324 -110 116 4 110 -4 110 151
l0 134 -100 0 -100 0 0 115 0 115 243 0 242 0 0 -340 0 -341 -60 -18 c-142
-44 -411 -68 -530 -47 -175 30 -281 80 -380 180 -117 118 -168 250 -169 436
-1 138 8 197 50 300 80 202 295 354 549 389 67 9 234 7 310 -3z m985 0 c202
-26 323 -110 380 -263 20 -53 28 -159 17 -213 -22 -104 -50 -160 -111 -223
-87 -87 -233 -136 -422 -140 l-99 -2 -1 -220 c0 -122 -3 -225 -6 -230 -5 -8
-198 -12 -274 -6 -8 1 -11 188 -11 641 l0 640 26 1 c14 0 35 3 46 5 11 2 76 7
145 10 69 4 126 7 127 8 4 3 144 -3 183 -8z m790 -5 c3 0 12 -16 19 -33 8 -18
48 -103 88 -188 40 -85 81 -172 91 -193 l17 -38 44 108 c24 59 64 151 88 203
25 52 49 105 54 118 5 12 12 23 16 23 26 4 331 3 328 -1 -5 -9 -163 -286 -182
-318 -117 -203 -173 -303 -173 -312 0 -6 23 -50 51 -98 29 -48 61 -103 72
-122 10 -19 71 -123 133 -231 63 -107 114 -199 114 -205 0 -7 -232 -11 -317
-5 -7 1 -65 105 -128 231 -64 127 -119 228 -124 226 -5 -3 -12 -17 -15 -30 -3
-14 -21 -58 -40 -98 -18 -40 -59 -130 -91 -200 -32 -71 -61 -128 -64 -129 -9
-1 -238 -1 -288 0 l-42 1 64 111 c36 60 65 112 65 115 0 2 12 23 27 47 14 23
40 67 56 97 16 30 36 62 43 71 8 8 14 19 14 23 0 4 19 40 42 79 24 40 47 81
53 92 9 16 -3 44 -68 160 -44 77 -91 160 -104 185 -14 25 -33 59 -43 75 -10
17 -30 53 -45 80 -16 28 -41 73 -57 100 -15 28 -28 52 -28 55 0 4 313 5 330 1z
m660 -1750 l36 -1 -1 -482 0 -483 -1640 0 c-902 -1 -1647 1 -1655 3 -14 3 -16
58 -16 480 0 262 3 479 7 482 5 4 3107 5 3269 1z"/>
<path d="M2580 2762 c-94 -5 -86 14 -86 -204 l1 -193 90 0 c78 0 98 4 145 27
65 33 98 76 109 145 23 145 -82 236 -259 225z"/>
</g>
</svg>
