<?xml version="1.0" encoding="UTF-8" standalone="no"?>
<!-- Created with Inkscape (http://www.inkscape.org/) -->

<svg
   width="512.0px"
   height="512.0px"
   viewBox="0 0 512.0 512.0"
   version="1.1"
   id="SVGRoot"
   sodipodi:docname="ALE_.svg"
   xml:space="preserve"
   inkscape:version="1.2.2 (b0a8486541, 2022-12-01)"
   xmlns:inkscape="http://www.inkscape.org/namespaces/inkscape"
   xmlns:sodipodi="http://sodipodi.sourceforge.net/DTD/sodipodi-0.dtd"
   xmlns:xlink="http://www.w3.org/1999/xlink"
   xmlns="http://www.w3.org/2000/svg"
   xmlns:svg="http://www.w3.org/2000/svg"><sodipodi:namedview
     id="namedview181"
     pagecolor="#505050"
     bordercolor="#ffffff"
     borderopacity="1"
     inkscape:showpageshadow="0"
     inkscape:pageopacity="0"
     inkscape:pagecheckerboard="1"
     inkscape:deskcolor="#505050"
     inkscape:document-units="px"
     showgrid="true"
     inkscape:zoom="1.8101934"
     inkscape:cx="-7.4577668"
     inkscape:cy="298.03446"
     inkscape:window-width="2560"
     inkscape:window-height="1348"
     inkscape:window-x="0"
     inkscape:window-y="0"
     inkscape:window-maximized="1"
     inkscape:current-layer="layer2"><inkscape:grid
       type="xygrid"
       id="grid187" /></sodipodi:namedview><defs
     id="defs176"><linearGradient
   inkscape:collect="always"
   id="linearGradient1574"><stop
     style="stop-color:#725835;stop-opacity:1;"
     offset="0.64963192"
     id="stop1570" /><stop
     style="stop-color:#4a3622;stop-opacity:1;"
     offset="0.99833393"
     id="stop1572" /></linearGradient><clipPath
   id="clipPath1099">
      <path
   d="M 0,0 H 6 V 4.289062 H 0 Z m 0,0"
   id="path32" />
    </clipPath>
  <clipPath
   id="clipPath3941">
      <path
   d="M 0,0 H 14 V 10.671875 H 0 Z m 0,0"
   id="path1289" />
    </clipPath>
  <clipPath
   id="clipPath8189">
      <path
   d="M 0,0 H 13 V 10.671875 H 0 Z m 0,0"
   id="path4034" />
    </clipPath>
  <clipPath
   id="clipPath1986">
      <path
   d="M 0,0 H 12 V 15.492188 H 0 Z m 0,0"
   id="path5339" />
    </clipPath>
  <clipPath
   id="clipPath6578">
      <path
   d="M 1,0 H 11 V 15.976562 H 1 Z m 0,0"
   id="path1424" />
    </clipPath>
  <clipPath
   id="clipPath4606">
      <path
   d="M 1,0 H 12 V 10.671875 H 1 Z m 0,0"
   id="path6334" />
    </clipPath>
  <clipPath
   id="clipPath2078">
      <path
   d="m 36,0 h 6 v 24.742188 h -6 z m 0,0"
   id="path1846" />
    </clipPath>
    <clipPath
   id="clipPath142">
      <path
   d="m 51,0 h 6 v 24.742188 h -6 z m 0,0"
   id="path7624" />
    </clipPath>
  <clipPath
   id="clipPath525">
      <path
   d="M 1,0 H 30 V 29.886719 H 1 Z m 0,0"
   id="path7869" />
    </clipPath>
  <clipPath
   id="clipPath5584">
      <path
   d="M 1,0 H 27 V 29.886719 H 1 Z m 0,0"
   id="path8031" />
    </clipPath>
  <clipPath
   id="clipPath8327">
      <path
   d="M 2,0 H 18 V 19.132812 H 2 Z m 0,0"
   id="path5266" />
    </clipPath>
  <clipPath
   id="clipPath1664">
      <path
   d="M 0,0 H 12 V 11.015625 H 0 Z m 0,0"
   id="path1124" />
    </clipPath>
  <clipPath
   id="clipPath2844">
      <path
   d="M 2,0 H 22 V 24.742188 H 2 Z m 0,0"
   id="path4801" />
    </clipPath>
  <filter
   style="color-interpolation-filters:sRGB;"
   inkscape:label="Drop Shadow"
   id="filter2106588"
   x="-0.026891193"
   y="-0.021551041"
   width="1.0823863"
   height="1.0430713"><feFlood
     flood-opacity="0.498039"
     flood-color="rgb(0,0,0)"
     result="flood"
     id="feFlood2106578" /><feComposite
     in="flood"
     in2="SourceGraphic"
     operator="in"
     result="composite1"
     id="feComposite2106580" /><feGaussianBlur
     in="composite1"
     stdDeviation="3"
     result="blur"
     id="feGaussianBlur2106582" /><feOffset
     dx="8"
     dy="1.94289e-16"
     result="offset"
     id="feOffset2106584" /><feComposite
     in="SourceGraphic"
     in2="offset"
     operator="over"
     result="composite2"
     id="feComposite2106586" /></filter><filter
   style="color-interpolation-filters:sRGB;"
   inkscape:label="Drop Shadow"
   id="filter820"
   x="-0.096133362"
   y="-0.09664971"
   width="1.294535"
   height="1.193288"><feFlood
     flood-opacity="0.498039"
     flood-color="rgb(0,0,0)"
     result="flood"
     id="feFlood810" /><feComposite
     in="flood"
     in2="SourceGraphic"
     operator="in"
     result="composite1"
     id="feComposite812" /><feGaussianBlur
     in="composite1"
     stdDeviation="3"
     result="blur"
     id="feGaussianBlur814" /><feOffset
     dx="8"
     dy="0"
     result="offset"
     id="feOffset816" /><feComposite
     in="SourceGraphic"
     in2="offset"
     operator="over"
     result="composite2"
     id="feComposite818" /></filter><filter
   style="color-interpolation-filters:sRGB;"
   inkscape:label="Drop Shadow"
   id="filter832"
   x="-0.096133354"
   y="-0.096649715"
   width="1.294535"
   height="1.193288"><feFlood
     flood-opacity="0.498039"
     flood-color="rgb(0,0,0)"
     result="flood"
     id="feFlood822" /><feComposite
     in="flood"
     in2="SourceGraphic"
     operator="in"
     result="composite1"
     id="feComposite824" /><feGaussianBlur
     in="composite1"
     stdDeviation="3"
     result="blur"
     id="feGaussianBlur826" /><feOffset
     dx="8"
     dy="0"
     result="offset"
     id="feOffset828" /><feComposite
     in="SourceGraphic"
     in2="offset"
     operator="over"
     result="composite2"
     id="feComposite830" /></filter><filter
   style="color-interpolation-filters:sRGB;"
   inkscape:label="Drop Shadow"
   id="filter844"
   x="-0.096133354"
   y="-0.096649711"
   width="1.294535"
   height="1.193288"><feFlood
     flood-opacity="0.498039"
     flood-color="rgb(0,0,0)"
     result="flood"
     id="feFlood834" /><feComposite
     in="flood"
     in2="SourceGraphic"
     operator="in"
     result="composite1"
     id="feComposite836" /><feGaussianBlur
     in="composite1"
     stdDeviation="3"
     result="blur"
     id="feGaussianBlur838" /><feOffset
     dx="8"
     dy="0"
     result="offset"
     id="feOffset840" /><feComposite
     in="SourceGraphic"
     in2="offset"
     operator="over"
     result="composite2"
     id="feComposite842" /></filter><filter
   style="color-interpolation-filters:sRGB;"
   inkscape:label="Drop Shadow"
   id="filter856"
   x="-0.096133348"
   y="-0.096649711"
   width="1.294535"
   height="1.193288"><feFlood
     flood-opacity="0.498039"
     flood-color="rgb(0,0,0)"
     result="flood"
     id="feFlood846" /><feComposite
     in="flood"
     in2="SourceGraphic"
     operator="in"
     result="composite1"
     id="feComposite848" /><feGaussianBlur
     in="composite1"
     stdDeviation="3"
     result="blur"
     id="feGaussianBlur850" /><feOffset
     dx="8"
     dy="0"
     result="offset"
     id="feOffset852" /><feComposite
     in="SourceGraphic"
     in2="offset"
     operator="over"
     result="composite2"
     id="feComposite854" /></filter><filter
   style="color-interpolation-filters:sRGB;"
   inkscape:label="Drop Shadow"
   id="filter868"
   x="-0.096133356"
   y="-0.096649709"
   width="1.294535"
   height="1.193288"><feFlood
     flood-opacity="0.498039"
     flood-color="rgb(0,0,0)"
     result="flood"
     id="feFlood858" /><feComposite
     in="flood"
     in2="SourceGraphic"
     operator="in"
     result="composite1"
     id="feComposite860" /><feGaussianBlur
     in="composite1"
     stdDeviation="3"
     result="blur"
     id="feGaussianBlur862" /><feOffset
     dx="8"
     dy="0"
     result="offset"
     id="feOffset864" /><feComposite
     in="SourceGraphic"
     in2="offset"
     operator="over"
     result="composite2"
     id="feComposite866" /></filter><linearGradient
   inkscape:collect="always"
   xlink:href="#linearGradient1574"
   id="linearGradient1576"
   x1="103.92697"
   y1="294.47557"
   x2="405.65631"
   y2="294.47557"
   gradientUnits="userSpaceOnUse" /></defs><g
     inkscape:label="Ebene 1"
     inkscape:groupmode="layer"
     id="layer1" /><g
     inkscape:groupmode="layer"
     id="layer2"
     inkscape:label="Ebene 2"><path
       style="fill:#000000;stroke-width:0.498331"
       d="m -394.23131,-30.715623 2.98999,-1.12287 0.24916,-0.29967 0.24917,-0.29968 0.98376,-0.17207 0.98376,-0.17208 2.62875,-1.74487 2.62876,-1.74486 -0.32578,-0.52713 -0.32578,-0.52712 0.50995,0.31517 0.50996,0.31517 2.71412,-2.85441 2.71411,-2.85441 1.32809,-2.74082 1.32807,-2.74082 0.18412,-0.99666 0.18412,-0.99666 0.36819,-0.84821 0.36819,-0.84822 -0.29643,-0.47963 -0.29643,-0.47963 0.5885,-0.19617 0.5885,-0.19616 0.0277,-4.95429 0.0277,-4.954282 -0.68414,-2.740818 -0.68413,-2.740817 -1.10337,-2.516774 -1.10338,-2.516774 -2.28863,-3.009348 -2.28863,-3.009353 -2.6415,-2.034465 -2.6415,-2.034464 -3.23915,-1.488433 -3.23915,-1.488434 -2.24249,-0.623023 -2.24248,-0.623018 -4.98331,-1.29e-4 -4.98331,-1.25e-4 -4.73414,1.625041 -4.73414,1.625041 -2.351,1.724069 -2.35101,1.724064 -3.03959,3.317178 -3.03959,3.317177 -1.68283,3.504215 -1.68283,3.504216 -0.55866,2.491652 -0.55865,2.491653 -0.032,4.010841 -0.032,4.01084 0.85673,2.96579 0.85674,2.96578 1.72249,3.29011 1.7225,3.29009 2.4763,2.77835 2.4763,2.77835 3.03467,2.02647 3.03466,2.02647 0.44597,-0.27562 0.44596,-0.27562 v 0.48711 0.48711 l 3.11457,1.00559 3.11456,1.00558 0.99666,0.19532 0.99667,0.19532 4.9833,-0.11148 4.98331,-0.11149 2.98998,-1.12286 z"
       id="path2105035" /><path
       style="fill:#000000;stroke-width:0.498331"
       d="m -410.42705,-29.002473 -2.74082,-0.73484 -3.57036,-1.76238 -3.57036,-1.76237 -2.96848,-2.68631 -2.96848,-2.68632 -2.28597,-3.37987 -2.28597,-3.37987 -1.34853,-3.98665 -1.34852,-3.98664 0.0326,-5.23247 0.0326,-5.232473 1.07987,-3.239148 1.07986,-3.239149 1.9199,-3.25941 1.9199,-3.259416 3.26853,-3.26852 3.26852,-3.268525 2.87575,-1.521249 2.87574,-1.521248 3.46434,-1.060208 3.46433,-1.060209 3.51229,-0.294473 3.5123,-0.294479 3.69207,0.575303 3.69207,0.575308 4.6242,2.219399 4.6242,2.2194 3.41357,3.370015 3.41357,3.370015 1.55896,2.740818 1.55897,2.740818 1.04367,3.115084 1.04367,3.11509 0.31236,4.400632 0.31237,4.400635 -0.87314,3.94588 -0.87314,3.94588 -1.37588,2.98999 -1.37589,2.98998 -2.31664,2.671 -2.31664,2.671 -2.3389,1.93276 -2.33889,1.93275 -3.50447,1.70222 -3.50447,1.70221 -3.27099,0.79524 -3.27099,0.79524 -4.20397,-0.0328 -4.20397,-0.0328 -2.74082,-0.73485 z"
       id="path2105033" /><path
       style="fill:#000000;stroke-width:0.498331"
       d="m -326.45835,-7.7378125 2.98998,-1.4313 2.24249,-2.0750605 2.24249,-2.07506 -0.7475,0.31968 -0.7475,0.31967 0.84139,-0.69235 0.84138,-0.69236 0.15528,-0.70314 0.15528,-0.70314 0.60413,-0.65159 0.60413,-0.65159 0.52497,-1.85193 0.52497,-1.85193 0.3123,-2.8654 0.31229,-2.8654 h -0.57881 -0.57881 l 0.29903,-1.19146 0.29904,-1.19146 -0.54684,-0.33796 -0.54683,-0.33797 0.2876,-0.46535 0.2876,-0.46535 -1.36575,-2.50934 -1.36575,-2.50933 -2.19017,-2.01883 -2.19018,-2.01884 -2.7812,-1.27327 -2.78119,-1.27328 -3.32341,-0.23778 -3.3234,-0.23779 -2.71324,0.78876 -2.71324,0.78876 -2.34178,1.55113 -2.34178,1.55113 -1.77275,2.41497 -1.77275,2.41496 -1.02066,2.90541 -1.02066,2.9054 0.20683,3.98664 0.20682,3.98665 1.89023,3.23914 1.89021,3.23915 1.46519,1.55673 1.46519,1.5567305 2.60426,1.31763 2.60426,1.31764 2.21762,0.46157 2.21762,0.46158 2.74082,-0.23689 2.74081,-0.23688 z"
       id="path2105031" /><path
       style="fill:#000000;stroke-width:0.498331"
       d="m -338.92312,-5.6439625 -2.49816,-0.89676 -2.23598,-1.31792 -2.23598,-1.31791 -1.33695,-1.4148705 -1.33696,-1.41487 -1.75387,-2.92125 -1.75388,-2.92124 -0.55948,-2.695 -0.55948,-2.695 0.5191,-3.33427 0.51909,-3.33427 1.52366,-3.09497 1.52365,-3.09498 2.63349,-2.4061 2.63349,-2.40609 3.32542,-1.17275 3.32543,-1.17275 4.12026,0.18638 4.12026,0.18637 2.86672,1.33316 2.86672,1.33315 2.67763,2.53239 2.67762,2.53239 1.42265,3.1008 1.42265,3.10079 0.006,4.73415 0.006,4.73414 -1.70957,3.65627 -1.70957,3.65628 -2.52246,2.2156005 -2.52247,2.21561 -2.69664,1.28196 -2.69663,1.28196 -3.78166,0.21318 -3.78167,0.21319 -2.49816,-0.89677 z"
       id="path2105029" /><path
       style="fill:#000000;stroke-width:0.498331"
       d="m -466.48923,-12.255453 0.30798,-0.49833 h 0.24917 0.24916 l -0.30798,0.49833 -0.30799,0.49833 h -0.24916 -0.24917 z"
       id="path2105027" /><path
       style="fill:#000000;stroke-width:0.498331"
       d="m -478.07542,-5.2454825 3.36373,-1.07005 v -0.37226 -0.37226 l 1.09041,-0.0821 1.0904,-0.0821 3.26999,-2.23689 3.26999,-2.2368905 2.02717,-2.01063 2.02716,-2.01063 0.71365,-1.38261 0.71365,-1.3826 0.62292,-0.65851 0.62291,-0.65851 v -0.46274 -0.46273 l -0.0426,-0.31804 -0.0426,-0.31803 0.56235,-0.34755 0.56234,-0.34754 1.305,-3.69481 1.30501,-3.69482 0.13929,-4.9833 0.13928,-4.98331 -0.73777,-2.98998 -0.73777,-2.98998 -0.45081,-0.15678 -0.45081,-0.15678 0.27449,-0.7153 0.27448,-0.7153 h -0.55164 -0.55165 l 0.0987,-0.37375 0.0987,-0.37375 -0.38147,-1.12124 -0.38149,-1.12124 h -0.49415 -0.49416 l 0.27796,-0.44977 0.27797,-0.44975 -2.2804,-3.03361 -2.2804,-3.03361 -2.50671,-2.19281 -2.50671,-2.192801 -2.76609,-1.354423 -2.76608,-1.354422 -2.78656,-0.973394 -2.78655,-0.973394 -2.24249,-0.293178 -2.24248,-0.293183 -3.34281,0.05898 -3.34282,0.05898 -3.37088,0.781756 -3.37088,0.781761 -3.50208,1.693531 -3.50208,1.693532 -2.98355,2.415775 -2.98355,2.41578 -0.54901,1.1012 -0.54901,1.1012 -0.77249,0.87551 -0.7725,0.87551 -1.73673,3.48831 -1.73673,3.48832 -0.5611,2.64076 -0.56109,2.64076 v 4.38074 4.38073 l 0.96595,3.77686 0.96596,3.77687 1.09416,2.15823 1.09416,2.15823 1.53442,2.24249 1.53442,2.24249 2.01168,2.16523 2.01168,2.16522 2.74082,1.8628905 2.74082,1.86288 2.75553,1.33367 2.75552,1.33366 2.12169,0.17988 2.1217,0.17988 0.35525,0.36798 0.35525,0.36798 4.73414,-0.25005 4.73414,-0.25005 3.36373,-1.07005 z"
       id="path2105025" /><path
       style="fill:#000000;stroke-width:0.498331"
       d="m -493.64825,-3.3041225 -2.24249,-0.46641 -1.49499,-0.58459 -1.49499,-0.58459 -4.0893,-2.43225 -4.0893,-2.43225 -3.16484,-3.4676305 -3.16484,-3.46763 -2.03544,-3.86254 -2.03544,-3.86254 -0.83189,-3.39174 -0.8319,-3.39174 0.0183,-4.83071 0.0183,-4.83072 0.47415,-2.49165 0.47416,-2.49165 1.03137,-2.40505 1.03137,-2.40504 1.82401,-2.748 1.82402,-2.748 2.62115,-2.57963 2.62115,-2.579638 3.15581,-1.873379 3.1558,-1.873379 3.19064,-0.99075 3.19065,-0.990756 3.51475,-0.545333 3.51476,-0.545333 3.39953,0.334982 3.39953,0.334983 3.10083,1.007241 3.10083,1.007245 3.18037,1.553685 3.18038,1.55369 3.92836,3.695522 3.92836,3.69552 2.23203,4.55071 2.23203,4.55071 0.75042,2.9701 0.75043,2.9701 v 4.52474 4.52474 l -0.7667,2.9701 -0.76671,2.9701 -1.50452,3.23193 -1.50452,3.23193 -2.04657,2.71067 -2.04658,2.71066 -1.71524,1.53236 -1.71525,1.53237 -2.64477,1.8060605 -2.64478,1.80606 -4.40335,1.62601 -4.40336,1.626 -5.48163,0.15555 -5.48164,0.15556 -2.24249,-0.4664 z"
       id="path2105023" /><path
       style="fill:#000000;stroke-width:0.498331"
       d="m -538.74716,-9.2654725 0.30798,-0.49833 h 0.24917 0.24916 l -0.30798,0.49833 -0.30798,0.49833 h -0.24917 -0.24916 z"
       id="path2105021" /><path
       style="fill:#000000;stroke-width:0.498331"
       d="m -548.66792,-1.8542225 0.54418,-0.42598 0.3279,0.3279 0.32789,0.3279 v -0.6108 -0.61079 l 0.49833,0.30798 0.49834,0.30799 v -0.52774 -0.52774 l 0.37374,0.059 0.37375,0.059 0.64671,-0.059 0.64671,-0.059 1.30354,-1.37041 1.30354,-1.37041 -0.41542,0.7475 -0.41542,0.74749 2.48822,-2.49165 2.48821,-2.49165 1.13172,-2.8382905 1.13171,-2.83829 0.0777,-3.51551 0.0777,-3.51552 -0.34042,9e-5 -0.34041,9e-5 0.0438,-1.54247 0.0439,-1.54245 -0.45093,-0.32628 -0.45093,-0.32628 -0.16921,-0.99666 -0.16922,-0.99666 -1.31666,-1.74416 -1.31667,-1.74416 -1.25494,-1.19128 -1.25494,-1.19129 -3.23914,-1.54953 -3.23915,-1.54953 -3.98665,0.0582 -3.98664,0.0583 -2.92316,1.12041 -2.92315,1.12041 -2.69769,2.67622 -2.69769,2.67622 -0.95982,2.23917 -0.95982,2.23916 -0.44409,3.31454 -0.44408,3.31453 0.40652,2.17603 0.40653,2.17602 1.32985,2.81108 1.32985,2.8110805 1.94282,1.94282 1.94282,1.94282 0.42794,-0.26448 0.42793,-0.26448 0.26558,0.69209 0.26558,0.69209 3.15037,1.0222 3.15037,1.02219 1.24583,0.20046 1.24582,0.20045999 1.99333,-0.24147999 1.99332,-0.24148 z"
       id="path2105019" /><path
       style="fill:#000000;stroke-width:0.498331"
       d="m -556.58815,-0.34312251 -1.89442,-0.44582 -2.60913,-1.23431999 -2.60913,-1.23432 -2.06528,-1.7678 -2.06527,-1.7678 -1.49688,-2.99551 -1.49688,-2.9955205 -0.58683,-2.82675 -0.58682,-2.82674 0.5696,-3.51176 0.56961,-3.51175 1.25292,-2.58638 1.25292,-2.58638 2.67308,-2.44305 2.67308,-2.44304 1.75306,-0.83188 1.75306,-0.83188 2.59646,-0.49241 2.59646,-0.49241 h 2.19019 2.19019 l 3.09885,1.0385 3.09884,1.0385 2.53556,1.90671 2.53556,1.90672 1.51776,2.41184 1.51777,2.41184 0.86586,2.67771 0.86588,2.67772 -0.23018,3.80058 -0.23018,3.80058 -1.17469,2.74082 -1.17469,2.7408205 -1.02267,1.41837 -1.02267,1.41838 -2.904,2.18642 -2.904,2.18642 -3.25304,1.00475999 -3.25304,1.00476 -1.81625,-0.0501 -1.81625,-0.05 z"
       id="path2105017" /><path
       style="fill:#000000;stroke-width:0.498331"
       d="m -577.33364,55.212757 2.70668,-0.80307 2.43324,-1.23218 2.43324,-1.23218 2.41741,-2.2612 2.41741,-2.26121 -0.27813,-0.45003 -0.27814,-0.45003 0.65996,0.13693 0.65995,0.13693 1.10916,-2.24249 1.10915,-2.24249 0.13668,-1.24582 0.13666,-1.24583 0.44037,-0.31974 0.44036,-0.31975 0.24443,-4.67305 0.24444,-4.67306 -1.37455,-3.47882 -1.37455,-3.47882 -1.79162,-2.24249 -1.79161,-2.24248 -0.50862,-0.49833 -0.50861,-0.49834 -1.99332,-1.34713 -1.99333,-1.34713 -2.49165,-1.13059 -2.49165,-1.13059 -5.79992,-0.009 -5.79992,-0.009 -4.31755,2.18919 -4.31754,2.1892 -1.84247,2.15868 -1.84247,2.15868 -1.17148,2.37478 -1.17149,2.37479 -0.52349,0.98606 -0.52349,0.98605 -0.2367,4.5253 -0.23671,4.52529 0.84871,2.91946 0.84871,2.91945 1.65195,2.53247 1.65194,2.53246 1.54815,1.64947 1.54814,1.64947 0.46468,-0.28719 0.46468,-0.28718 0.3606,0.58345 0.3606,0.58346 -0.69991,-0.36312 -0.69991,-0.36312 0.99666,0.82835 0.99666,0.82834 2.66347,1.1954 2.66348,1.1954 1.71305,0.18878 1.71306,0.18877 0.31608,0.31609 0.31608,0.31609 h 2.31816 2.31815 l 2.70668,-0.80307 z"
       id="path2105015" /><path
       style="fill:#000000;stroke-width:0.498331"
       d="m -587.98654,56.264607 -2.39632,-0.65876 -2.68363,-1.31298 -2.68362,-1.31298 -2.18416,-2.09492 -2.18417,-2.09493 -1.63336,-2.40801 -1.63338,-2.408 -0.89883,-2.5753 -0.89883,-2.5753 -0.3322,-2.74082 -0.33218,-2.74082 0.78084,-3.72251 0.78084,-3.72251 1.30383,-2.57696 1.30381,-2.57695 2.21939,-2.5371 2.21939,-2.53709 4.28119,-2.12141 4.28117,-2.12141 5.28075,-0.17904 5.28074,-0.17905 3.19782,1.07917 3.19783,1.07916 2.28381,1.5697 2.28381,1.56969 1.41017,1.51153 1.41016,1.51153 1.50734,2.15884 1.50734,2.15884 1.03478,2.82447 1.03478,2.82446 -0.0382,3.98664 -0.0382,3.98665 -1.31324,4.09126 -1.31323,4.09126 -1.35459,1.63954 -1.35458,1.63954 -0.49878,0.65194 -0.49878,0.65196 -2.90984,2.20581 -2.90984,2.20581 -3.96793,1.25346 -3.96793,1.25347 -3.08884,-0.0445 -3.08884,-0.0445 -2.39631,-0.65877 z"
       id="path2105013" /><path
       style="fill:#000000;stroke-width:0.498331"
       d="m -297.68091,57.936617 2.36594,-0.52466 -0.32503,-0.52589 -0.32502,-0.5259 0.56503,0.34921 0.56503,0.3492 1.13154,-0.587 1.13154,-0.58699 2.36707,-1.5133 2.36707,-1.51329 v -0.19465 -0.19465 l -0.62291,0.35564 -0.62291,0.35565 1.44666,-1.55434 1.44667,-1.55434 0.49907,0.30844 0.49907,0.30844 -0.35775,-0.57885 -0.35774,-0.57885 0.77621,-0.29786 0.77622,-0.29786 -0.24344,-0.3939 -0.24344,-0.39389 0.77622,-0.29786 0.77622,-0.29787 -0.28386,-0.45929 -0.28385,-0.45928 0.50972,-0.16991 0.50971,-0.16991 1.30241,-3.73471 1.3024,-3.73472 -0.003,-3.98665 -0.003,-3.98664 -1.08651,-3.18262 -1.08652,-3.18263 -1.68842,-2.63942 -1.68841,-2.63942 -2.64375,-2.10209 -2.64376,-2.10209 -2.49165,-1.14808 -2.49165,-1.14808 -3.6129,-0.55903 -3.61289,-0.55903 -3.6129,0.5409 -3.6129,0.54089 -3.98664,1.95192 -3.98665,1.95192 -2.56233,2.57641 -2.56234,2.57641 -0.98758,2.07037 -0.98758,2.07036 -0.59197,1.46115 -0.59197,1.46116 -0.28442,4.03026 -0.28442,4.03025 0.54252,2.52972 0.54253,2.52972 1.09609,2.92956 1.09609,2.92955 2.53852,2.68794 2.53853,2.68794 2.06118,1.42079 2.06119,1.42079 2.64194,1.04135 2.64194,1.04136 2.77184,0.4184 2.77183,0.4184 1.99332,-0.22195 1.99332,-0.22195 2.36593,-0.52465 z"
       id="path2105011" /><path
       style="fill:#000000;stroke-width:0.498331"
       d="m -306.7743,59.691537 -1.24582,-0.23763 -3.21949,-1.01203 -3.21949,-1.01202 -2.04135,-1.19631 -2.04135,-1.19632 -2.88603,-2.86309 -2.88602,-2.86311 -1.13748,-2.25382 -1.13748,-2.25382 -0.87466,-3.61467 -0.87465,-3.61467 0.27118,-4.60778 0.27119,-4.60778 0.85514,-2.41115 0.85515,-2.41115 2.44058,-3.04102 2.44058,-3.04102 2.21,-1.57125 2.21,-1.57125 2.93898,-1.31894 2.93899,-1.31894 3.81017,-0.59235 3.81018,-0.59236 3.86206,0.58511 3.86206,0.58511 3.59807,1.80747 3.59806,1.80748 2.52737,2.67232 2.52736,2.67231 1.71821,3.62065 1.7182,3.62065 0.5527,2.98998 0.55268,2.98998 -0.3094,2.74082 -0.30941,2.74082 -0.69656,2.3134 -0.69656,2.31341 -1.30837,2.76568 -1.30838,2.76569 -2.20661,2.45428 -2.2066,2.45427 -2.90302,1.72931 -2.90302,1.72933 -2.46735,0.84317 -2.46735,0.84317 -3.48832,0.19785 -3.48831,0.19784 z"
       id="path2105009" /><path
       style="fill:#000000;stroke-width:0.498331"
       d="m -362.99541,62.504307 3.76626,-0.98648 2.33947,-1.00281 2.33946,-1.00281 -0.36097,-0.62694 -0.36096,-0.62695 0.39459,0.35622 0.39458,0.35621 1.05572,-0.55827 1.05572,-0.55827 2.11073,-1.72083 2.11072,-1.72084 1.03887,-1.68092 1.03887,-1.68092 -0.36119,-0.58441 -0.36119,-0.58442 0.58256,0.36004 0.58255,0.36004 1.19901,-2.58794 1.19901,-2.58793 -0.26289,-0.68509 -0.2629,-0.68509 h 0.58523 0.58523 l -0.30302,-0.95472 -0.30301,-0.95473 0.47401,-0.29296 0.47402,-0.29296 0.31313,-4.10937 0.31312,-4.10937 -0.47267,-2.49165 -0.47267,-2.49165 -0.24684,-1.02391 -0.24685,-1.0239 -0.75845,-1.81524 -0.75846,-1.81524 -2.00438,-2.95159 -2.00439,-2.95158 -2.30524,-2.02916 -2.30525,-2.02916 -3.07714,-1.50736 -3.07715,-1.5073595 -2.92528,-0.81671 -2.92528,-0.81672 -4.05135,-0.0135 -4.05134,-0.0135 -3.23915,0.82708 -3.23915,0.82707 -3.55609,1.6792795 -3.55609,1.67927 -3.305,3.24056 -3.30499,3.24057 -1.94496,4.20986 -1.94497,4.20988 -0.53765,2.9084 -0.53765,2.90841 v 2.54459 2.5446 l 0.76414,2.93373 0.76414,2.93372 1.44562,3.02902 1.44561,3.02901 3.57608,3.86714 3.57608,3.86715 3.59099,1.7272 3.59099,1.72719 2.95686,0.7152 2.95686,0.7152 3.51904,0.0415 3.51904,0.0415 3.76626,-0.98648 z"
       id="path2105007" /><path
       style="fill:#000000;stroke-width:0.498331"
       d="m -377.53723,63.719667 -2.74082,-0.7609 -3.14552,-1.46645 -3.14551,-1.46645 -3.28182,-3.12626 -3.28181,-3.12627 -1.92504,-2.9509 -1.92504,-2.95091 -1.24049,-3.92686 -1.2405,-3.92686 v -3.68723 -3.68723 l 0.55083,-2.64076 0.55083,-2.64076 1.92545,-4.14741 1.92546,-4.14741 3.38509,-3.3851 3.3851,-3.38509 3.00155,-1.51518 3.00156,-1.5151795 3.71991,-1.15181 3.71992,-1.15182 5.00895,0.0297 5.00896,0.0297 3.46266,1.05926 3.46266,1.05926 3.17996,1.8847295 3.17995,1.88473 2.95814,3.22324 2.95814,3.22325 1.67289,3.50421 1.67288,3.50422 0.53606,2.95692 0.53606,2.95693 v 2.91947 2.91947 l -0.77746,3.84105 -0.77745,3.84105 -1.38972,2.98998 -1.38971,2.98999 -2.00273,2.51819 -2.00272,2.51818 -3.44272,2.35231 -3.44272,2.3523 -3.7244,1.3 -3.72441,1.29999 -5.7308,0.17979 -5.7308,0.17978 -2.74082,-0.7609 z"
       id="path2105005" /><path
       style="fill:#000000;stroke-width:0.498331"
       d="m -504.86068,72.062677 3.48831,-0.84777 3.48831,-1.79968 3.48832,-1.79968 -0.13693,-0.60443 -0.13693,-0.60443 0.56719,0.35054 0.56719,0.35055 3.43762,-3.57666 3.43763,-3.57666 1.71958,-3.41462 1.71957,-3.41462 0.22501,-1.17093 0.225,-1.17093 0.48257,-2.24249 0.48257,-2.24248 -0.14625,-4.98331 -0.14626,-4.9833 -0.0969,-1.12125 -0.0969,-1.12124 -0.32103,-10e-4 -0.32103,-10e-4 -0.10611,-1.51415 -0.1061,-1.51416 -1.62594,-3.05058 -1.62594,-3.05058 -3.00209,-3.04668 -3.0021,-3.04669 -2.98998,-1.81506 -2.98999,-1.81506 -2.63133,-1.03615 -2.63134,-1.03615 -3.84696,-0.42798 -3.84696,-0.42799 -3.23915,0.39816 -3.23915,0.39815 -3.30059,1.0257 -3.30059,1.02568 -3.87632,2.53049 -3.87632,2.53049 -2.17271,2.32771 -2.17272,2.32772 -1.97478,3.78933 -1.97479,3.78933 -0.7601,2.91825 -0.76011,2.91825 0.007,4.25569 0.007,4.25569 0.72088,3.05682 0.72087,3.05681 1.18271,2.67399 1.18272,2.67398 2.49656,2.98999 2.49655,2.98998 3.00242,2.34905 3.00242,2.34904 0.31419,-0.3142 0.3142,-0.31419 v 0.52351 0.5235 l 2.61623,1.01642 2.61624,1.01642 2.49165,0.76355 2.49165,0.76353 1.74416,0.19648 1.74416,0.19648 2.24248,-0.19871 2.24249,-0.19871 3.48832,-0.84777 z"
       id="path2105003" /><path
       style="fill:#000000;stroke-width:0.498331"
       d="m -515.32563,74.129017 -1.49499,-0.23552 -3.48831,-1.00547 -3.48832,-1.00548 -3.46081,-2.03332 -3.46081,-2.03333 -3.77992,-3.78212 -3.77993,-3.78214 -1.36635,-2.5791 -1.36636,-2.57909 -0.98577,-3.85434 -0.98577,-3.85433 0.006,-5.02817 0.006,-5.02817 0.71212,-2.67556 0.71213,-2.67555 1.31107,-2.67973 1.31106,-2.67972 2.19832,-2.92441 2.19831,-2.92441 3.62129,-2.64297 3.62128,-2.64298 2.49165,-1.14076 2.49166,-1.14077 3.23914,-0.86383 3.23915,-0.86384 4.98331,10e-4 4.9833,10e-4 3.48832,1.07449 3.48831,1.0745 3.23915,1.8792 3.23915,1.8792 3.60524,3.64145 3.60525,3.64145 1.74144,3.62062 1.74145,3.62062 0.82268,4.86941 0.82269,4.8694 -0.80888,5.31562 -0.80888,5.31562 -2.06796,4.23581 -2.06796,4.23581 -4.08586,4.05462 -4.08586,4.05462 -3.69165,1.76448 -3.69165,1.76449 -3.14538,0.8054 -3.14537,0.80541 -3.08376,0.18276 -3.08375,0.18277 -1.495,-0.23551 z"
       id="path2105001" /><path
       style="fill:#000000;stroke-width:0.498331"
       d="m -601.69397,124.03391 3.64547,-0.75153 3.49207,-1.70762 3.49206,-1.70763 3.11827,-2.82186 3.11825,-2.82187 1.27701,-2.17903 1.277,-2.17904 -0.36478,-0.59023 -0.36479,-0.59023 0.66002,0.40792 0.66001,0.40791 -0.31209,-0.81329 -0.31208,-0.81328 0.51054,-0.31554 0.51054,-0.31553 -0.2442,-0.63636 -0.2442,-0.63637 0.40618,-0.43447 0.40617,-0.43447 0.55155,-2.64076 0.55154,-2.640773 v -2.64827 -2.64827 l -0.50865,-2.6821 -0.50865,-2.68209 -1.48114,-3.16513 -1.48115,-3.16514 -2.87903,-2.81699 -2.87904,-2.81699 -3.26504,-1.60719 -3.26504,-1.60719 -3.20315,-0.82243 -3.20315,-0.82242 -3.73748,0.29085 -3.73748,0.29085 -2.76479,0.95607 -2.76479,0.95606 -2.20845,1.12667 -2.20846,1.12667 -3.17486,3.04602 -3.17485,3.04601 -1.23129,2.09801 -1.23129,2.09801 -0.99554,2.63613 -0.99555,2.63613 -0.28425,4.10184 -0.28424,4.101843 0.86862,3.62228 0.86861,3.62228 1.54206,2.92001 1.54207,2.92 3.01603,3.07667 3.01603,3.07666 2.98998,1.55115 2.98999,1.55115 2.74082,0.54514 2.74081,0.54515 0.99666,0.19627 0.99667,0.19626 0.83949,0.0578 0.83951,0.0578 z"
       id="path2104999" /><path
       style="fill:#000000;stroke-width:0.498331"
       d="m -612.00175,124.84913 -3.48831,-0.85961 -2.7315,-1.47078 -2.73149,-1.47077 -3.26626,-3.23915 -3.26627,-3.23915 -1.58624,-3.03057 -1.58624,-3.03058 -0.76304,-2.92951 -0.76304,-2.92951 v -4.327783 -4.32778 l 1.05411,-3.41622 1.05411,-3.41623 1.7846,-2.69072 1.7846,-2.69071 2.76751,-2.70838 2.76751,-2.70838 3.98664,-1.90638 3.98665,-1.90639 2.64076,-0.54323 2.64077,-0.54322 h 3.10992 3.10992 l 2.9701,0.7667 2.9701,0.76671 3.15208,1.46716 3.15208,1.46715 3.20038,3.20038 3.20038,3.20038 1.48005,3.12957 1.48006,3.12958 0.57525,2.77099 0.57526,2.77098 -0.2682,4.73636 -0.2682,4.736363 -1.29788,4.08356 -1.29788,4.08356 -2.3058,2.89307 -2.3058,2.89306 -2.31526,1.82412 -2.31527,1.82411 -2.96812,1.48816 -2.96812,1.48816 -3.58669,0.79896 -3.58669,0.79895 -2.14411,-0.0367 -2.14412,-0.0367 -3.48831,-0.85961 z"
       id="path2104997" /><path
       style="fill:#000000;stroke-width:0.498331"
       d="m -278.36787,128.3278 3.23756,-0.94263 2.24249,-0.98956 2.24249,-0.98956 2.61839,-2.09857 2.61838,-2.09856 -0.32831,-0.53122 -0.32832,-0.53122 0.50289,0.3108 0.50289,0.3108 1.02186,-1.10588 1.02185,-1.10589 1.75592,-3.23914 1.75591,-3.23915 0.74755,-2.98999 0.74754,-2.98998 0.3203,-2.74082 0.32029,-2.74082 -0.54903,-3.488313 -0.54902,-3.48831 -1.91607,-4.02935 -1.91607,-4.02936 -2.84034,-2.77313 -2.84033,-2.77312 -2.9295,-1.56141 -2.9295,-1.5614 -2.39028,-0.72458 -2.39029,-0.72457 -3.73748,-0.30244 -3.73748,-0.30243 -3.60786,0.76683 -3.60786,0.76684 -3.1196,1.49013 -3.1196,1.49015 -2.7732,1.98743 -2.7732,1.98743 -2.26567,3.40233 -2.26567,3.40233 -1.12129,2.98999 -1.12127,2.98998 -0.25496,4.235813 -0.25496,4.23581 0.81725,3.23915 0.81725,3.23915 1.48954,3.05704 1.48954,3.05704 3.20145,3.45787 3.20145,3.45786 3.1175,1.66161 3.1175,1.66161 2.77268,0.87256 2.77267,0.87256 3.98823,0.0454 3.98823,0.0455 3.23756,-0.94263 z"
       id="path2104995" /><path
       style="fill:#000000;stroke-width:0.498331"
       d="m -292.90144,129.31122 -2.82122,-0.90226 -3.23339,-1.80823 -3.2334,-1.80821 -3.20166,-3.45809 -3.20165,-3.45808 -1.56996,-2.94555 -1.56997,-2.94554 -0.75258,-3.19277 -0.75259,-3.19277 -0.007,-4.0855 -0.007,-4.085513 1.22839,-3.88778 1.22839,-3.88779 1.52989,-2.41191 1.52989,-2.41191 2.43723,-2.33679 2.43722,-2.33679 3.66117,-2.09476 3.66117,-2.09476 3.93046,-1.00525 3.93048,-1.00524 3.28401,0.009 3.28402,0.009 3.36735,0.71358 3.36735,0.71357 3.45289,1.81444 3.45288,1.81443 3.01216,2.9383 3.01217,2.93829 1.79386,3.56213 1.79385,3.56213 0.69877,3.29659 0.69877,3.2966 0.009,2.583653 0.009,2.58366 -0.71983,3.39631 -0.71983,3.39631 -0.74923,2.10707 -0.74923,2.10706 -1.95555,2.87624 -1.95555,2.87624 -2.43806,2.27733 -2.43806,2.27732 -2.2352,1.303 -2.2352,1.303 -3.82534,1.2784 -3.82534,1.2784 -4.89545,-0.0268 -4.89544,-0.0268 -2.82122,-0.90227 z"
       id="path2104993" /><path
       style="fill:#000000;stroke-width:0.498331"
       d="m -579.54202,202.35802 4.05489,-1.17922 3.41292,-1.90861 3.41292,-1.90861 1.70316,-1.6541 1.70317,-1.65409 h 0.37567 0.37568 l 2.73545,-4.11123 2.73545,-4.11122 0.39625,-1.24583 0.39625,-1.24583 -0.12683,-0.87207 -0.12683,-0.87208 h 0.42288 0.42286 l 0.0902,-0.87208 0.0902,-0.87208 0.16476,-1.00542 0.16476,-1.00542 0.35286,-0.57095 0.35286,-0.57093 0.31323,-3.70545 0.31322,-3.70545 -0.87381,-3.93731 -0.87382,-3.9373 -1.7624,-3.66852 -1.7624,-3.66853 -2.69268,-2.90842 -2.69269,-2.90842 -3.0849,-1.93034 -3.0849,-1.93033 -2.24249,-1.06422 -2.24248,-1.06423 -2.9701,-0.76885 -2.9701,-0.76886 h -4.08727 -4.08728 l -3.7276,0.71321 -3.72761,0.71321 -3.16828,1.59272 -3.16827,1.59271 -2.77801,1.94079 -2.778,1.94078 -1.45781,1.99873 -1.4578,1.99874 -0.9424,1.10493 -0.9424,1.10493 -1.61765,3.48832 -1.61765,3.48831 -0.57884,2.74082 -0.57886,2.74082 0.004,4.27934 0.004,4.27933 0.54292,2.44813 0.54294,2.44812 2.00322,4.15251 2.00322,4.15251 3.74587,3.92076 3.74587,3.92076 2.43348,1.56156 2.43347,1.56156 2.6318,1.01958 2.6318,1.01958 1.24582,0.21284 1.24583,0.21284 1.98871,0.25752 1.9887,0.25752 0.25378,0.26604 0.25378,0.26605 3.23915,-0.29518 3.23915,-0.29518 4.05489,-1.17921 z"
       id="path2104991" /><path
       style="fill:#000000;stroke-width:0.498331"
       d="m -593.43534,204.50154 -2.36349,-0.39789 -3.2693,-1.08795 -3.26931,-1.08796 -3.58633,-2.42849 -3.58633,-2.42848 -2.49165,-2.80075 -2.49165,-2.80074 -1.86348,-3.02538 -1.86348,-3.02539 -0.99915,-2.67049 -0.99916,-2.67049 -0.55112,-3.55203 -0.55111,-3.55203 0.33814,-3.28871 0.33815,-3.28871 0.52745,-2.24249 0.52746,-2.24249 1.60069,-3.48831 1.6007,-3.48832 2.26652,-2.98998 2.26651,-2.98998 2.06839,-1.66212 2.06838,-1.66212 4.16896,-2.21776 4.16896,-2.21776 3.65603,-0.77541 3.65603,-0.77542 5.00936,3.4e-4 5.00937,3.3e-4 3.96058,1.31893 3.96059,1.31892 3.67853,2.09021 3.67853,2.0902 3.42523,3.66611 3.42523,3.66612 1.74648,3.68035 1.74648,3.68035 0.73525,3.11848 0.73527,3.11848 0.007,3.16087 0.007,3.16086 -0.99087,4.86229 -0.99087,4.86228 -0.80141,1.91804 -0.80141,1.91804 -1.64152,2.5661 -1.64151,2.5661 -2.73099,2.69179 -2.73099,2.69179 -2.79082,1.6717 -2.79082,1.67171 -3.03627,1.2264 -3.03628,1.22641 -3.33178,0.70614 -3.33179,0.70613 -2.74082,-0.05 -2.74082,-0.05 -2.36347,-0.39789 z"
       id="path2104989" /><path
       style="fill:#000000;stroke-width:0.498331"
       d="m -297.41266,205.72726 2.84746,-0.7205 4.0368,-1.97563 4.0368,-1.97563 3.56311,-3.29889 3.5631,-3.29888 -0.27894,-0.45134 -0.27894,-0.45133 h 0.52774 0.52774 v -0.56577 -0.56577 l 1.27388,-1.18059 1.27387,-1.18058 -0.30662,-0.49614 -0.30662,-0.49613 h 0.42025 0.42025 l 0.83516,-2.25338 0.83517,-2.25339 -0.28267,-0.73659 -0.28265,-0.7366 h 0.60496 0.60496 l -0.27448,-0.7153 -0.27449,-0.7153 0.52687,-0.17563 0.52687,-0.17562 0.26079,-4.57382 0.26079,-4.57383 -0.60836,-3.13145 -0.60836,-3.13146 -1.41778,-3.56228 -1.41778,-3.56228 -1.83953,-2.41768 -1.83954,-2.41769 -2.5562,-2.19902 -2.5562,-2.19901 -3.12292,-1.42263 -3.12291,-1.42263 -2.10956,-0.7022 -2.10955,-0.70221 -3.14403,-0.6055 -3.14403,-0.60551 -3.58343,0.30554 -3.58343,0.30554 -3.98665,1.00939 -3.98664,1.00938 -3.71987,1.87028 -3.71986,1.87027 -3.3032,3.23915 -3.30319,3.23915 -1.82877,3.73747 -1.82877,3.73748 -0.73238,3.48832 -0.73238,3.48831 -0.009,3.53318 -0.009,3.53318 0.98799,3.86302 0.98799,3.86302 1.52572,3.09916 1.5257,3.09915 2.09586,2.54416 2.09585,2.54415 3.23012,2.57491 3.2301,2.57491 1.70098,0.71071 1.70097,0.71071 2.2947,0.78959 2.29472,0.78958 2.98998,0.68725 2.98998,0.68725 3.38167,-0.26775 3.38167,-0.26776 2.84746,-0.72051 z"
       id="path2104987" /><path
       style="fill:#000000;stroke-width:0.498331"
       d="m -310.51178,207.26643 -2.98998,-0.66099 -2.49165,-0.853 -2.49165,-0.85301 -2.33107,-1.17736 -2.33108,-1.17737 -4.54539,-4.32553 -4.54539,-4.32553 -1.92393,-4.03135 -1.92394,-4.03135 -0.79246,-3.58669 -0.79247,-3.58669 v -4.1823 -4.1823 l 0.96271,-3.76414 0.9627,-3.76413 1.59347,-3.16763 1.59347,-3.16763 3.54837,-3.49923 3.54838,-3.49924 4.23581,-2.06158 4.23581,-2.06159 3.23915,-0.81978 3.23914,-0.81977 4.73414,-0.27945 4.73414,-0.27944 4.48498,1.07286 4.48497,1.07285 4.13179,1.99849 4.13179,1.99848 3.3744,3.43518 3.37439,3.43517 1.51912,3.14351 1.51912,3.14351 0.80072,2.49165 0.80072,2.49166 0.44921,3.73748 0.44921,3.73747 -0.37411,2.74668 -0.37411,2.74668 -0.87606,3.23329 -0.87605,3.23329 -1.39694,3.00132 -1.39694,3.00132 -2.39565,2.7561 -2.39566,2.75611 -2.24249,1.87127 -2.24249,1.87127 -4.58434,2.25049 -4.58435,2.25049 -3.88727,0.69295 -3.88728,0.69295 -2.24248,-0.0222 -2.24249,-0.0222 -2.98999,-0.66098 z"
       id="path2104985" /><path
       style="fill:#000000;stroke-width:0.498331"
       d="m -402.45376,325.82534 4.23581,-1.3195 0.39057,-0.2339 0.39057,-0.23389 -2.66128,-2.8745 -2.66127,-2.87449 -2.57733,-3.43942 -2.57732,-3.43941 -2.5052,-4.5198 -2.50521,-4.51981 -1.74129,-4.31835 -1.7413,-4.31835 v -0.75471 -0.7547 l -0.37375,0.0202 -0.37375,0.0202 -1.56566,1.35016 -1.56564,1.35015 0.97783,3.23915 0.97783,3.23915 1.65541,5.24469 1.65542,5.24468 2.98898,6.71525 2.98899,6.71525 0.344,1.14207 0.344,1.14206 0.83189,-0.25139 0.83189,-0.25139 4.23581,-1.3195 z"
       id="path2104983" /><path
       style="fill:#000000;stroke-width:0.498331"
       d="m -183.33934,177.13502 0.0561,-7.84874 -1.14746,3e-5 -1.14745,3e-5 -3.58669,-0.78298 -3.58668,-0.78296 -3.1181,-1.00299 -3.11809,-1.00299 -3.60937,-1.75211 -3.60937,-1.75211 -3.23915,-2.16217 -3.23915,-2.16217 -4.07178,-4.14179 -4.07177,-4.14179 -3.50172,-5.3163 -3.50171,-5.3163 -1.98061,-3.93925 -1.98061,-3.93924 -2.06704,-6.1927 -2.06703,-6.1927 -0.94403,-3.98665 -0.94404,-3.98664 -0.7852,-4.48498 -0.7852,-4.48497 -0.78432,-5.232473 -0.78433,-5.23247 -0.229,-23.91987 -0.22901,-23.91986 4.39709,-3.30565 4.39709,-3.30566 3.98665,-2.4009 3.98664,-2.40089 4.77011,-2.10241 4.7701,-2.10241 4.69818,-1.27948 4.69817,-1.27948 4.86964,-0.73058 4.86964,-0.73059 5.75728,-0.0797 5.75728,-0.0797 0.23864,-0.62188 0.23863,-0.62187 -0.81368,-3.43265 -0.81369,-3.43265 -1.14907,-6.1301701 -1.14906,-6.13017 -0.18494,-0.18494 -0.18495,-0.18494 -2.98705,0.68762 -2.98707,0.68763 -7.97328,1.04122 -7.97329,1.04122 -6.70834,1.74795 -6.70834,1.74795 -4.00577,1.7588301 -4.00577,1.75882 -4.59235,2.36536 -4.59235,2.36536 -0.4485,-0.28921 -0.4485,-0.28921 0.12827,-20.8345001 0.12827,-20.8344999 0.29836,-0.29835 0.29835,-0.29836 5.11256,-1.92495 5.11255,-1.92495 3.98665,-2.29826 3.98664,-2.29825 3.48832,-2.50103 3.48831,-2.50103 3.48831,-3.10193 3.48832,-3.10192 3.30451,-3.42579 3.30451,-3.4258 2.93877,-3.48831 2.93877,-3.48831 1.96033,-2.740823 1.96034,-2.74082 1.62671,-1.99332 1.62671,-1.99332 3.25085,-4.39919 3.25085,-4.39919 v -0.1801 -0.18009 l -4.85872,-3.22719 -4.85872,-3.22719 -2.73729,-2.28472 -2.73728,-2.28472 -0.50187,0.0202 -0.50186,0.0202 -3.81486,5.83522 -3.81486,5.83521 -4.21203,4.98331 -4.21204,4.9833 -3.7146,3.75673 -3.71462,3.756723 -5.23399,4.05315 -5.23399,4.05315 -4.70188,2.90443 -4.70189,2.90444 -5.48163,2.54707 -5.48164,2.54707 -2.61478,1.15013 -2.61479,1.15013 -0.3277,-0.3277 -0.32769,-0.3277 0.0924,-2.82622 0.0924,-2.82623 -0.79403,-4.28095 -0.79404,-4.28096 -1.20717,-4.79533 -1.20718,-4.795333 -1.80148,-5.42044 -1.80148,-5.42045 -2.91437,-6.41612 -2.91437,-6.41612 -4.88439,-8.96146 -4.8844,-8.961464 -7.72412,0.26081 -7.72413,0.26081 -0.99666,0.2533 -0.99666,0.25331 -0.14946,0.0381 -0.14946,0.0381 4.27378,8.271364 4.27379,8.27136 3.66787,9.29479 3.66786,9.29479 1.02364,3.0312 1.02364,3.03121 1.52175,7.317533 1.52175,7.31754 0.56402,6.09617 0.56403,6.09617 -0.30661,5.97996 -0.30659,5.97997 -0.74545,4.88974 -0.74545,4.88974 -1.30093,5.8004499 -1.30094,5.80043998 -1.4649,4.48278002 -1.4649,4.48277 -1.79481,4.5111001 -1.79481,4.51109 -0.88549,0.93979 -0.88549,0.93979 -3.40676,-2.87513 -3.40676,-2.87515 -5.23247,-4.7921201 -5.23247,-4.79212 -6.32302,-6.72746 -6.32302,-6.72746 -2.64693,-3.2945299 -2.64693,-3.29452 -5.2594,-6.92126 -5.2594,-6.92124 -2.29552,-3.23915 -2.29552,-3.23915 -5.11122,-5.97997 -5.11121,-5.97996 -5.6338,-6.30416 -5.6338,-6.304163 -5.33287,-4.90828 -5.33288,-4.90828 -4.02454,-3.75588 -4.02453,-3.75588 -4.23581,-3.74497 -4.23581,-3.74497 -4.33069,-3.587 -4.3307,-3.58701 h -0.27046 -0.27047 l -1.20954,2.38692 -1.20954,2.38691 -2.08932,4.96346 -2.08932,4.96346 -1.44367,4.20471 -1.44368,4.20471 v 0.18509 0.1851 l 0.55711,-0.34431 0.5571,-0.34431 1.75166,-0.39507 1.75165,-0.39506 1.16654,0.44351 1.16653,0.44352 6.6159,5.42317 6.61589,5.423173 5.48164,5.1044 5.48164,5.1044 3.62129,3.81672 3.6213,3.81671 3.42599,3.98665 3.42598,3.98664 3.91599,5.32814 3.91599,5.32814 2.72542,3.89097 2.72542,3.89098 6.45966,7.7241299 6.45966,7.72411998 4.02068,4.48142002 4.02068,4.48142 4.76491,4.9868601 4.76492,4.98686 2.1578,2.64522 2.15781,2.64523 -0.50155,0.50156 -0.50156,0.50155 -4.92618,-2.48732 -4.92617,-2.48731 -3.23915,-1.31457 -3.23915,-1.31457 -4.48497,-1.47951 -4.48497,-1.47952 -5.48164,-1.4572 -5.48164,-1.45721 -10.21577,-1.9742201 -10.21578,-1.97422 -1.90412,-0.31855 -1.90414,-0.31857 -0.65062,-0.24967 -0.65062,-0.24966 -0.30637,1.22068 -0.30637,1.22067 -0.76619,8.3625801 -0.76618,8.36258 0.42683,0.42683 0.42683,0.42683 4.94463,0.77624 4.94464,0.77623 8.22245,1.95908 8.22245,1.95908 6.72747,2.23519 6.72746,2.23518 5.23247,2.63685 5.23247,2.63685 3.73748,2.67614 3.73748,2.67615 3.23915,2.73388 3.23914,2.73387 4.26518,3.89937 4.26519,3.89937 0.96729,8.11062 0.96729,8.11061 -0.0375,11.4616 -0.0375,11.46161 -0.85359,4.734143 -0.85359,4.73414 -0.96912,3.98664 -0.96912,3.98665 -0.96063,3.33086 -0.96063,3.33086 -1.86058,4.39326 -1.86057,4.39326 -3.73429,5.7308 -3.73429,5.7308 -3.79341,3.93462 -3.79341,3.93461 -4.73414,3.08094 -4.73414,3.08093 -4.73414,2.01834 -4.73414,2.01835 -4.15168,1.31112 -4.15169,1.31112 -6.56242,1.19474 -6.56242,1.19474 -3.23915,0.33145 -3.23915,0.33146 -0.87208,0.24689 -0.87207,0.24689 v 8.17305 8.17306 l 5.85538,0.1404 5.85538,0.1404 h 91.13837 91.13837 l 0.0561,-7.84873 z"
       id="path2104979" /><path
       style="fill:#000000;stroke-width:0.498331"
       d="m -544.77942,258.06464 -0.50105,-0.16611 v -8.64366 -8.64366 l 0.71555,-0.71556 0.71556,-0.71555 3.64484,-0.34126 3.64483,-0.34124 4.48498,-0.74449 4.48497,-0.74449 5.52236,-1.45775 5.52235,-1.45775 5.38101,-2.25444 5.38101,-2.25445 4.34295,-2.7403 4.34294,-2.74031 4.44681,-4.61381 4.44681,-4.61382 2.83172,-4.3184 2.83173,-4.3184 2.03785,-4.36997 2.03783,-4.36997 1.67243,-5.76322 1.67243,-5.76321 1.04352,-4.8271 1.04351,-4.8271 0.49904,-5.63784 0.49903,-5.63784 0.004,-6.62659 0.004,-6.62659 -1.05095,-9.07082 -1.05094,-9.07082 -1.81446,-1.9102 -1.81445,-1.91019 -4.73414,-4.08534 -4.73414,-4.08535 -2.74082,-2.04665 -2.74081,-2.04665 -2.87364,-1.82042 -2.87363,-1.82042 -4.58025,-2.22925 -4.58024,-2.22926 -6.25021,-2.03487 -6.25021,-2.03487 -8.07757,-1.90404 -8.07757,-1.90404 -5.50194,-0.84726 -5.50194,-0.84726 -0.0593,-0.56354 -0.0593,-0.56353 -0.0579,-0.99666 -0.0579,-0.99666 0.37922,-5.67234 0.37921,-5.67234 0.54604,-3.67136 0.54605,-3.67136 0.31317,0.009 0.31317,0.009 3.98664,0.71617 3.98665,0.71618 9.21911,1.78874 9.21912,1.78875 7.12901,1.97397 7.12902,1.97398 5.89099,2.20366 5.89099,2.20366 4.67073,2.33564 4.67073,2.33564 -1.23868,-1.42784 -1.23912,-1.42781 -4.99135,-5.23247 -4.99135,-5.23247 -3.23825,-3.72123 -3.23826,-3.72124 -2.81136,-3.12143 -2.81137,-3.12143 -5.43564,-6.61226 -5.43564,-6.61226 -1.19256,-1.74416 -1.19256,-1.74415 -4.74166,-6.4783 -4.74167,-6.4783 -2.2544,-2.74081 -2.2544,-2.74082 -4.35889,-4.78758 -4.3589,-4.78759 -7.36114,-6.75457 -7.36116,-6.754573 -5.43182,-4.3164505 -5.43182,-4.31644 -0.79731,-0.0494 -0.79731,-0.0494 -2.32289,0.35912 -2.32288,0.35912 -0.30412,-0.49208 -0.30413,-0.49208 1.43863,-4.14138 1.43863,-4.14139 2.57877,-6.2291295 2.57877,-6.22913 1.2587,-1.9077 1.2587,-1.90771 0.89884,0.66188 0.89884,0.66188 2.6812,2.1694 2.6812,2.1694 10.96327,9.8356695 10.96327,9.83568 5.19766,5.18732 5.19765,5.1873435 8.15907,9.18193 8.15907,9.18193 9.56648,12.74014 9.56648,12.74014 3.68768,4.24028 3.68768,4.24028 5.28227,5.54708 5.28227,5.54707 5.76656,5.1985 5.76656,5.19851 1.75544,1.33893 1.75543,1.33894 h 0.29018 0.29019 l 1.3152,-2.8654 1.31521,-2.8654 2.19322,-6.4783 2.19323,-6.47829 1.50819,-6.77704 1.50818,-6.77704 0.8008,-6.67789 0.80079,-6.67791 -0.28328,-7.22579 -0.28328,-7.2258 -1.0378,-5.7308 -1.0378,-5.7308 -1.01953,-4.15543 -1.01954,-4.1554435 -2.63325,-7.057 -2.63326,-7.057 -1.86037,-4.48498 -1.86037,-4.4849695 -4.17911,-8.17113 -4.17912,-8.17112 v -0.61613 -0.61612 l 1.12125,-0.35161 1.12124,-0.35163 8.51076,-0.26548 8.51077,-0.26549 3.68535,6.66354 3.68535,6.66353 3.039,6.02062 3.039,6.0206195 2.07154,5.19181 2.07154,5.19182 1.77269,6.20766 1.7727,6.2076635 1.00159,4.50645 1.00159,4.50645 0.29978,4.3602 0.29978,4.3602 0.55041,-0.4568 0.5504,-0.45679 2.73958,-1.06813 2.73957,-1.06813 4.23581,-2.03406 4.23581,-2.03406 4.48498,-2.72715 4.48497,-2.72716 4.23581,-3.28423 4.23581,-3.28421 3.1004,-2.714533 3.1004,-2.7145205 4.16597,-4.78274 4.16597,-4.78274999 3.22861,-4.23581001 3.22861,-4.23581 2.32287,-3.7374795 2.32288,-3.73748 0.57073,-0.66422 0.57072,-0.66422 1.56133,1.43858 1.56134,1.43859 2.24249,1.76134 2.24249,1.76136 4.73414,3.1950795 4.73414,3.1951 0.12458,0.62291 0.12458,0.62291 h -0.41106 -0.41107 l -2.92127,4.11123001 -2.92127,4.11122999 -4.25834,5.4816305 -4.25834,5.481643 -4.04269,4.73414 -4.04269,4.73414 -4.43779,4.19856 -4.4378,4.19857 -4.73414,3.50436 -4.73414,3.50436 -4.9833,2.56518 -4.98331,2.56517 -3.80803,1.44243 -3.80803,1.44242 -0.35918,7.18506 -0.35918,7.18505 0.18056,13.33394 0.18057,13.33393 0.7475,-0.66196 0.7475,-0.66197 3.98664,-1.85113 3.98664,-1.85113 3.23915,-1.49524 3.23915,-1.49524 5.92049,-1.67742 5.92048,-1.67742 5.54112,-0.76694 5.54112,-0.76694 4.9833,-0.78433 4.98331,-0.78433 1.83041,-0.62739 1.83043,-0.62738 0.48986,0.30274 0.48985,0.30275 1.01946,5.48115 1.01945,5.48114 1.13305,5.32773 1.13304,5.32772 -0.27594,0.27594 -0.27594,0.27594 -4.69517,0.25872 -4.69516,0.25872 -3.48832,0.27728 -3.48831,0.27728 -4.7537,0.91396 -4.7537,0.91397 -3.93407,1.32062 -3.93407,1.32063 -3.56826,1.64864 -3.56827,1.64864 -3.93971,2.36724 -3.93971,2.36725 -4.13602,3.05811 -4.13602,3.05811 0.21288,23.42153 0.21287,23.42154 0.82548,5.7308 0.82547,5.7308 1.47891,7.36211 1.47891,7.3621 1.8083,5.59449 1.8083,5.59449 1.96545,4.48497 1.96544,4.48498 3.78884,5.7308 3.78884,5.7308 2.19045,2.49165 2.19047,2.49165 3.07815,2.65334 3.07816,2.65333 3.40032,1.99958 3.40033,1.99957 3.5763,1.48249 3.5763,1.48249 4.98331,1.21433 4.9833,1.21433 1.61958,5e-4 1.61957,5e-4 2e-5,8.84537 10e-6,8.84537 h -97.42092 -97.42091 l -0.50105,-0.16611 z"
       id="path2104975" /><path
       style="fill:#000000;stroke-width:0.498331"
       d="m 364.25371,-108.97895 c 1.64449,-0.61757 3.10211,-1.25772 3.23915,-1.42254 0.13704,-0.16482 0.69186,-0.37711 1.23293,-0.47175 1.56874,-0.2744 6.27508,-3.6071 5.91549,-4.18894 -0.17918,-0.28992 -0.0963,-0.38529 0.18417,-0.21195 1.35374,0.83665 8.12158,-8.31612 8.77847,-11.87194 0.10126,-0.54817 0.34981,-1.37836 0.55231,-1.84488 0.2025,-0.46652 0.2348,-1.06405 0.0718,-1.32784 -0.16304,-0.2638 -0.0316,-0.56791 0.29207,-0.6758 0.84183,-0.28061 0.81318,-9.42654 -0.0403,-12.84555 -2.17581,-8.71694 -7.88515,-15.62602 -15.99027,-19.35043 -4.83742,-2.22287 -7.21477,-2.73446 -12.70743,-2.73461 -4.32576,-1.1e-4 -5.60796,0.2143 -9.71744,1.62492 -2.60378,0.89378 -5.7921,2.40087 -7.08515,3.34911 -5.85207,4.29149 -10.97198,11.69236 -12.3545,17.8585 -0.85217,3.80073 -0.74282,10.09738 0.23407,13.47912 1.21895,4.21966 3.90101,9.09639 6.77803,12.32433 2.60455,2.92224 8.23198,7.02514 8.9916,6.55567 0.24528,-0.15159 0.44596,-0.0564 0.44596,0.21149 0,0.43967 4.73897,2.20625 7.2258,2.6936 0.54816,0.10743 3.23915,0.14516 5.97996,0.0838 3.7476,-0.0838 5.72474,-0.38992 7.97329,-1.23435 z"
       id="path496" /><path
       style="fill:#000000;stroke-width:0.498331"
       d="m 263.58127,-201.19014 c 2.53381,-1.21293 8.89647,-6.18936 6.72746,-5.26174 -0.53053,0.22689 -0.50328,0.11871 0.0939,-0.37268 0.46276,-0.3808 0.91126,-1.00877 0.99666,-1.3955 0.0854,-0.38672 0.42714,-0.99636 0.75942,-1.35473 1.35308,-1.45939 2.80698,-10.08625 1.69985,-10.08625 -0.36152,0 -0.46656,-0.44728 -0.27978,-1.19146 0.16447,-0.6553 0.053,-1.34354 -0.2478,-1.52942 -0.30076,-0.18588 -0.41741,-0.54738 -0.25923,-0.80332 0.49386,-0.79908 -2.34139,-5.38953 -4.63407,-7.50285 -7.82254,-7.21056 -20.19101,-6.24404 -26.28218,2.05379 -2.76457,3.7661 -3.85406,7.45463 -3.60723,12.21241 0.18246,3.51709 0.42946,4.36817 2.09704,7.2258 2.46561,4.22516 4.24125,6.05948 7.42486,7.67023 5.24538,2.65393 10.43379,2.76622 15.51112,0.33572 z"
       id="path492" /><path
       style="fill:#000000;stroke-width:0.498331"
       d="m 18.574213,-167.68246 c 1.85005,-0.58853 3.36373,-1.23757 3.36373,-1.44231 0,-0.20474 0.49068,-0.40922 1.09041,-0.4544 2.42811,-0.1829 10.83969,-6.94005 12.39836,-9.95979 0.39251,-0.76043 0.99396,-1.67893 1.33656,-2.04111 0.56973,-0.60228 0.69803,-1.02275 0.58035,-1.90201 -0.0234,-0.17492 0.21049,-0.47443 0.51978,-0.66558 0.30929,-0.19115 1.1496,-2.01021 1.86735,-4.04236 1.0072,-2.85162 1.3368,-4.83205 1.4443,-8.67812 0.13761,-4.92354 -0.80322,-10.7779 -1.78707,-11.12005 -0.24795,-0.0862 -0.32729,-0.47866 -0.17632,-0.87208 0.15096,-0.39341 0.0263,-0.7153 -0.27716,-0.7153 -0.30341,0 -0.50722,-0.16819 -0.45292,-0.37375 0.18519,-0.70102 -0.66281,-2.61623 -1.15838,-2.61623 -0.27179,0 -0.36908,-0.20239 -0.2162,-0.44977 0.4079,-0.65998 -3.88978,-6.17314 -6.78954,-8.70978 -2.65961,-2.32656 -6.25861,-4.27976 -10.82544,-5.87504 -7.37896,-2.5776 -16.5374903,-1.89065 -24.2009903,1.81526 -3.8528,1.86313 -9.1586197,5.90215 -10.0181897,7.62629 -0.30196,0.60566 -0.89663,1.49518 -1.3215,1.97671 -1.382408,1.56675 -4.232178,7.78726 -4.807058,10.4929 -1.80264,8.48401 0.15701,18.30039 5.093558,25.51491 4.52481,6.61281 13.1378397,12.67672 18.6721597,13.14592 1.16693,0.0989 2.28156,0.34548 2.47694,0.54786 0.68536,0.7099 9.7840103,-0.11954 13.1872703,-1.20217 z"
       id="path488" /><path
       style="fill:#000000;stroke-width:0.498331"
       d="m 123.36398,-178.94529 c -7.77566,-1.82988 -13.19227,-7.40873 -14.82382,-15.26783 -0.74038,-3.56638 0.009,-8.72845 1.80531,-12.43664 1.3646,-2.81692 5.54284,-6.97125 8.35214,-8.30435 4.19892,-1.99252 9.8862,-2.29933 14.42521,-0.7782 8.25019,2.76485 13.2329,10.14912 12.70705,18.83162 -0.38351,6.33222 -2.64423,10.62773 -7.5289,14.30539 -4.60818,3.46949 -10.05173,4.79968 -14.93699,3.65001 z"
       id="path482" /><path
       style="fill:#000000;stroke-width:0.498331"
       d="m 57.363213,-211.22791 c 1.48867,-0.44169 3.80163,-1.35755 5.13992,-2.03525 2.76152,-1.39841 7.41011,-5.52474 6.98993,-6.20462 -0.15298,-0.24752 0.0188,-0.38841 0.38182,-0.3131 0.74023,0.15358 2.80461,-3.67665 3.01493,-5.59387 0.0752,-0.68521 0.33484,-1.38972 0.57704,-1.56557 0.2422,-0.17586 0.55035,-2.42263 0.68479,-4.9928 0.22228,-4.2496 0.11988,-4.9883 -1.13012,-8.15188 -1.79888,-4.55277 -4.36525,-7.87255 -7.96833,-10.30759 -4.48464,-3.03081 -6.52179,-3.60759 -12.77654,-3.61744 l -5.79992,-0.009 -4.31755,2.1892 c -4.68577,2.37591 -7.13403,4.74608 -9.17397,8.88134 -0.64431,1.30613 -1.40705,2.81851 -1.69497,3.36084 -0.98594,1.85713 -1.07637,9.76327 -0.14819,12.9561 1.25478,4.31629 6.47676,11.76053 7.71357,10.99614 0.25558,-0.15796 0.62695,-0.0246 0.82528,0.29627 0.23913,0.38691 0.12483,0.46113 -0.33931,0.22033 -0.38496,-0.19971 -0.25142,0.01 0.29675,0.46524 1.49687,1.24407 6.09516,3.19397 8.03666,3.40792 0.94218,0.10383 1.85529,0.33101 2.02914,0.50486 0.59404,0.59404 4.94878,0.31715 7.65907,-0.48699 z"
       id="path480" /><path
       style="fill:#000000;stroke-width:0.498331"
       d="m 320.09013,-187.01927 c 1.43703,-0.31867 2.23832,-0.73113 2.04091,-1.05055 -0.18835,-0.30477 -0.0874,-0.37907 0.24001,-0.17669 0.31077,0.19206 1.07422,0.0851 1.69657,-0.23779 1.70226,-0.88307 5.86568,-3.58613 5.86568,-3.80824 0,-0.10706 -0.28031,-0.0346 -0.62291,0.16099 -0.3426,0.19561 0.0281,-0.3438 0.82375,-1.19869 0.79567,-0.85489 1.67125,-1.41555 1.94574,-1.2459 0.28307,0.17495 0.34424,0.0579 0.14132,-0.2704 -0.20007,-0.32373 -0.0156,-0.71014 0.41847,-0.87672 0.42693,-0.16382 0.66667,-0.47511 0.53278,-0.69175 -0.13389,-0.21665 0.10586,-0.52794 0.53278,-0.69176 0.42692,-0.16383 0.64848,-0.50455 0.49236,-0.75716 -0.15612,-0.2526 -0.0545,-0.53574 0.22586,-0.62919 0.28035,-0.0934 1.0958,-1.85053 1.81212,-3.90462 5.80811,-16.6551 -7.85759,-33.05044 -25.36341,-30.4296 -7.18299,1.07538 -15.15166,6.32883 -17.69844,11.66792 -1.88307,3.94767 -2.17293,5.01261 -2.45594,9.02293 -0.49154,6.96516 1.52485,13.39444 5.53133,17.63674 6.77813,7.17707 14.4103,9.57178 23.84102,7.48048 z"
       id="path476" /><path
       style="fill:#000000;stroke-width:0.498331"
       d="m 207.75186,-178.23327 c 5.27524,-1.38172 8.53276,-2.84 8.08422,-3.61905 -0.19853,-0.34482 -0.1834,-0.46665 0.0336,-0.27073 1.41986,1.2818 9.47071,-6.48704 8.44402,-8.14825 -0.22739,-0.36792 -0.14538,-0.45104 0.22137,-0.22438 0.69961,0.43239 3.11691,-4.46054 2.71768,-5.50092 -0.14459,-0.3768 4.6e-4,-0.68509 0.32233,-0.68509 0.34988,0 0.46337,-0.38394 0.28221,-0.95472 -0.16666,-0.5251 -0.0897,-1.08656 0.17101,-1.24769 0.72114,-0.44569 1.16249,-8.18367 0.62759,-11.00335 -1.00096,-5.27652 -1.70756,-7.02767 -4.48765,-11.12153 -4.95529,-7.29698 -13.39258,-11.64067 -22.67107,-11.67151 -11.54174,-0.0384 -21.75674,6.07978 -26.19678,15.69022 -5.2313,11.32314 -3.56535,21.67268 4.97532,30.9085 2.80176,3.0298 4.35364,4.24114 7.16707,5.59434 6.85845,3.29879 13.50447,4.03645 20.30905,2.25416 z"
       id="path472" /><path
       style="fill:#000000;stroke-width:0.498331"
       d="m 381.07512,-180.98471 c 1.78066,-0.51844 4.24668,-1.38793 5.48005,-1.93219 2.88116,-1.2714 7.57797,-5.02697 7.15095,-5.71791 -0.18058,-0.29217 -0.10202,-0.39136 0.17457,-0.22042 1.24995,0.77251 5.5779,-6.45724 6.80598,-11.36924 1.90141,-7.60517 1.45036,-13.00826 -1.62599,-19.4776 -6.1705,-12.97611 -22.38808,-18.25289 -36.04659,-11.72864 -9.63672,4.60318 -15.08865,12.41396 -15.69486,22.48545 -0.75415,12.52924 7.39424,24.04531 19.76919,27.9397 3.80928,1.19878 9.90971,1.20787 13.9867,0.0208 z"
       id="path460" /><path
       style="fill:#3465a4;stroke-width:0.611611;filter:url(#filter868);stroke:#000000;stroke-opacity:1"
       d="m 112.38531,299.68259 c 5.69065,-1.65491 12.38913,-5.19502 15.44445,-8.16233 1.14969,-1.11656 2.29781,-2.0301 2.5514,-2.0301 0.63969,0 7.06578,-9.74623 7.66194,-11.62061 0.26748,-0.84096 0.41628,-2.01066 0.33067,-2.59934 -0.0857,-0.58868 0.0779,-1.07032 0.36334,-1.07032 0.28545,0 0.56881,-0.48165 0.6297,-1.07032 0.23,-2.22369 0.52911,-3.56088 0.9482,-4.23899 1.10834,-1.79332 1.18004,-9.89486 0.12947,-14.62859 -2.76432,-12.45568 -9.94251,-21.14075 -22.33263,-27.02075 -6.72952,-3.19366 -15.67676,-4.03504 -24.650512,-2.31807 -7.43602,1.42274 -17.4093,7.13349 -20.96012,12.00186 -0.98405,1.3492 -2.30967,3.06334 -2.945812,3.80919 -1.771225,2.07671 -5.043677,9.52241 -5.8378,13.28252 -0.892278,4.22489 -0.909874,12.92389 -0.03413,16.87272 2.494441,11.2477 13.230872,23.74104 23.981662,27.906 3.26868,1.26632 4.32839,1.52003 8.72888,2.08985 1.34243,0.17384 2.58094,0.46299 2.75225,0.64258 0.62011,0.65009 8.375192,-0.43083 13.239042,-1.8453 z"
       id="path456" /><path
       style="fill:#3465a4;stroke-width:0.611611;filter:url(#filter856);stroke:#000000;stroke-opacity:1"
       d="m 87.793518,151.89418 c 5.69065,-1.6549 12.389122,-5.19502 15.444452,-8.16232 1.14969,-1.11657 2.29781,-2.03011 2.5514,-2.03011 0.63969,0 7.06577,-9.74623 7.66193,-11.6206 0.26748,-0.84096 0.41628,-2.01067 0.33068,-2.59934 -0.0857,-0.58868 0.0779,-1.07032 0.36333,-1.07032 0.28545,0 0.56882,-0.48165 0.6297,-1.07032 0.23,-2.2237 0.52911,-3.56088 0.94821,-4.23899 1.10834,-1.79332 1.18004,-9.89487 0.12947,-14.62859 -2.76432,-12.455684 -9.94252,-21.140759 -22.332642,-27.02076 -6.72951,-3.193656 -15.67676,-4.035033 -24.650509,-2.318062 -7.43602,1.422733 -17.409298,7.133486 -20.960121,12.001856 -0.984051,1.349204 -2.309667,3.06334 -2.94581,3.809194 -1.771224,2.07671 -5.043677,9.522402 -5.837799,13.282512 -0.892278,4.22489 -0.909874,12.9239 -0.03413,16.87272 2.494442,11.24771 13.230876,23.74105 23.981663,27.906 3.268682,1.26633 4.328387,1.52004 8.728876,2.08986 1.34243,0.17383 2.58094,0.46299 2.75225,0.64257 0.62012,0.6501 8.37519,-0.43082 13.23905,-1.8453 z"
       id="path456-3" /><path
       style="fill:#3465a4;stroke-width:0.611611;filter:url(#filter844);stroke:#000000;stroke-opacity:1"
       d="m 268.90882,105.76562 c 5.69065,-1.6549 12.38912,-5.19502 15.44445,-8.162322 1.14969,-1.116566 2.29781,-2.030109 2.5514,-2.030109 0.63969,0 7.06577,-9.746227 7.66193,-11.620602 0.26748,-0.840959 0.41628,-2.010668 0.33068,-2.599339 -0.0857,-0.588684 0.0779,-1.070321 0.36333,-1.070321 0.28545,0 0.56882,-0.481649 0.6297,-1.07032 0.23,-2.223694 0.52911,-3.560883 0.94821,-4.238989 1.10834,-1.793322 1.18004,-9.894868 0.12947,-14.628589 -2.76432,-12.455683 -9.94252,-21.140758 -22.33264,-27.020758 -6.72951,-3.193657 -15.67675,-4.035033 -24.65051,-2.318063 -7.43602,1.422733 -17.4093,7.133486 -20.96012,12.001857 -0.98405,1.349204 -2.30966,3.063339 -2.94581,3.809193 -1.77123,2.07671 -5.04368,9.522402 -5.8378,13.282515 -0.89228,4.224887 -0.90988,12.923893 -0.0341,16.872719 2.49444,11.247705 13.23088,23.741038 23.98167,27.905998 3.26868,1.26633 4.32838,1.52004 8.72888,2.08986 1.34242,0.17383 2.58094,0.46299 2.75225,0.64257 0.62011,0.6501 8.37519,-0.43082 13.23904,-1.8453 z"
       id="path456-3-6" /><path
       style="fill:#3465a4;stroke-width:0.611611;filter:url(#filter820);stroke:#000000;stroke-opacity:1"
       d="m 427.81413,139.54638 c 5.69065,-1.6549 12.38913,-5.19502 15.44445,-8.16232 1.14969,-1.11657 2.29781,-2.03011 2.5514,-2.03011 0.63969,0 7.06578,-9.74623 7.66194,-11.6206 0.26748,-0.84096 0.41628,-2.01067 0.33067,-2.59934 -0.0857,-0.58869 0.0779,-1.07032 0.36334,-1.07032 0.28545,0 0.56881,-0.48165 0.6297,-1.07032 0.23,-2.2237 0.52911,-3.56089 0.9482,-4.23899 1.10834,-1.79332 1.18004,-9.894872 0.12947,-14.628593 -2.76432,-12.455682 -9.94251,-21.140757 -22.33263,-27.020758 -6.72952,-3.193656 -15.67676,-4.035033 -24.65051,-2.318062 -7.43602,1.422733 -17.4093,7.133486 -20.96012,12.001856 -0.98405,1.349205 -2.30967,3.06334 -2.94581,3.809194 -1.77123,2.07671 -5.04368,9.522402 -5.83781,13.282515 -0.89227,4.224887 -0.90987,12.923898 -0.0341,16.872718 2.49444,11.24771 13.23088,23.74104 23.98167,27.906 3.26868,1.26632 4.32839,1.52004 8.72888,2.08986 1.34243,0.17383 2.58094,0.46299 2.75225,0.64257 0.62012,0.6501 8.37519,-0.43082 13.23904,-1.8453 z"
       id="path456-3-6-7" /><path
       style="fill:#3465a4;stroke-width:0.611611;filter:url(#filter832);stroke:#000000;stroke-opacity:1"
       d="m 443.73185,299.20811 c 5.69065,-1.65491 12.38912,-5.19503 15.44445,-8.16233 1.14969,-1.11656 2.29781,-2.03011 2.5514,-2.03011 0.63969,0 7.06577,-9.74622 7.66193,-11.6206 0.26748,-0.84096 0.41628,-2.01067 0.33068,-2.59934 -0.0857,-0.58868 0.0779,-1.07032 0.36333,-1.07032 0.28545,0 0.56882,-0.48165 0.6297,-1.07032 0.23,-2.22369 0.52911,-3.56088 0.94821,-4.23899 1.10834,-1.79332 1.18004,-9.89487 0.12947,-14.62859 -2.76432,-12.45568 -9.94252,-21.14075 -22.33263,-27.02076 -6.72952,-3.19365 -15.67676,-4.03503 -24.65051,-2.31806 -7.43603,1.42274 -17.40931,7.13349 -20.96013,12.00186 -0.98405,1.3492 -2.30966,3.06334 -2.94581,3.80919 -1.77123,2.07671 -5.04368,9.5224 -5.8378,13.28252 -0.89228,4.22488 -0.90988,12.92389 -0.0341,16.87272 2.49444,11.2477 13.23088,23.74104 23.98167,27.90599 3.26868,1.26633 4.32838,1.52004 8.72888,2.08986 1.34243,0.17384 2.58094,0.46299 2.75225,0.64257 0.62011,0.6501 8.37519,-0.43082 13.23904,-1.84529 z"
       id="path456-3-6-7-5" /><path
       style="fill:url(#linearGradient1576);fill-opacity:1;stroke-width:0.611611;filter:url(#filter2106588);stroke:#000000;stroke-opacity:1"
       d="m 150.15083,467.07137 c -0.38072,-0.12622 -1.90228,4.99165 -1.90228,-1.57616 0,-8.40386 0.1825,-10.79105 0.87821,-11.48674 0.50234,-0.50236 2.7928,-1.05747 5.35159,-1.29705 38.29135,-4.73816 67.11308,-21.48806 77.739,-56.34512 5.93659,-20.45763 7.29964,-38.73911 4.64811,-61.62469 l -1.28985,-11.13279 -2.22691,-2.34441 c -5.1985,-5.47282 -17.25736,-15.29441 -24.10209,-19.6305 -12.18119,-7.71667 -34.68161,-15.02528 -56.69188,-18.41471 -3.87593,-0.59687 -6.78361,-1.3345 -6.82538,-1.73149 -0.2158,-2.05185 -0.17349,-3.75731 0.25052,-10.09985 0.53539,-8.00845 1.62896,-15.97881 2.19012,-15.96235 0.70139,0.0205 10.0224,1.74054 21.48493,3.96457 19.68366,3.81912 36.56636,9.09564 49.00668,15.31652 6.65328,3.32703 6.83926,3.70939 -3.43401,-7.06016 -3.36928,-3.53205 -7.91445,-8.47712 -10.10034,-10.98905 -2.18592,-2.51193 -5.52709,-6.29109 -7.42483,-8.39814 -4.43201,-4.92083 -16.35302,-19.41828 -18.25662,-22.20233 -7.67174,-11.22017 -16.07616,-21.95813 -23.98622,-30.64612 -9.79794,-10.76157 -35.26633,-32.88388 -37.91842,-33.04836 -2.931,-2.02291 -1.50501,-0.95702 -6.36648,-4.57744 -0.75066,-1.21461 7.56093,-19.16491 10.53366,-23.6704 1.74141,-2.63933 1.18485,-2.79312 7.04184,1.94585 6.03397,4.88218 30.1162,26.72039 36.58073,33.17207 11.54588,11.52296 26.22102,28.6575 38.14788,44.54106 12.50087,16.64802 16.96384,22.02342 27.27607,32.85261 8.49012,8.91573 36.58678,74.36558 37.96731,74.36558 20.82272,-42.90042 0.57032,-92.59199 -8.16028,-129.26498 -2.52421,-10.28824 -10.03954,-29.04785 -17.41062,-43.46001 -2.82102,-5.51571 0.50854,-25.48053 0.50854,-25.89644 0,-1.26493 2.31082,-1.60551 13.19767,-1.94511 l 10.44543,-0.32584 -1.11456,23.28997 c 4.02421,27.16911 22.24313,40.61105 24.24543,67.35138 0.26151,3.80378 0.56329,5.18923 1.04345,4.79073 0.37153,-0.30835 2.18857,-1.15056 4.03786,-1.87158 13.27706,-5.17658 32.05922,-28.51509 44.60891,-39.50285 6.87683,-6.02093 18.99201,-20.69951 24.80711,-30.05595 4.15025,-6.6777 3.92714,-6.51668 6.16809,-4.45191 3.07987,2.83774 7.01778,5.81711 13.23106,10.01048 5.1308,3.4628 7.17719,5.45042 5.61159,5.45042 -0.27748,0 -2.11791,2.27061 -4.08984,5.04579 -22.89508,32.22123 -41.16864,48.68291 -63.38102,57.09662 l -4.67368,1.77032 -0.44083,8.81835 c -0.24244,4.8501 -0.34109,16.1826 -0.21921,25.18335 0.19623,14.48941 0.32676,16.27187 1.13904,15.55256 0.83915,-0.74315 2.95033,-1.77747 14.67865,-7.19144 5.64039,-2.6037 17.34276,-5.79129 25.30885,-6.89388 12.13111,-1.67906 18.98643,-2.85059 21.27943,-3.63654 1.23558,-0.42349 2.51706,-0.60279 2.84772,-0.39843 0.33067,0.20437 1.16426,3.39878 1.85242,7.09869 0.68816,3.69991 1.87696,9.66958 2.6418,13.26593 0.76483,3.59635 1.2382,6.69122 1.05194,6.87748 -0.18627,0.18627 -2.93178,0.48157 -6.10114,0.6562 -10.31742,0.56853 -14.2308,0.98004 -20.15932,2.11989 -13.59311,2.61346 -25.88255,8.27787 -38.99661,17.9742 l -5.07621,3.75328 -4.0801,28.74569 c 2.84838,40.68346 6.03493,73.08008 31.51085,102.75059 6.12315,6.96508 14.08299,12.61068 22.98,16.29875 4.94932,2.05165 15.60149,4.79983 18.60921,4.80102 l 1.98773,8e-4 10e-6,10.85608 1.28735,1.61986 H 270.33234 c -65.76161,0 -119.84328,-0.0917 -120.18151,-0.20387 z"
       id="path440"
       inkscape:highlight-color="#3ed6e3"
       sodipodi:nodetypes="sssccscsssssssssssssccsssssccssscccssssssssscssssssssssssscccsscccss" /><text
       xml:space="preserve"
       style="font-style:normal;font-weight:normal;font-size:40px;line-height:1.25;font-family:sans-serif;fill:#000000;fill-opacity:1;stroke:none"
       x="68.356834"
       y="-78.033035"
       id="text3469"><tspan
         sodipodi:role="line"
         id="tspan3467"
         x="68.356834"
         y="-78.033035">2</tspan></text><text
       xml:space="preserve"
       style="font-size:40px;line-height:1.25;font-family:'DejaVu Math TeX Gyre';-inkscape-font-specification:'DejaVu Math TeX Gyre, Normal'"
       x="-45.556068"
       y="-84.106087"
       id="text3523"><tspan
         sodipodi:role="line"
         id="tspan3521"
         x="-45.556068"
         y="-84.106087">x</tspan></text><text
       xml:space="preserve"
       style="font-size:40px;line-height:1.25;font-family:'DejaVu Math TeX Gyre';-inkscape-font-specification:'DejaVu Math TeX Gyre, Normal'"
       x="16.251945"
       y="-96.970627"
       id="text3527"><tspan
         sodipodi:role="line"
         id="tspan3525"
         x="16.251945"
         y="-96.970627">y</tspan></text><text
       xml:space="preserve"
       style="font-size:40px;line-height:1.25;font-family:'DejaVu Math TeX Gyre';-inkscape-font-specification:'DejaVu Math TeX Gyre, Normal'"
       x="170.25822"
       y="-80.054283"
       id="text3531"><tspan
         sodipodi:role="line"
         id="tspan3529"
         x="170.25822"
         y="-80.054283">z</tspan></text><g
       inkscape:label=""
       transform="matrix(1.2273192,0,0,1.2273192,422.77291,253.65456)"
       id="g4145"><g
   id="g4143"
   transform="matrix(1.33333,0,0,1.33333,-0.854167,0.0206668)">
    <g
   clip-path="url(#clipPath3941)"
   clip-rule="nonzero"
   id="g19">
      <g
   style="fill:#000000;fill-opacity:1"
   id="g17">
        <g
   id="use15"
   transform="translate(0,10.672)">
          <path
   style="stroke:none"
   d="M 6.421875,-9.34375 H 9.21875 C 8.546875,-6.5625 8.125,-4.765625 8.125,-2.78125 c 0,0.359375 0,3.03125 1.015625,3.03125 0.53125,0 0.96875,-0.46875 0.96875,-0.890625 0,-0.125 0,-0.171875 -0.171875,-0.546875 -0.671875,-1.71875 -0.671875,-3.84375 -0.671875,-4.015625 0,-0.15625 0,-1.90625 0.515625,-4.140625 h 2.78125 c 0.328125,0 1.140625,0 1.140625,-0.796875 0,-0.546875 -0.46875,-0.546875 -0.921875,-0.546875 H 4.640625 c -0.578125,0 -1.421875,0 -2.5625,1.21875 -0.640625,0.71875 -1.4375,2.03125 -1.4375,2.1875 0,0.140625 0.125,0.1875 0.28125,0.1875 0.171875,0 0.1875,-0.0625 0.3125,-0.21875 C 2.53125,-9.34375 3.8125,-9.34375 4.4375,-9.34375 H 5.84375 C 5.296875,-7.484375 4.6875,-5.328125 2.65625,-0.984375 2.453125,-0.59375 2.453125,-0.546875 2.453125,-0.390625 2.453125,0.125 2.90625,0.25 3.125,0.25 3.84375,0.25 4.046875,-0.390625 4.34375,-1.4375 4.734375,-2.703125 4.734375,-2.75 4.984375,-3.734375 Z m 0,0"
   id="path26" />
        </g>
      </g>
    </g>
  </g>
</g><g
       inkscape:label=""
       transform="matrix(1.2273192,0,0,1.2273192,67.665566,105.9571)"
       id="g4447"><g
   id="g4445"
   transform="matrix(1.33333,0,0,1.33333,-0.916667,0.333167)">
    <g
   clip-path="url(#clipPath8189)"
   clip-rule="nonzero"
   id="g4443">
      <g
   style="fill:#000000;fill-opacity:1"
   id="g4441">
        <g
   id="g4439"
   transform="translate(0,10.672)">
          <path
   style="stroke:none"
   d="m 11.75,-10.109375 c -0.796875,0.140625 -1.09375,0.734375 -1.09375,1.21875 0,0.59375 0.46875,0.78125 0.8125,0.78125 0.75,0 1.265625,-0.640625 1.265625,-1.3125 0,-1.03125 -1.1875,-1.5 -2.234375,-1.5 -1.5,0 -2.34375,1.484375 -2.5625,1.953125 -0.578125,-1.859375 -2.109375,-1.953125 -2.5625,-1.953125 -2.53125,0 -3.859375,3.234375 -3.859375,3.78125 0,0.109375 0.09375,0.234375 0.265625,0.234375 0.203125,0 0.25,-0.15625 0.296875,-0.25 0.84375,-2.75 2.5,-3.28125 3.21875,-3.28125 1.125,0 1.34375,1.046875 1.34375,1.640625 C 6.640625,-8.25 6.5,-7.6875 6.1875,-6.5 l -0.828125,3.40625 c -0.375,1.484375 -1.09375,2.84375 -2.40625,2.84375 -0.125,0 -0.75,0 -1.265625,-0.3125 0.890625,-0.1875 1.09375,-0.921875 1.09375,-1.21875 0,-0.5 -0.375,-0.796875 -0.84375,-0.796875 -0.59375,0 -1.25,0.515625 -1.25,1.3125 0,1.046875 1.171875,1.515625 2.234375,1.515625 1.1875,0 2.03125,-0.9375 2.5625,-1.953125 C 5.875,-0.25 7.109375,0.25 8.03125,0.25 c 2.53125,0 3.859375,-3.25 3.859375,-3.796875 0,-0.125 -0.09375,-0.21875 -0.25,-0.21875 -0.21875,0 -0.234375,0.125 -0.3125,0.328125 -0.671875,2.171875 -2.109375,3.1875 -3.21875,3.1875 -0.875,0 -1.34375,-0.640625 -1.34375,-1.65625 0,-0.546875 0.09375,-0.9375 0.5,-2.578125 L 8.125,-7.859375 C 8.5,-9.34375 9.34375,-10.4375 10.484375,-10.4375 c 0.04687,0 0.734375,0 1.265625,0.328125 z m 0,0"
   id="path4437" />
        </g>
      </g>
    </g>
  </g>
</g><g
       inkscape:label=""
       transform="matrix(1.2273192,0,0,1.2273192,249.4968,55.884509)"
       id="g4672"><g
   id="g4670"
   transform="matrix(1.33333,0,0,1.33333,-0.895833,0.333167)">
    <g
   clip-path="url(#clipPath1986)"
   clip-rule="nonzero"
   id="g4668">
      <g
   style="fill:#000000;fill-opacity:1"
   id="g4666">
        <g
   id="g4664"
   transform="translate(0,10.672)">
          <path
   style="stroke:none"
   d="M 6.515625,2.78125 C 5.84375,3.71875 4.875,4.5625 3.671875,4.5625 3.375,4.5625 2.1875,4.515625 1.8125,3.375 1.890625,3.390625 2,3.390625 2.0625,3.390625 2.796875,3.390625 3.296875,2.75 3.296875,2.1875 3.296875,1.609375 2.828125,1.40625 2.453125,1.40625 2.0625,1.40625 1.1875,1.703125 1.1875,2.921875 1.1875,4.1875 2.25,5.0625 3.671875,5.0625 c 2.46875,0 4.984375,-2.28125 5.671875,-5.03125 l 2.421875,-9.671875 c 0.03125,-0.125 0.07813,-0.265625 0.07813,-0.421875 0,-0.375 -0.296875,-0.625 -0.671875,-0.625 -0.21875,0 -0.734375,0.109375 -0.9375,0.84375 l -1.82813,7.296875 c -0.125,0.4375 -0.125,0.484375 -0.328125,0.765625 -0.5,0.6875 -1.3125,1.53125 -2.5,1.53125 C 4.1875,-0.25 4.0625,-1.609375 4.0625,-2.28125 c 0,-1.40625 0.671875,-3.3125 1.34375,-5.109375 0.265625,-0.71875 0.421875,-1.0625 0.421875,-1.5625 0,-1.03125 -0.75,-1.96875 -1.96875,-1.96875 -2.265625,0 -3.1875,3.59375 -3.1875,3.78125 0,0.109375 0.09375,0.234375 0.265625,0.234375 0.234375,0 0.25,-0.109375 0.34375,-0.453125 0.609375,-2.078125 1.546875,-3.078125 2.515625,-3.078125 0.21875,0 0.640625,0 0.640625,0.828125 0,0.640625 -0.28125,1.359375 -0.640625,2.296875 -1.21875,3.25 -1.21875,4.0625 -1.21875,4.65625 0,2.359375 1.6875,2.90625 2.921875,2.90625 0.71875,0 1.609375,-0.21875 2.484375,-1.140625 L 8,-0.875 C 7.625,0.59375 7.390625,1.5625 6.515625,2.78125 Z m 0,0"
   id="path4662" />
        </g>
      </g>
    </g>
  </g>
</g><g
       inkscape:label=""
       transform="matrix(1.2273192,0,0,1.2273192,94.494668,249.1644)"
       id="g4913"><g
   id="g4911"
   transform="matrix(1.33333,0,0,1.33333,-1.35417,0.529334)">
    <g
   clip-path="url(#clipPath6578)"
   clip-rule="nonzero"
   id="g4909">
      <g
   style="fill:#000000;fill-opacity:1"
   id="g4907">
        <g
   id="g4905"
   transform="translate(0,15.978)">
          <path
   style="stroke:none"
   d="m 10.328125,-3.84375 h -0.4375 C 9.640625,-2.078125 9.4375,-1.78125 9.34375,-1.640625 9.21875,-1.4375 7.4375,-1.4375 7.09375,-1.4375 H 2.328125 c 0.890625,-0.96875 2.625,-2.71875 4.734375,-4.75 1.515625,-1.4375 3.265625,-3.125 3.265625,-5.578125 C 10.328125,-14.6875 8,-16.375 5.40625,-16.375 c -2.734375,0 -4.390625,2.390625 -4.390625,4.625 0,0.96875 0.71875,1.09375 1.015625,1.09375 0.25,0 0.984375,-0.140625 0.984375,-1.015625 0,-0.765625 -0.640625,-0.984375 -0.984375,-0.984375 -0.140625,0 -0.296875,0.01563 -0.390625,0.0625 0.46875,-2.09375 1.90625,-3.140625 3.421875,-3.140625 2.15625,0 3.5625,1.703125 3.5625,3.96875 0,2.15625 -1.265625,4.015625 -2.671875,5.625 L 1.015625,-0.5625 V 0 h 8.71875 z m 0,0"
   id="path4903" />
        </g>
      </g>
    </g>
  </g>
</g><g
       inkscape:label=""
       transform="matrix(0.40003622,0.52121915,-0.506943,0.41130174,179.7911,188.10622)"
       id="g5456"><g
   id="g5454"
   transform="matrix(1.33333,0,0,1.33333,-1.6875,-0.00733439)">
    <g
   style="fill:#000000;fill-opacity:1"
   id="g45">
      <g
   id="use39"
   transform="translate(0,18.568001)">
        <path
   style="stroke:none"
   d="m 5.65625,-4.953125 c 0.421875,0.078125 1.078125,0.21875 1.234375,0.25 0.328125,0.09375 1.4375,0.484375 1.4375,1.6875 C 8.328125,-2.25 7.625,-0.25 4.765625,-0.25 4.234375,-0.25 2.375,-0.328125 1.890625,-1.6875 2.875,-1.5625 3.375,-2.328125 3.375,-2.875 c 0,-0.515625 -0.359375,-0.796875 -0.84375,-0.796875 -0.546875,0 -1.265625,0.421875 -1.265625,1.546875 0,1.453125 1.484375,2.375 3.46875,2.375 3.765625,0 4.875,-2.78125 4.875,-4.0625 0,-0.375 0,-1.0625 -0.78125,-1.859375 -0.625,-0.59375 -1.21875,-0.71875 -2.5625,-1 C 5.59375,-6.8125 4.53125,-7.03125 4.53125,-8.15625 c 0,-0.5 0.453125,-2.28125 2.796875,-2.28125 1.046875,0 2.0625,0.40625 2.3125,1.296875 -1.09375,0 -1.140625,0.9375 -1.140625,0.96875 0,0.515625 0.46875,0.65625 0.6875,0.65625 0.359375,0 1.046875,-0.265625 1.046875,-1.3125 0,-1.03125 -0.9375,-2.09375 -2.875,-2.09375 -3.25,0 -4.109375,2.546875 -4.109375,3.5625 0,1.875 1.828125,2.28125 2.40625,2.40625 z m 0,0"
   id="path68" />
      </g>
      <g
   id="use41"
   transform="translate(11.431811,18.568001)">
        <path
   style="stroke:none"
   d="m 7.015625,-3.546875 c 0,-0.125 -0.109375,-0.21875 -0.25,-0.21875 -0.21875,0 -0.25,0.078125 -0.375,0.5 C 5.75,-1.015625 4.734375,-0.25 3.921875,-0.25 c -0.296875,0 -0.65625,-0.078125 -0.65625,-0.8125 0,-0.671875 0.296875,-1.421875 0.578125,-2.15625 l 1.734375,-4.609375 c 0.078125,-0.203125 0.25,-0.640625 0.25,-1.125 0,-1.03125 -0.75,-1.96875 -1.96875,-1.96875 -2.265625,0 -3.1875,3.59375 -3.1875,3.78125 0,0.109375 0.09375,0.234375 0.265625,0.234375 0.234375,0 0.25,-0.109375 0.34375,-0.453125 0.609375,-2.078125 1.546875,-3.078125 2.515625,-3.078125 0.21875,0 0.640625,0.03125 0.640625,0.828125 0,0.640625 -0.328125,1.453125 -0.515625,2 L 2.1875,-3 c -0.15625,0.390625 -0.296875,0.796875 -0.296875,1.234375 0,1.125 0.765625,2.015625 1.953125,2.015625 2.28125,0 3.171875,-3.625 3.171875,-3.796875 z M 6.8125,-15.46875 c 0,-0.359375 -0.296875,-0.8125 -0.84375,-0.8125 -0.5625,0 -1.203125,0.546875 -1.203125,1.1875 0,0.625 0.515625,0.8125 0.8125,0.8125 0.671875,0 1.234375,-0.640625 1.234375,-1.1875 z m 0,0"
   id="path72" />
      </g>
      <g
   id="use43"
   transform="translate(19.710703,18.568001)">
        <path
   style="stroke:none"
   d="M 5.109375,-7.265625 C 5.15625,-7.40625 5.78125,-8.65625 6.6875,-9.4375 c 0.640625,-0.59375 1.484375,-1 2.453125,-1 1,0 1.34375,0.75 1.34375,1.734375 0,1.421875 -1.015625,4.25 -1.515625,5.578125 C 8.75,-2.53125 8.625,-2.203125 8.625,-1.765625 c 0,1.125 0.765625,2.015625 1.953125,2.015625 2.3125,0 3.171875,-3.640625 3.171875,-3.796875 0,-0.125 -0.09375,-0.21875 -0.25,-0.21875 -0.21875,0 -0.234375,0.078125 -0.359375,0.5 C 12.5625,-1.234375 11.625,-0.25 10.65625,-0.25 c -0.25,0 -0.640625,-0.015625 -0.640625,-0.8125 0,-0.625 0.265625,-1.359375 0.421875,-1.71875 0.484375,-1.359375 1.53125,-4.125 1.53125,-5.546875 0,-1.484375 -0.859375,-2.59375 -2.75,-2.59375 -2.203125,0 -3.375,1.546875 -3.8125,2.171875 -0.078125,-1.40625 -1.09375,-2.171875 -2.1875,-2.171875 -0.796875,0 -1.328125,0.46875 -1.75,1.3125 -0.453125,0.890625 -0.796875,2.375 -0.796875,2.46875 0,0.109375 0.09375,0.234375 0.265625,0.234375 0.203125,0 0.234375,-0.03125 0.375,-0.609375 0.390625,-1.5 0.84375,-2.921875 1.828125,-2.921875 0.578125,0 0.78125,0.40625 0.78125,1.140625 0,0.546875 -0.25,1.515625 -0.421875,2.28125 L 2.796875,-4.34375 c -0.09375,0.484375 -0.375,1.59375 -0.5,2.046875 C 2.125,-1.65625 1.859375,-0.5 1.859375,-0.375 1.859375,-0.03125 2.125,0.25 2.5,0.25 c 0.296875,0 0.640625,-0.15625 0.84375,-0.515625 0.046875,-0.125 0.28125,-1 0.390625,-1.5 l 0.546875,-2.21875 z m 0,0"
   id="path76" />
      </g>
    </g>
    <g
   clip-path="url(#clipPath2078)"
   clip-rule="nonzero"
   id="g51">
      <g
   style="fill:#000000;fill-opacity:1"
   id="g49">
        <g
   id="use47"
   transform="translate(34.200001,18.568001)">
          <path
   style="stroke:none"
   d="m 7.578125,6.046875 c 0,-0.03125 0,-0.078125 -0.0625,-0.15625 -1.140625,-1.15625 -4.1875,-4.328125 -4.1875,-12.0625 0,-7.734375 2.984375,-10.875 4.203125,-12.109375 0,-0.03125 0.046875,-0.07813 0.046875,-0.15625 0,-0.07813 -0.0625,-0.125 -0.171875,-0.125 -0.265625,0 -2.375,1.828125 -3.59375,4.5625 -1.234375,2.75 -1.578125,5.421875 -1.578125,7.8125 0,1.78125 0.171875,4.796875 1.65625,8 1.1875,2.578125 3.21875,4.375 3.515625,4.375 0.125,0 0.171875,-0.046875 0.171875,-0.140625 z m 0,0"
   id="path5442" />
        </g>
      </g>
    </g>
    <g
   style="fill:#000000;fill-opacity:1"
   id="g55">
      <g
   id="use53"
   transform="translate(42.978001,18.568001)">
        <path
   style="stroke:none"
   d="m 4.765625,-6.1875 c 0,-0.71875 -0.609375,-1.328125 -1.328125,-1.328125 -0.71875,0 -1.3125,0.609375 -1.3125,1.328125 0,0.703125 0.59375,1.3125 1.3125,1.3125 0.71875,0 1.328125,-0.609375 1.328125,-1.3125 z m 0,0"
   id="path84" />
      </g>
    </g>
    <g
   clip-path="url(#clipPath142)"
   clip-rule="nonzero"
   id="g61">
      <g
   style="fill:#000000;fill-opacity:1"
   id="g59">
        <g
   id="use57"
   transform="translate(49.862999,18.568001)">
          <path
   style="stroke:none"
   d="m 6.515625,-6.171875 c 0,-1.78125 -0.171875,-4.8125 -1.65625,-8 C 3.671875,-16.75 1.640625,-18.5625 1.34375,-18.5625 c -0.078125,0 -0.171875,0.03125 -0.171875,0.15625 0,0.04687 0.015625,0.0625 0.046875,0.125 1.1875,1.234375 4.203125,4.375 4.203125,12.09375 0,7.71875 -3,10.875 -4.203125,12.109375 C 1.1875,5.96875 1.171875,6 1.171875,6.046875 c 0,0.125 0.09375,0.140625 0.171875,0.140625 0.265625,0 2.375,-1.828125 3.59375,-4.546875 1.234375,-2.75 1.578125,-5.4375 1.578125,-7.8125 z m 0,0"
   id="path88" />
        </g>
      </g>
    </g>
  </g>
</g><g
       inkscape:label=""
       transform="matrix(0.58543127,0,0,0.58543127,288.02589,284.78828)"
       id="g5793"><g
   id="g5791"
   transform="matrix(1.33333,0,0,1.33333,-2.22917,0)">
    <g
   clip-path="url(#clipPath525)"
   clip-rule="nonzero"
   id="g5789">
      <g
   style="fill:#000000;fill-opacity:1"
   id="g5787">
        <g
   id="g5785">
          <path
   style="stroke:none"
   d="M 12.578125,15.96875 1.96875,29.078125 C 1.734375,29.375 1.703125,29.4375 1.703125,29.5625 c 0,0.328125 0.265625,0.328125 0.8125,0.328125 h 24.78125 l 2.5625,-7.4375 h -0.75 c -0.75,2.234375 -2.75,4.0625 -5.28125,4.921875 -0.484375,0.15625 -2.546875,0.875 -6.9375,0.875 H 4.1875 l 10.375,-12.828125 c 0.203125,-0.265625 0.265625,-0.359375 0.265625,-0.484375 0,-0.109375 -0.03125,-0.140625 -0.21875,-0.40625 L 4.90625,1.203125 h 11.828125 c 3.40625,0 10.28125,0.203125 12.375,5.796875 h 0.75 l -2.5625,-7 H 2.515625 c -0.8125,0 -0.84375,0.03125 -0.84375,0.953125 z m 0,0"
   id="path5783" />
        </g>
      </g>
    </g>
  </g>
</g><g
       inkscape:label=""
       transform="matrix(0.6366623,0,0,0.6366623,221.84648,283.76753)"
       id="g6130"><g
   id="g6128"
   transform="matrix(1.33333,0,0,1.33333,-2.22917,0)">
    <g
   clip-path="url(#clipPath5584)"
   clip-rule="nonzero"
   id="g6126">
      <g
   style="fill:#000000;fill-opacity:1"
   id="g6124">
        <g
   id="g6122">
          <path
   style="stroke:none"
   d="M 10.734375,29.890625 V 28.6875 c -3.078125,0 -3.078125,-1.453125 -3.078125,-2.359375 v -25.125 h 12.875 v 25.125 c 0,0.90625 0,2.359375 -3.078125,2.359375 v 1.203125 h 9.0625 V 28.6875 C 23.4375,28.6875 23.4375,27.234375 23.4375,26.328125 V 3.5625 c 0,-0.90625 0,-2.359375 3.078125,-2.359375 V 0 H 1.671875 V 1.203125 C 4.75,1.203125 4.75,2.65625 4.75,3.5625 v 22.765625 c 0,0.90625 0,2.359375 -3.078125,2.359375 v 1.203125 z m 0,0"
   id="path6120" />
        </g>
      </g>
    </g>
  </g>
</g><g
       inkscape:label=""
       transform="matrix(1.2273192,0,0,1.2273192,279.95541,220.15763)"
       id="g6476"><g
   id="g6474"
   transform="matrix(1.33333,0,0,1.33333,-1.8125,-1.7995)">
    <g
   style="fill:#000000;fill-opacity:1"
   id="g14">
      <g
   id="use12"
   transform="translate(0,14.459)">
        <path
   style="stroke:none"
   d="m 11.21875,-11.546875 c 0,-0.796875 -0.65625,-1.5625 -1.578125,-1.5625 -0.9375,0 -1.59375,0.765625 -1.59375,1.5625 0,0.796875 0.671875,1.5625 1.59375,1.5625 0.9375,0 1.578125,-0.765625 1.578125,-1.5625 z m 0,10.703125 c 0,-0.796875 -0.65625,-1.5625 -1.578125,-1.5625 -0.9375,0 -1.59375,0.765625 -1.59375,1.5625 0,0.796875 0.671875,1.5625 1.59375,1.5625 0.9375,0 1.578125,-0.765625 1.578125,-1.5625 z M 2.234375,-6.6875 c -0.421875,0 -0.875,0 -0.875,0.5 0,0.484375 0.453125,0.484375 0.875,0.484375 h 14.8125 c 0.421875,0 0.875,0 0.875,-0.484375 0,-0.5 -0.453125,-0.5 -0.875,-0.5 z m 0,0"
   id="path21" />
      </g>
    </g>
  </g>
</g><g
       inkscape:label=""
       transform="matrix(1.2273192,0,0,1.2273192,258.80605,395.50129)"
       id="g6836"><g
   id="g6834"
   transform="matrix(1.33333,0,0,1.33333,-2.75,0.00216675)">
    <g
   clip-path="url(#clipPath8327)"
   clip-rule="nonzero"
   id="g6832">
      <g
   style="fill:#000000;fill-opacity:1"
   id="g6830">
        <g
   id="g6828"
   transform="translate(0,15.764)">
          <path
   style="stroke:none"
   d="m 16.734375,-14.71875 c 0.265625,-0.125 0.46875,-0.25 0.46875,-0.546875 0,-0.265625 -0.203125,-0.5 -0.5,-0.5 -0.125,0 -0.34375,0.109375 -0.453125,0.15625 l -13.703125,6.46875 c -0.421875,0.1875 -0.484375,0.375 -0.484375,0.5625 0,0.234375 0.140625,0.40625 0.484375,0.546875 L 16.25,-1.59375 c 0.328125,0.1875 0.375,0.1875 0.453125,0.1875 0.265625,0 0.5,-0.234375 0.5,-0.5 0,-0.21875 -0.109375,-0.375 -0.53125,-0.578125 L 3.71875,-8.578125 Z m -0.40625,18.109375 c 0.421875,0 0.875,0 0.875,-0.484375 0,-0.5 -0.53125,-0.5 -0.890625,-0.5 H 2.953125 c -0.375,0 -0.890625,0 -0.890625,0.5 0,0.484375 0.4375,0.484375 0.859375,0.484375 z m 0,0"
   id="path6826" />
        </g>
      </g>
    </g>
  </g>
</g><g
       inkscape:label=""
       transform="matrix(1.2273192,0,0,1.2273192,409.00299,93.750031)"
       id="g7203"><g
   id="g7201"
   transform="matrix(1.33333,0,0,1.33333,-1.02083,-0.0213331)">
    <g
   clip-path="url(#clipPath1664)"
   clip-rule="nonzero"
   id="g7199">
      <g
   style="fill:#000000;fill-opacity:1"
   id="g7197">
        <g
   id="g7195"
   transform="translate(0,11.016)">
          <path
   style="stroke:none"
   d="M 10.90625,-10.0625 C 11.125,-10.328125 11.125,-10.390625 11.125,-10.53125 11.125,-11 10.875,-11 10.40625,-11 H 1.4375 l -0.265625,4.265625 h 1.03125 C 2.359375,-9.09375 2.90625,-10.1875 5.65625,-10.1875 H 7.875 l -6.890625,9.203125 c -0.21875,0.265625 -0.21875,0.3125 -0.21875,0.484375 0,0.5 0.21875,0.5 0.71875,0.5 h 9.296875 l 0.421875,-4.90625 H 10.15625 c -0.1875,2.625 -0.734375,4.015625 -3.859375,4.015625 h -2.25 z m 0,0"
   id="path7193" />
        </g>
      </g>
    </g>
  </g>
</g><g
       inkscape:label=""
       transform="matrix(0.72171657,-0.75612217,0.50683043,0.48376828,341.90088,175.18128)"
       id="g7586"><g
   id="g7584"
   transform="matrix(1.33333,0,0,1.33333,-3.5,-0.00733439)">
    <g
   clip-path="url(#clipPath2844)"
   clip-rule="nonzero"
   id="g29">
      <g
   style="fill:#000000;fill-opacity:1"
   id="g27">
        <g
   id="use21"
   transform="translate(0,18.568001)">
          <path
   style="stroke:none"
   d="m 5.828125,6.171875 v -0.875 H 3.5 V -17.6875 h 2.328125 v -0.875 H 2.625 V 6.171875 Z m 0,0"
   id="path36" />
        </g>
        <g
   id="use23"
   transform="translate(6.1868601,18.568001)">
          <path
   style="stroke:none"
   d="m 6.59375,-15.828125 c 0,-0.53125 -0.03125,-0.546875 -0.375,-0.546875 -0.96875,1.15625 -2.421875,1.53125 -3.8125,1.578125 -0.078125,0 -0.203125,0 -0.21875,0.04687 -0.03125,0.0625 -0.03125,0.109375 -0.03125,0.625 0.765625,0 2.0625,-0.15625 3.046875,-0.75 v 13.0625 c 0,0.875 -0.046875,1.171875 -2.1875,1.171875 H 2.28125 V 0 c 1.1875,-0.03125 2.421875,-0.046875 3.609375,-0.046875 1.203125,0 2.4375,0.015625 3.625,0.046875 v -0.640625 h -0.75 c -2.125,0 -2.171875,-0.28125 -2.171875,-1.171875 z m 0,0"
   id="path40" />
        </g>
        <g
   id="use25"
   transform="translate(17.554224,18.568001)">
          <path
   style="stroke:none"
   d="M 3.546875,-18.5625 H 0.34375 v 0.875 H 2.671875 V 5.296875 H 0.34375 v 0.875 h 3.203125 z m 0,0"
   id="path44" />
        </g>
      </g>
    </g>
  </g>
</g></g></svg>
