<?xml version="1.0" encoding="utf-8"?>
<!-- Generator: Adobe Illustrator 21.0.0, SVG Export Plug-In . SVG Version: 6.00 Build 0)  -->
<svg version="1.1" id="Capa_1" xmlns="http://www.w3.org/2000/svg" xmlns:xlink="http://www.w3.org/1999/xlink" x="0px" y="0px"
	 viewBox="0 0 1446.1 510.1" style="enable-background:new 0 0 1446.1 510.1;" xml:space="preserve">
<style type="text/css">
	.st0{fill:#5D5D5D;}
	.st1{clip-path:url(#SVGID_2_);fill:url(#SVGID_3_);}
</style>
<g>
	<path class="st0" d="M532.6,369.8c-22.6,0-44.2-4.3-64.3-12.9c-20-8.6-37.7-20.5-52.4-35.4c-14.7-14.9-26.5-32.5-35.1-52.3
		c-8.6-19.9-12.9-41.4-12.9-64s4.3-44.2,12.9-64c8.5-19.8,20.3-37.4,35.1-52.3c14.7-14.9,32.3-26.8,52.4-35.4
		c20.1-8.6,41.7-12.9,64.3-12.9c25.7,0,49.9,5.7,71.9,16.8c21.9,11.1,40.6,26.1,55.6,44.6c5.1,7.6,7.4,14.7,7,21.6
		c0,10.5-4.3,20-12.5,27.8c-8.1,7.8-17.8,11.9-28.8,12.3c-11.5-0.4-20-3.7-25.3-9.8c-8-10.1-18-18.4-29.8-24.6
		c-11.6-6-24.4-9.1-38.1-9.1c-11.5,0-22.6,2.2-32.9,6.6c-10.4,4.4-19.5,10.6-27.2,18.3c-7.8,7.7-14,16.9-18.6,27.1
		c-4.5,10.1-6.8,20.9-6.8,32c0,11.9,2.2,23.2,6.6,33.7c4.4,10.5,10.6,19.7,18.3,27.4c7.8,7.7,16.9,13.9,27.2,18.3
		c10.3,4.4,21.5,6.6,33.4,6.6c13.7,0,26.5-3.1,38.1-9.1c11.8-6.1,21.8-14.3,29.6-24.4c6.8-6.4,15.1-9.6,25.7-9.6
		c11.4,0,21.2,4,29.1,11.9C663,267,667,276,667,285.7c0,9.1-2.3,16.7-6.9,22.6c-15.1,18.5-33.9,33.6-55.7,44.7
		C582.4,364.1,558.3,369.8,532.6,369.8"/>
	<path class="st0" d="M852.5,369.8c-22.6,0-44.2-4.3-64.3-12.9c-20-8.6-37.7-20.5-52.4-35.4c-14.7-14.9-26.5-32.5-35.1-52.3
		c-8.6-19.9-12.9-41.5-12.9-64c0-22.6,4.3-44.1,12.9-64c8.5-19.8,20.3-37.4,35.1-52.3c14.7-14.9,32.4-26.8,52.4-35.4
		c20.1-8.6,41.7-12.9,64.3-12.9c22.6,0,44.1,4.3,64,12.9c19.8,8.6,37.4,20.4,52.1,35.3c14.7,14.9,26.5,32.5,35,52.3
		c8.6,19.9,12.9,41.4,12.9,64c0,22.6-4.4,44.1-12.9,64c-8.5,19.8-20.3,37.4-35,52.3c-14.7,14.9-32.3,26.8-52.1,35.4
		C896.6,365.4,875.1,369.8,852.5,369.8 M852.5,120.1c-11.8,0-23.1,2.2-33.4,6.6c-10.4,4.4-19.5,10.6-27.2,18.3
		c-7.7,7.7-13.9,16.8-18.3,27c-4.4,10.1-6.6,21.3-6.6,33.1c0,11.9,2.2,23.1,6.6,33.4c4.4,10.3,10.6,19.5,18.3,27.2
		c7.7,7.7,16.9,13.9,27.2,18.3c10.3,4.4,21.5,6.6,33.4,6.6c11.8,0,23-2.2,33.1-6.6c10.2-4.4,19.2-10.6,27-18.3
		c7.7-7.7,13.9-16.9,18.3-27.2c4.4-10.3,6.6-21.5,6.6-33.4c0-11.8-2.2-23-6.6-33.1c-4.4-10.2-10.5-19.3-18.3-27
		c-7.7-7.7-16.8-13.9-27-18.3C875.4,122.3,864.3,120.1,852.5,120.1"/>
	<polygon class="st0" points="67.6,425.8 50.7,425.8 50.7,422.7 87.9,422.7 87.9,425.8 71,425.8 71,469.6 67.6,469.6 	"/>
	<polygon class="st0" points="135.4,466.5 135.4,469.6 103,469.6 103,422.7 134.4,422.7 134.4,425.8 106.4,425.8 106.4,444.2 
		131.4,444.2 131.4,447.3 106.4,447.3 106.4,466.5 	"/>
	<path class="st0" d="M149.7,446.1c0-13.7,10.4-23.8,24.3-23.8c6.6,0,12.6,2.1,16.7,6.5l-2.1,2.2c-4-4-8.9-5.6-14.4-5.6
		c-12,0-21,8.9-21,20.6c0,11.8,9,20.6,21,20.6c5.5,0,10.4-1.7,14.4-5.6l2.1,2.2c-4.1,4.4-10,6.6-16.7,6.6
		C160.1,469.9,149.7,459.8,149.7,446.1"/>
	<polygon class="st0" points="247,422.7 247,469.6 244.2,469.6 212.3,428.8 212.3,469.6 208.8,469.6 208.8,422.7 211.7,422.7 
		243.6,463.4 243.6,422.7 	"/>
	<path class="st0" d="M265.6,446.1c0-13.6,10.4-23.8,24.4-23.8c13.9,0,24.4,10.1,24.4,23.8c0,13.7-10.5,23.8-24.4,23.8
		C275.9,469.9,265.6,459.7,265.6,446.1 M310.9,446.1c0-11.9-9-20.6-20.9-20.6c-12,0-21,8.8-21,20.6c0,11.9,9,20.6,21,20.6
		C301.9,466.8,310.9,458,310.9,446.1"/>
	<polygon class="st0" points="332.8,422.7 336.3,422.7 336.3,466.5 363.3,466.5 363.3,469.6 332.8,469.6 	"/>
	<path class="st0" d="M373.3,446.1c0-13.6,10.4-23.8,24.4-23.8c13.9,0,24.4,10.1,24.4,23.8c0,13.7-10.5,23.8-24.4,23.8
		C383.7,469.9,373.3,459.7,373.3,446.1 M418.6,446.1c0-11.9-9-20.6-20.9-20.6c-12,0-21,8.8-21,20.6c0,11.9,9,20.6,21,20.6
		C409.6,466.8,418.6,458,418.6,446.1"/>
	<path class="st0" d="M474.1,446.3h3.3v17.6c-4.2,4-10.3,6-16.7,6c-14.1,0-24.5-10.1-24.5-23.8c0-13.7,10.4-23.8,24.6-23.8
		c6.8,0,12.7,2.1,16.9,6.4l-2.1,2.3c-4.1-4-9-5.6-14.7-5.6c-12.2,0-21.3,8.9-21.3,20.6c0,11.7,9.1,20.6,21.3,20.6
		c5,0,9.5-1.2,13.3-4.3V446.3z"/>
	<path class="st0" d="M506.2,410.9h4.8l-10.5,7.9h-3.6L506.2,410.9z M499,422.7h3.4v46.9H499V422.7z"/>
	<path class="st0" d="M554.5,456.4h-27.2l-6,13.2h-3.7l21.6-46.9h3.4l21.6,46.9h-3.7L554.5,456.4z M553.2,453.5l-12.3-27.1
		l-12.3,27.1H553.2z"/>
	<polygon class="st0" points="617.7,453.4 617.7,469.6 614.3,469.6 614.3,453.4 595.4,422.7 599.2,422.7 616.1,450.3 633.1,422.7 
		636.6,422.7 	"/>
	<path class="st0" d="M671.2,446.1c0-13.7,10.4-23.8,24.3-23.8c6.6,0,12.6,2.1,16.7,6.5l-2.1,2.2c-4-4-8.9-5.6-14.4-5.6
		c-12,0-21,8.9-21,20.6c0,11.8,9,20.6,21,20.6c5.5,0,10.4-1.7,14.4-5.6l2.1,2.2c-4.1,4.4-10,6.6-16.7,6.6
		C681.6,469.9,671.2,459.8,671.2,446.1"/>
	<path class="st0" d="M724.8,446.1c0-13.6,10.4-23.8,24.4-23.8c13.9,0,24.4,10.1,24.4,23.8c0,13.7-10.5,23.8-24.4,23.8
		C735.2,469.9,724.8,459.7,724.8,446.1 M770.1,446.1c0-11.9-9-20.6-20.9-20.6c-12,0-21,8.8-21,20.6c0,11.9,9,20.6,21,20.6
		C761.1,466.8,770.1,458,770.1,446.1"/>
	<polygon class="st0" points="836.5,469.6 836.4,429.4 816.8,463.3 815.1,463.3 795.4,429.6 795.4,469.6 792.1,469.6 792.1,422.7 
		795,422.7 816,458.9 836.9,422.7 839.7,422.7 839.8,469.6 	"/>
	<path class="st0" d="M862.4,449.7v-27h3.4v26.9c0,11.7,5.6,17.2,15.4,17.2c9.8,0,15.3-5.5,15.3-17.2v-26.9h3.4v27
		c0,13.4-7.2,20.2-18.8,20.2C869.5,469.9,862.4,463.1,862.4,449.7"/>
	<polygon class="st0" points="960.8,422.7 960.8,469.6 958,469.6 926,428.8 926,469.6 922.6,469.6 922.6,422.7 925.5,422.7 
		957.4,463.4 957.4,422.7 	"/>
	<rect x="983.8" y="422.7" class="st0" width="3.4" height="46.9"/>
	<path class="st0" d="M1005.7,446.1c0-13.7,10.4-23.8,24.3-23.8c6.6,0,12.6,2.1,16.7,6.5l-2.1,2.2c-4-4-8.9-5.6-14.4-5.6
		c-12,0-21,8.9-21,20.6c0,11.8,9,20.6,21,20.6c5.5,0,10.4-1.7,14.4-5.6l2.1,2.2c-4.1,4.4-10,6.6-16.7,6.6
		C1016.1,469.9,1005.7,459.8,1005.7,446.1"/>
	<path class="st0" d="M1092.6,456.4h-27.2l-6,13.2h-3.7l21.6-46.9h3.4l21.6,46.9h-3.7L1092.6,456.4z M1091.3,453.5l-12.3-27.1
		l-12.3,27.1H1091.3z"/>
	<path class="st0" d="M1112.3,446.1c0-13.7,10.4-23.8,24.3-23.8c6.6,0,12.6,2.1,16.7,6.5l-2.1,2.2c-4-4-8.9-5.6-14.4-5.6
		c-12,0-21.1,8.9-21.1,20.6c0,11.8,9,20.6,21.1,20.6c5.5,0,10.4-1.7,14.4-5.6l2.1,2.2c-4.1,4.4-10,6.6-16.7,6.6
		C1122.7,469.9,1112.3,459.8,1112.3,446.1"/>
	<rect x="1171.4" y="422.7" class="st0" width="3.4" height="46.9"/>
	<path class="st0" d="M1193.4,446.1c0-13.6,10.4-23.8,24.4-23.8c13.9,0,24.4,10.1,24.4,23.8c0,13.7-10.5,23.8-24.4,23.8
		C1203.8,469.9,1193.4,459.7,1193.4,446.1 M1238.7,446.1c0-11.9-9-20.6-20.9-20.6c-12,0-21,8.8-21,20.6c0,11.9,9,20.6,21,20.6
		C1229.7,466.8,1238.7,458,1238.7,446.1"/>
	<polygon class="st0" points="1298.9,422.7 1298.9,469.6 1296,469.6 1264.1,428.8 1264.1,469.6 1260.7,469.6 1260.7,422.7 
		1263.6,422.7 1295.4,463.4 1295.4,422.7 	"/>
	<polygon class="st0" points="1354.2,466.5 1354.2,469.6 1321.9,469.6 1321.9,422.7 1353.2,422.7 1353.2,425.8 1325.3,425.8 
		1325.3,444.2 1350.3,444.2 1350.3,447.3 1325.3,447.3 1325.3,466.5 	"/>
	<path class="st0" d="M1368.6,463.5l1.5-2.5c3.2,3.4,9.2,5.9,15.5,5.9c9.4,0,13.5-4.1,13.5-9.2c0-14.1-29.3-5.6-29.3-22.9
		c0-6.6,5.1-12.5,16.6-12.5c5.2,0,10.5,1.6,14.1,4.2l-1.3,2.8c-3.9-2.7-8.6-4-12.9-4c-9.1,0-13.2,4.2-13.2,9.4
		c0,14.1,29.3,5.8,29.3,22.8c0,6.6-5.3,12.4-16.9,12.4C1378.7,469.9,1372,467.3,1368.6,463.5"/>
	<path class="st0" d="M1217.5,177.4c6.3-16.3,32.8-86.3,40.1-105.6c7.3-19.5,25-31.3,46.1-30.9c19.9,0.4,36.7,12.9,43,32.5
		l64.3,234.3c4,14.4,2.7,28.4-5.3,41.1c-19.6,31.3-59.5,24.9-76.5-2.7c-4.6-7.4-35.2-120.5-35.9-122.9c-2.2,5.5-21.4,56-29.5,76.5
		c-5.4,13.8-13.5,25.5-27.4,32.1c-18.3,8.6-41.1,2.4-55.3-14.4c-8.9-10.5-39.5-92.8-40.6-95.3c-3.9,14.3-24,87.3-30.5,110.6
		c-5.6,19.9-22.3,34.6-40.9,36.6c-27.7,3.1-44.9-19-48-38.2c-1.3-8.3-0.6-16.3,1.6-24.3c14-50.8,55.6-206.9,64.4-233.6
		c6.4-19.4,22.3-31.8,41.8-32.8c20.2-1,37.3,9.2,45.3,28.4C1185.3,95.7,1217.5,177.4,1217.5,177.4"/>
	<g>
		<defs>
			<path id="SVGID_1_" d="M82.9,283.5c-22.4,0-40.7,17.2-40.7,39.6c0,22.4,18.3,39.6,40.7,39.6h231.4c22.4,0,40.7-17.2,40.7-39.6
				c0-22.4-18.3-39.6-40.7-39.6H82.9z M82.9,162.7c-22.4,0-40.7,17.2-40.7,39.6c0,22.4,18.3,39.6,40.7,39.6h178.7
				c22.4,0,40.7-17.2,40.7-39.6c0-22.4-18.3-39.6-40.7-39.6H82.9z M82.9,42c-22.4,0-40.7,18.2-40.7,40.6c0,22.4,18.3,40.6,40.7,40.6
				h231.4c22.4,0,40.7-18.2,40.7-40.6c0-22.4-18.3-40.6-40.7-40.6H82.9z"/>
		</defs>
		<clipPath id="SVGID_2_">
			<use xlink:href="#SVGID_1_"  style="overflow:visible;"/>
		</clipPath>
		
			<linearGradient id="SVGID_3_" gradientUnits="userSpaceOnUse" x1="-198.8437" y1="791.7839" x2="-195.8148" y2="791.7839" gradientTransform="matrix(102.2874 94.7662 94.7662 -102.2874 -54654.2695 99889.375)">
			<stop  offset="0" style="stop-color:#FD2D29"/>
			<stop  offset="0.5562" style="stop-color:#A52B50"/>
			<stop  offset="1" style="stop-color:#7C2A63"/>
		</linearGradient>
		<polygon class="st1" points="186.7,-114 515,190.1 210.6,518.7 -117.7,214.6 		"/>
	</g>
</g>
</svg>
