<?xml version='1.0' encoding='utf-8'?>
<svg xmlns="http://www.w3.org/2000/svg" xmlns:cc="http://creativecommons.org/ns#" xmlns:dc="http://purl.org/dc/elements/1.1/" xmlns:dcterms="http://purl.org/dc/terms/" xmlns:foaf="http://xmlns.com/foaf/0.1/" xmlns:owl="http://www.w3.org/2002/07/owl#" xmlns:rdf="http://www.w3.org/1999/02/22-rdf-syntax-ns#" viewBox="-2.216505 -2.216505 4.43301 4.43301" width="64" height="64">
  <metadata>
    <rdf:RDF>
      <rdf:Description rdf:about="http://github.com/innocampus/elva/logo/logo.svg">
        <dc:title>ELVA Logo</dc:title>
        <dc:type>Image</dc:type>
        <dc:format>image/svg+xml</dc:format>
        <dc:description xml:lang="en">Logo of the ELVA Project of Technische Universität Berlin</dc:description>
        <dc:relation rdf:resource="http://github.com/innocampus/elva/logo/breakdown.svg" />
        <dc:creator>Technische Universität Berlin</dc:creator>
        <dc:creator>ELVA Team</dc:creator>
        <dc:creator>Jakob Zahn</dc:creator>
      </rdf:Description>
      <cc:License rdf:about="http://creativecommons.org/licenses/by-nc-sa/4.0/">
        <cc:legalcode xml:lang="en">http://creativecommons.org/licenses/by-nc-sa/4.0/legalcode.en</cc:legalcode>
        <cc:licenseClass rdf:resource="http://creativecommons.org/license/" />
        <cc:permits rdf:resource="http://creativecommons.org/ns#DerivateWorks" />
        <cc:permits rdf:resource="http://creativecommons.org/ns#Distribution" />
        <cc:permits rdf:resource="http://creativecommons.org/ns#Reproduction" />
        <cc:prohibits rdf:resource="http://creativecommons.org/ns#CommercialUse" />
        <cc:requires rdf:resource="http://creativecommons.org/ns#Attribution" />
        <cc:requires rdf:resource="http://creativecommons.org/ns#Notice" />
        <cc:requires rdf:resource="http://creativecommons.org/ns#ShareAlike" />
        <dcterms:LicenseDocument xml:lang="en">http://creativecommons.org/licenses/by-nc-sa/4.0/legalcode.en</dcterms:LicenseDocument>
        <dcterms:creator rdf:resource="http://creativecommons.org" />
        <dcterms:hasVersion>4.0</dcterms:hasVersion>
        <dcterms:identifier>by-nc-sa</dcterms:identifier>
        <dcterms:source>http://creativecommons.org/licenses/by-nc-sa/3.0/</dcterms:source>
        <dcterms:title xml:lang="en">Attribution-NonCommercial-ShareAlike 4.0 International</dcterms:title>
        <foaf:logo rdf:resource="http://licensebuttons.net/l/by-nc-sa/4.0/80x15.png" />
        <foaf:logo rdf:resource="http://licensebuttons.net/l/by-nc-sa/4.0/88x31.png" />
        <owl:sameAs rdf:resource="http://creativecommons.org/licenses/by-nc-sa/4.0/" />
      </cc:License>
    </rdf:RDF>
  </metadata>
  <defs>
    <linearGradient gradientUnits="userSpaceOnUse" id="gradient" x1="-2.216505" y1="2.216505" x2="2.216505" y2="-2.216505">
      <stop offset="10%" stop-color="#00ffff" />
      <stop offset="90%" stop-color="#ff00ff" />
    </linearGradient>
    <mask id="inner">
      <rect x="-2.216505" y="-2.216505" width="4.43301" height="4.43301" fill="white" />
      <path d="M 0.21651 -1.625 Q 0.0 -1.75 -0.21651 -1.625 L -1.29904 -1.0 Q -1.51555 -0.875 -1.51555 -0.625 L -1.51555 0.375 Q -1.51555 0.625 -1.29904 0.5 L -1.29904 0.5 Q -1.08253 0.375 -1.08253 0.125 L -1.08253 -0.5 A 0.216505 0.216505 0 0 1 -0.64952 -0.5 L -0.64952 0.125 Q -0.64952 0.625 -1.08253 0.875 L -1.08254 0.875 Q -1.29904 1.0 -1.08254 1.125 L -0.43301 1.5 Q -0.21651 1.625 -0.21651 1.375 L -0.21651 1.0 A 0.216505 0.216505 0 0 1 0.2165 1.0 L 0.2165 1.375 Q 0.2165 1.625 0.43301 1.5 L 1.08254 1.125 Q 1.29904 1.0 1.08254 0.875 L 0.21651 0.375 Q -0.21651 0.125 -0.2165 -0.375 L -0.2165 -1.0 A 0.216505 0.216505 0 0 1 0.2165 -1.0 L 0.21651 -0.375 Q 0.2165 -0.125 0.43301 0.0 L 1.29904 0.5 Q 1.51555 0.625 1.51555 0.375 L 1.51555 0.375 Q 1.51555 0.125 1.29904 0.0 L 0.75777 -0.3125 A 0.216505 0.216505 0 0 1 0.97428 -0.6875 L 1.29904 -0.5 Q 1.51555 -0.375 1.51555 -0.625 L 1.51555 -0.625 Q 1.51555 -0.875 1.29904 -1.0 Z " fill="black" />
    </mask>
  </defs>
  <path mask="url(#inner)" d="M 0.43301 -2.0 Q 0.0 -2.25 -0.43301 -2.0 L -1.51555 -1.375 Q -1.94856 -1.125 -1.94856 -0.625 L -1.94856 0.625 Q -1.94856 1.125 -1.51555 1.375 L -0.43301 2.0 Q 0.0 2.25 0.43301 2.0 L 1.51555 1.375 Q 1.94856 1.125 1.94856 0.625 L 1.94856 -0.625 Q 1.94856 -1.125 1.51555 -1.375 Z " fill="url(#gradient)" />
</svg>