<svg width="41" height="37" viewBox="0 0 41 37" fill="none" xmlns="http://www.w3.org/2000/svg">
<path d="M30.3639 9.69519C31.9711 10.1004 33.6025 9.12596 34.0077 7.51873C34.4129 5.91149 33.4385 4.28008 31.8312 3.87487C30.224 3.46966 28.5926 4.4441 28.1874 6.05133C27.7822 7.65857 28.7566 9.28998 30.3639 9.69519Z" fill="white"/>
<path d="M26.5147 21.6115C29.0862 22.2598 31.6965 20.7007 32.3448 18.1291C32.9932 15.5576 31.4341 12.9473 28.8625 12.299C26.2909 11.6506 23.6807 13.2097 23.0323 15.7813C22.384 18.3529 23.9431 20.9631 26.5147 21.6115Z" fill="white"/>
<path d="M8.41274 8.81377C9.75156 9.1513 11.1105 8.33961 11.448 7.00079C11.7856 5.66197 10.9739 4.30301 9.63507 3.96548C8.29625 3.62794 6.9373 4.43964 6.59976 5.77846C6.26222 7.11727 7.07392 8.47623 8.41274 8.81377Z" fill="white"/>
<path d="M23.6895 29.5216C25.6182 30.0079 27.5759 28.8385 28.0622 26.9099C28.5484 24.9812 27.3791 23.0235 25.4504 22.5372C23.5217 22.051 21.564 23.2203 21.0778 25.149C20.5915 27.0777 21.7609 29.0354 23.6895 29.5216Z" fill="white"/>
<path d="M4.19329 19.2758C6.12197 19.762 8.07966 18.5927 8.56592 16.664C9.05217 14.7353 7.88285 12.7776 5.95416 12.2914C4.02548 11.8051 2.06779 12.9745 1.58154 14.9031C1.09529 16.8318 2.26461 18.7895 4.19329 19.2758Z" fill="white"/>
<path d="M17.947 11.8512C20.84 12.5806 23.7766 10.8266 24.5059 7.93361C25.2353 5.04059 23.4813 2.10405 20.5883 1.37467C17.6953 0.645296 14.7588 2.39928 14.0294 5.2923C13.3 8.18532 15.054 11.1219 17.947 11.8512Z" fill="white"/>
<path d="M11.4761 33.4955C15.012 34.387 18.6011 32.2433 19.4925 28.7073C20.384 25.1714 18.2402 21.5823 14.7043 20.6909C11.1684 19.7994 7.57931 21.9432 6.68785 25.4791C5.79639 29.015 7.94014 32.6041 11.4761 33.4955Z" fill="white"/>
<path d="M39.8813 33.5567L37.6176 35.8204L29.602 27.8038L31.8647 25.5411L39.8813 33.5567Z" fill="white"/>
<path d="M17.8334 18.8207C19.4406 19.2259 21.072 18.2515 21.4772 16.6442C21.8825 15.037 20.908 13.4056 19.3008 13.0004C17.6935 12.5952 16.0621 13.5696 15.6569 15.1768C15.2517 16.7841 16.2262 18.4155 17.8334 18.8207Z" fill="white"/>
<path d="M26.5147 21.6115C29.0862 22.2598 31.6965 20.7007 32.3448 18.1291C32.9932 15.5576 31.4341 12.9473 28.8625 12.299C26.2909 11.6506 23.6807 13.2097 23.0323 15.7813C22.384 18.3529 23.9431 20.9631 26.5147 21.6115Z" fill="white"/>
<path d="M23.6895 29.5216C25.6182 30.0079 27.5759 28.8385 28.0622 26.9099C28.5484 24.9812 27.3791 23.0235 25.4504 22.5372C23.5217 22.051 21.564 23.2203 21.0778 25.149C20.5915 27.0777 21.7609 29.0354 23.6895 29.5216Z" fill="white"/>
<path d="M17.947 11.8512C20.84 12.5806 23.7766 10.8266 24.5059 7.93361C25.2353 5.04059 23.4813 2.10405 20.5883 1.37467C17.6953 0.645296 14.7588 2.39928 14.0294 5.2923C13.3 8.18532 15.054 11.1219 17.947 11.8512Z" fill="white"/>
<path d="M11.4761 33.4955C15.012 34.387 18.6011 32.2433 19.4925 28.7073C20.384 25.1714 18.2402 21.5823 14.7043 20.6909C11.1684 19.7994 7.57931 21.9432 6.68785 25.4791C5.79639 29.015 7.94014 32.6041 11.4761 33.4955Z" fill="white"/>
<path d="M19.9981 22.9391C20.8014 23.1416 21.6168 22.6546 21.8193 21.8513C22.0218 21.048 21.5348 20.2326 20.7315 20.0301C19.9282 19.8276 19.1129 20.3146 18.9103 21.1179C18.7078 21.9212 19.1948 22.7365 19.9981 22.9391Z" fill="white"/>
<path d="M33.5142 18.9346C33.5142 13.1255 28.8048 8.41618 22.9956 8.41608C17.1864 8.41608 12.4771 13.1254 12.4771 18.9346C12.4772 24.7438 17.1865 29.4532 22.9956 29.4532V32.6534L22.6411 32.6485C15.3459 32.4636 9.46641 26.5835 9.28177 19.2881L9.27688 18.9346C9.27688 11.3581 15.4191 5.21588 22.9956 5.21588L23.3491 5.22077C30.7622 5.40839 36.7144 11.4763 36.7144 18.9346L36.7095 19.2881C36.5219 26.7012 30.4538 32.6533 22.9956 32.6534V29.4532C28.8047 29.4531 33.5141 24.7437 33.5142 18.9346Z" fill="white"/>
<path d="M22.9956 29.4532C17.1865 29.4532 12.4772 24.7438 12.4771 18.9346C12.4771 13.1254 17.1864 8.41608 22.9956 8.41608C28.8048 8.41618 33.5142 13.1255 33.5142 18.9346C33.5141 24.7437 28.8047 29.4531 22.9956 29.4532ZM22.9956 29.4532V32.6534M22.9956 32.6534L22.6411 32.6485C15.3459 32.4636 9.46641 26.5835 9.28177 19.2881L9.27688 18.9346C9.27688 11.3581 15.4191 5.21588 22.9956 5.21588L23.3491 5.22077C30.7622 5.40839 36.7144 11.4763 36.7144 18.9346L36.7095 19.2881C36.5219 26.7012 30.4538 32.6533 22.9956 32.6534ZM30.3639 9.69519C31.9711 10.1004 33.6025 9.12596 34.0077 7.51873C34.4129 5.91149 33.4385 4.28008 31.8312 3.87487C30.224 3.46966 28.5926 4.4441 28.1874 6.05133C27.7822 7.65857 28.7566 9.28998 30.3639 9.69519ZM26.5147 21.6115C29.0862 22.2598 31.6965 20.7007 32.3448 18.1291C32.9932 15.5576 31.4341 12.9473 28.8625 12.299C26.2909 11.6506 23.6807 13.2097 23.0323 15.7813C22.384 18.3529 23.9431 20.9631 26.5147 21.6115ZM8.41274 8.81377C9.75156 9.1513 11.1105 8.33961 11.448 7.00079C11.7856 5.66197 10.9739 4.30301 9.63507 3.96548C8.29625 3.62794 6.9373 4.43964 6.59976 5.77846C6.26222 7.11727 7.07392 8.47623 8.41274 8.81377ZM23.6895 29.5216C25.6182 30.0079 27.5759 28.8385 28.0622 26.9099C28.5484 24.9812 27.3791 23.0235 25.4504 22.5372C23.5217 22.051 21.564 23.2203 21.0778 25.149C20.5915 27.0777 21.7609 29.0354 23.6895 29.5216ZM4.19329 19.2758C6.12197 19.762 8.07966 18.5927 8.56592 16.664C9.05217 14.7353 7.88285 12.7776 5.95416 12.2914C4.02548 11.8051 2.06779 12.9745 1.58154 14.9031C1.09529 16.8318 2.26461 18.7895 4.19329 19.2758ZM17.947 11.8512C20.84 12.5806 23.7766 10.8266 24.5059 7.93361C25.2353 5.04059 23.4813 2.10405 20.5883 1.37467C17.6953 0.645296 14.7588 2.39928 14.0294 5.2923C13.3 8.18532 15.054 11.1219 17.947 11.8512ZM11.4761 33.4955C15.012 34.387 18.6011 32.2433 19.4925 28.7073C20.384 25.1714 18.2402 21.5823 14.7043 20.6909C11.1684 19.7994 7.57931 21.9432 6.68785 25.4791C5.79639 29.015 7.94014 32.6041 11.4761 33.4955ZM39.8813 33.5567L37.6176 35.8204L29.602 27.8038L31.8647 25.5411L39.8813 33.5567ZM17.8334 18.8207C19.4406 19.2259 21.072 18.2515 21.4772 16.6442C21.8825 15.037 20.908 13.4056 19.3008 13.0004C17.6935 12.5952 16.0621 13.5696 15.6569 15.1768C15.2517 16.7841 16.2262 18.4155 17.8334 18.8207ZM19.9981 22.9391C20.8014 23.1416 21.6168 22.6546 21.8193 21.8513C22.0218 21.048 21.5348 20.2326 20.7315 20.0301C19.9282 19.8276 19.1129 20.3146 18.9103 21.1179C18.7078 21.9212 19.1948 22.7365 19.9981 22.9391Z" stroke="white"/>
<circle cx="3.00122" cy="3.00122" r="3.00122" transform="matrix(-0.244466 0.969658 0.969658 0.244466 28.9211 3.14111)" fill="#D9D9D9"/>
<circle cx="4.80195" cy="4.80195" r="4.80195" transform="matrix(-0.244466 0.969658 0.969658 0.244466 24.2062 11.125)" fill="#D9D9D9"/>
<circle cx="2.5" cy="2.5" r="2.5" transform="matrix(-0.244466 0.969658 0.969658 0.244466 7.21092 3.35425)" fill="#D9D9D9"/>
<circle cx="3.60146" cy="3.60146" r="3.60146" transform="matrix(-0.244466 0.969658 0.969658 0.244466 21.9582 21.6567)" fill="#D9D9D9"/>
<circle cx="3.60146" cy="3.60146" r="3.60146" transform="matrix(-0.244466 0.969658 0.969658 0.244466 2.46198 11.4109)" fill="#D9D9D9"/>
<circle cx="5.4022" cy="5.4022" r="5.4022" transform="matrix(-0.244466 0.969658 0.969658 0.244466 15.35 0.0539551)" fill="#D9D9D9"/>
<circle cx="6.60269" cy="6.60269" r="6.60269" transform="matrix(-0.244466 0.969658 0.969658 0.244466 8.30198 19.0767)" fill="#D9D9D9"/>
<path d="M39.8813 33.5566L37.6176 35.8203L29.602 27.8037L31.8647 25.541L39.8813 33.5566Z" fill="#122C41"/>
<mask id="mask0_168_138" style="mask-type:alpha" maskUnits="userSpaceOnUse" x="9" y="5" width="28" height="28">
<circle cx="23.0616" cy="18.9344" r="13.7186" fill="#D9D9D9"/>
</mask>
<g mask="url(#mask0_168_138)">
<circle cx="3.00122" cy="3.00122" r="3.00122" transform="matrix(-0.244466 0.969658 0.969658 0.244466 16.3906 12.2666)" fill="#52B791"/>
<circle cx="4.80195" cy="4.80195" r="4.80195" transform="matrix(-0.244466 0.969658 0.969658 0.244466 24.2062 11.125)" fill="#FCC700"/>
<circle cx="3.60146" cy="3.60146" r="3.60146" transform="matrix(-0.244466 0.969658 0.969658 0.244466 21.9582 21.6567)" fill="#C220C5"/>
<circle cx="5.4022" cy="5.4022" r="5.4022" transform="matrix(-0.244466 0.969658 0.969658 0.244466 15.35 0.0537109)" fill="#F49832"/>
<circle cx="6.60269" cy="6.60269" r="6.60269" transform="matrix(-0.244466 0.969658 0.969658 0.244466 8.30191 19.0764)" fill="#0094FF"/>
<path d="M19.9981 22.939C20.8014 23.1415 21.6168 22.6545 21.8193 21.8512C22.0218 21.0479 21.5348 20.2326 20.7315 20.03C19.9282 19.8275 19.1129 20.3145 18.9103 21.1178C18.7078 21.9211 19.1948 22.7365 19.9981 22.939Z" fill="#E240DD"/>
<circle cx="22.9954" cy="18.9344" r="12.1186" stroke="#122C41" stroke-width="3.2"/>
</g>
</svg>
