<?xml version="1.0" encoding="UTF-8" standalone="no"?>
<!-- Copyright to innoCampus, Technische Universität Berlin. All rights reserved. -->
<svg
   version="1.0"
   width="16"
   height="16"
   viewBox="0 0 12 12"
   preserveAspectRatio="xMidYMid"
   id="svg14"
   xmlns="http://www.w3.org/2000/svg"
   xmlns:svg="http://www.w3.org/2000/svg">
  <defs
     id="defs14" />
  <metadata
     id="metadata1">
Created by potrace 1.16, written by Peter Selinger 2001-2019
</metadata>
  <g
     transform="matrix(0.1,0,0,-0.1,0,500)"
     fill="currentColor"
     stroke="none"
     id="g14">
    <g
       id="g15"
       transform="matrix(0.0429674,0,0,0.0429674,-151.29618,4785.2112)"
       style="stroke-width:23.2734">
      <path
         d="m 4680,4985 c -109,-20 -235,-59 -324,-99 l -78,-36 50,-39 c 61,-48 126,-144 149,-219 9,-31 18,-59 19,-61 2,-2 36,8 76,22 174,60 376,77 538,44 356,-72 642,-321 762,-662 14,-38 28,-82 32,-97 l 6,-28 h -204 -205 l -38,72 c -106,203 -310,329 -533,331 -151,2 -268,-37 -387,-127 -268,-203 -312,-608 -94,-870 83,-100 204,-176 331,-207 30,-7 98,-13 151,-12 169,2 316,68 436,196 32,35 75,95 96,135 l 38,72 h 400 c 371,0 400,1 407,18 4,9 6,94 6,187 -1,190 -19,303 -75,462 -172,486 -587,835 -1094,918 -112,19 -363,18 -465,0 z"
         id="path1"
         style="stroke-width:23.2734" />
      <path
         d="m 3973,4739 c -63,-12 -113,-38 -158,-84 -57,-56 -78,-107 -83,-192 -5,-91 16,-156 69,-217 144,-164 409,-122 501,79 30,67 31,171 1,236 -59,130 -196,204 -330,178 z"
         id="path2"
         style="stroke-width:23.2734" />
      <path
         d="m 3610,4103 c -110,-290 -118,-627 -23,-928 125,-395 449,-734 842,-882 142,-53 256,-74 437,-80 188,-6 305,7 452,52 410,123 742,427 901,825 16,41 33,87 36,103 l 7,27 h -204 -204 l -28,-57 c -183,-374 -594,-605 -1003,-563 -244,25 -448,122 -618,294 -132,133 -217,281 -267,463 -18,64 -21,107 -22,243 0,166 2,182 50,347 5,18 1,23 -22,28 -110,25 -187,66 -259,140 -24,25 -46,45 -48,45 -3,0 -15,-26 -27,-57 z"
         id="path3"
         style="stroke-width:23.2734" />
    </g>
  </g>
</svg>
