<?xml version="1.0" encoding="utf-8"?>
<!-- Generator: Adobe Illustrator 15.0.2, SVG Export Plug-In . SVG Version: 6.00 Build 0)  -->
<!DOCTYPE svg PUBLIC "-//W3C//DTD SVG 1.1//EN" "http://www.w3.org/Graphics/SVG/1.1/DTD/svg11.dtd">
<svg version="1.1" id="Layer_1" xmlns="http://www.w3.org/2000/svg" xmlns:xlink="http://www.w3.org/1999/xlink" x="0px" y="0px"
	 width="480.51px" height="384.13px" viewBox="0 0 480.51 384.13" enable-background="new 0 0 480.51 384.13" xml:space="preserve">
<g>
	<path fill="#00A651" d="M291.991,50h-114.3c-5.737,0-10.39,4.652-10.39,10.391v10.77v59.321
		c8.971-6.824,20.198-16.369,40.451-11.371c17.453,4.308,21.257,17.761,48.864,33.044c16.899,9.356,32.755,2.136,45.767-5.422
		V71.158V60.391C302.382,54.652,297.728,50,291.991,50"/>
	<path fill="#0061AA" d="M265.541,183.425c-5.697-0.695-10.126-2.664-14.476-5.487c-9.67-5.971-18.945-15.733-38.668-25.971
		c-15.711-7.634-31.037-1.814-45.08,6.191c-0.005,0.003-0.01,0.005-0.016,0.008v28.542v50.044c0,5.737,4.653,10.39,10.39,10.39
		h114.3c5.738,0,10.392-4.652,10.392-10.39v-50.04v-14.028C290.183,179.677,278.47,185.358,265.541,183.425"/>
	<path fill="#FFFFFF" d="M256.616,152.155c-27.607-15.284-31.411-28.736-48.864-33.044c-20.253-4.998-31.48,4.546-40.451,11.371
		l0.02,14.14l-0.004,13.536c14.043-8.006,29.576-14.238,45.08-6.191c19.723,10.238,28.997,19.999,38.668,25.971
		c4.402,2.718,8.887,4.651,14.476,5.487c12.929,1.932,24.643-3.749,36.842-10.742l-0.032-12.504l0.032-13.446
		C289.371,154.292,273.515,161.511,256.616,152.155"/>
	<path d="M49.998,269.605h7.304v62.784h-7.304V269.605z M80.885,269.605h9.24l-24.287,29.471l24.111,33.313h-9.24l-23.054-33.222
		L80.885,269.605z"/>
	<path d="M96.645,291.755c5.808-4.028,12.056-6.134,18.392-6.134c6.072,0,10.296,2.472,12.143,7.14
		c0.968,2.471,1.056,5.948,0.968,10.067l-0.351,15.011c-0.176,7.412,0.263,9.334,3.519,11.166l-3.519,5.125
		c-2.993-1.008-5.193-3.479-5.984-6.683c-4.224,4.393-7.656,6.133-12.672,6.133c-10.824,0-14.08-6.865-14.08-12.996
		c0-10.343,8.536-16.383,23.232-16.383c1.847,0,3.08,0.092,3.08,0.092v-3.204c0-4.026-0.176-5.675-1.408-7.139
		c-1.409-1.647-3.168-2.472-5.896-2.472c-4.928,0-11.176,2.746-13.992,5.401L96.645,291.755z M121.197,309.234
		c-1.145-0.092-2.2-0.184-3.433-0.184c-11.087,0-15.046,3.936-15.046,10.892c0,5.399,2.551,8.329,7.567,8.329
		c4.488,0,8.624-2.838,10.647-7.139L121.197,309.234z"/>
	<path d="M142.228,287.544l6.864-1.923c0,0,1.672,3.569,1.408,7.414c3.168-4.668,7.832-7.596,12.32-7.596
		c1.143,0,2.376,0.457,2.376,0.457l-2.817,7.779c-0.439-0.184-1.231-0.366-1.935-0.366c-2.64,0-5.28,1.19-7.304,3.295
		s-2.552,3.478-2.552,7.23v28.555h-6.864v-35.145C143.724,290.564,142.228,287.544,142.228,287.544"/>
	<path d="M194.759,286.812l-2.111,5.399h-9.153v29.379c0,5.033,1.321,6.773,5.632,6.773c1.937,0,3.08-0.275,4.313-0.916l0.967,4.576
		c-2.2,1.189-4.664,1.83-7.744,1.83c-2.287,0-4.048-0.457-5.719-1.281c-3.081-1.556-4.224-4.484-4.224-9.061v-31.301H171v-5.399
		h5.72c0-4.394,0.704-11.532,0.704-11.532l7.216-1.646c0,0-0.88,7.139-0.88,13.179H194.759z"/>
	<path d="M198.28,287.178l7.039-1.557l10.208,31.393c1.232,3.752,2.112,7.779,2.112,7.779h0.176c0,0,0.704-3.568,2.111-7.688
		l10.033-30.294h7.303l-16.455,46.036h-6.776L198.28,287.178z"/>
	<path d="M274.58,323.146l2.64,4.576c-3.872,3.66-9.151,5.674-14.783,5.674c-12.145,0-19.448-9.152-19.448-24.254
		c0-7.688,1.584-12.63,5.28-17.205c3.52-4.303,7.833-6.317,13.112-6.317c4.752,0,8.888,1.741,11.88,4.944
		c3.784,4.026,4.84,8.328,5.016,19.219v1.008h-27.367v1.098c0,4.302,0.528,7.596,2.024,9.977c2.464,3.935,6.512,5.582,10.912,5.582
		C268.068,327.447,271.5,326.074,274.58,323.146 M250.908,305.391h20.063c-0.088-4.942-0.704-7.963-2.023-10.159
		c-1.496-2.471-4.576-4.026-7.92-4.026C254.78,291.205,251.261,295.964,250.908,305.391"/>
	<path d="M290.067,287.544l6.864-1.923c0,0,1.672,3.569,1.408,7.414c3.168-4.668,7.831-7.596,12.319-7.596
		c1.144,0,2.376,0.457,2.376,0.457l-2.816,7.779c-0.439-0.184-1.231-0.366-1.936-0.366c-2.64,0-5.28,1.19-7.304,3.295
		c-2.024,2.104-2.552,3.478-2.552,7.23v28.555h-6.864v-35.145C291.563,290.564,290.067,287.544,290.067,287.544"/>
	<path d="M320.603,266.859l6.863-1.373c0,0,1.145,3.845,1.145,10.801v56.103h-6.864v-56.194
		C321.747,270.246,320.603,266.859,320.603,266.859 M345.594,286.812h8.623L336.97,306.58l21.207,25.81h-9.151l-20.151-25.81
		L345.594,286.812z"/>
	<path d="M394.787,323.146l2.64,4.576c-3.873,3.66-9.151,5.674-14.783,5.674c-12.145,0-19.448-9.152-19.448-24.254
		c0-7.688,1.584-12.63,5.28-17.205c3.52-4.303,7.832-6.317,13.111-6.317c4.752,0,8.888,1.741,11.88,4.944
		c3.784,4.026,4.84,8.328,5.016,19.219v1.008h-27.367v1.098c0,4.302,0.528,7.596,2.024,9.977c2.464,3.935,6.512,5.582,10.911,5.582
		C388.275,327.447,391.707,326.074,394.787,323.146 M371.115,305.391h20.063c-0.088-4.942-0.704-7.963-2.023-10.159
		c-1.496-2.471-4.576-4.026-7.92-4.026C374.987,291.205,371.467,295.964,371.115,305.391"/>
	<path d="M430.512,286.812l-2.111,5.399h-9.152v29.379c0,5.033,1.32,6.773,5.632,6.773c1.937,0,3.08-0.275,4.312-0.916l0.968,4.576
		c-2.2,1.189-4.664,1.83-7.744,1.83c-2.287,0-4.049-0.457-5.72-1.281c-3.081-1.556-4.224-4.484-4.224-9.061v-31.301h-5.72v-5.399
		h5.72c0-4.394,0.704-11.532,0.704-11.532l7.216-1.646c0,0-0.88,7.139-0.88,13.179H430.512z"/>
</g>
</svg>
