<?xml version="1.0" encoding="UTF-8" standalone="no"?>
<!-- Created with Inkscape (http://www.inkscape.org/) -->

<svg
   width="69.767998mm"
   height="16.077097mm"
   viewBox="0 0 69.767998 16.077097"
   version="1.1"
   id="svg5"
   xml:space="preserve"
   sodipodi:docname="scmorph_logo.svg"
   inkscape:version="1.2.1 (9c6d41e, 2022-07-14)"
   inkscape:export-filename="scmorph_logo.svg"
   inkscape:export-xdpi="96"
   inkscape:export-ydpi="96"
   xmlns:inkscape="http://www.inkscape.org/namespaces/inkscape"
   xmlns:sodipodi="http://sodipodi.sourceforge.net/DTD/sodipodi-0.dtd"
   xmlns="http://www.w3.org/2000/svg"
   xmlns:svg="http://www.w3.org/2000/svg"><sodipodi:namedview
     id="namedview7"
     pagecolor="#ffffff"
     bordercolor="#000000"
     borderopacity="0.25"
     inkscape:showpageshadow="2"
     inkscape:pageopacity="0.0"
     inkscape:pagecheckerboard="0"
     inkscape:deskcolor="#d1d1d1"
     inkscape:document-units="mm"
     showgrid="false"
     inkscape:zoom="2.2548587"
     inkscape:cx="159.87698"
     inkscape:cy="-25.722233"
     inkscape:window-width="1512"
     inkscape:window-height="916"
     inkscape:window-x="0"
     inkscape:window-y="38"
     inkscape:window-maximized="1"
     inkscape:current-layer="g621" /><defs
     id="defs2"><rect
       x="107.11483"
       y="149.74216"
       width="412.06418"
       height="136.62605"
       id="rect113" /></defs><g
     id="g621"
     transform="translate(-29.179597,-50.650207)"><text
       xml:space="preserve"
       transform="matrix(0.26458333,0,0,0.26458333,15.760954,19.375852)"
       id="text111"
       style="line-height:0;letter-spacing:0px;word-spacing:27px;white-space:pre;shape-inside:url(#rect113);fill:#000000"><tspan
         x="107.11523"
         y="162.12127"
         id="tspan2625"><tspan
           dx="0 0 0 -26.999996 27"
           style="font-size:42.6667px;font-family:Comfortaa;-inkscape-font-specification:'Comfortaa, Normal'"
           id="tspan2623">scm rph</tspan></tspan></text><g
       id="g2331"><g
         id="g373"
         transform="matrix(2.7777777e-5,0,0,2.7777779e-5,36.231381,58.965151)"
         style="fill:#dae3f3;fill-opacity:1"><path
           d="M 3619.805,72624.01 C 18240.17,21870.13 93884.69,-11119.9 144102.5,3471.845 194320.3,18063.59 270600.4,95463.25 255980.1,146217.1 241359.7,196971 120582.8,272467.4 70364.97,257875.7 20147.18,243283.9 -11000.56,123377.9 3619.805,72624.01 Z"
           style="fill:#dae3f3;stroke:#000000;stroke-width:12700;stroke-linecap:butt;stroke-linejoin:miter;stroke-miterlimit:8;stroke-dasharray:none;stroke-opacity:1;fill-opacity:1"
           id="path375" /></g><g
         id="g379"
         transform="matrix(2.7777777e-5,0,0,2.7777779e-5,33.496489,50.826867)"
         style="fill:#dae3f3;fill-opacity:1"><path
           d="M 44182.58,48356.81 C 72904.39,26746.67 94924.45,1294.718 144708.9,334.2672 194493.4,-626.1837 277786.6,-2547.085 293104.9,43554.55 308423.2,89656.2 257681.3,202989.4 221300.4,230842.5 c -36381,27853 -70847.1,-40339 -110100.3,-48022.6 C 71947,175136.3 47054.76,207311.4 25034.71,192424.4 3014.659,177537.5 -2729.702,137198.5 1099.872,108385 4929.446,79571.46 15460.78,69966.95 44182.58,48356.81 Z"
           style="fill:#dae3f3;stroke:#000000;stroke-width:12700;stroke-linecap:butt;stroke-linejoin:miter;stroke-miterlimit:8;stroke-dasharray:none;stroke-opacity:1;fill-opacity:1"
           id="path381" /></g><g
         id="g385"
         transform="matrix(7.1894167e-6,2.6831273e-5,-2.6831271e-5,7.1894171e-6,33.704934,56.185585)"
         style="fill:#dae3f3;fill-opacity:1"><path
           d="M 294512,46424.95 C 240565.7,33706.06 157425.1,-9538.167 98401.54,1908.835 39378.01,13355.84 -1240.339,66139.23 28.98455,103660 1298.308,141180.7 67303.12,184424.9 104748.2,189512.5 c 37445,5087.5 41253,-46424 81871.3,-60414.8 40618.4,-13990.7 84410,3179.8 120585.7,-9539.1 36175.7,-12718.9 62831.5,-39428.58 60292.9,-54055.31 C 364959.4,50876.57 348458.2,59143.84 294512,46424.95 Z"
           style="fill:#dae3f3;stroke:#000000;stroke-width:12700;stroke-linecap:butt;stroke-linejoin:miter;stroke-miterlimit:8;stroke-dasharray:none;stroke-opacity:1;fill-opacity:1"
           id="path387" /></g><g
         id="g391"
         transform="matrix(2.6418235e-5,8.5838066e-6,-8.5838061e-6,2.6418237e-5,39.027251,61.27715)"
         style="fill:#b4c7e7;fill-opacity:1"><path
           d="M 43099.8,17248.35 C 29192.13,29601.16 5758.681,42919.04 1186.299,62027.29 -3386.083,81135.55 5758.681,108157.3 20047.37,113175.7 34336.07,118194 57388.49,105841.2 72629.76,87504.97 87871.03,69168.77 96253.73,39058.78 95872.7,21494.63 95491.66,3930.468 81012.46,842.2649 70534.09,70.21407 60055.71,-701.8368 57007.46,4895.532 43099.8,17248.35 Z"
           style="fill:#b4c7e7;stroke:#000000;stroke-width:12700;stroke-linecap:butt;stroke-linejoin:miter;stroke-miterlimit:8;stroke-dasharray:none;stroke-opacity:1;fill-opacity:1"
           id="path393" /></g><g
         id="g397"
         transform="matrix(3.8659186e-6,-2.7507445e-5,2.7507444e-5,3.8659188e-6,37.392359,54.217767)"
         style="fill:#b4c7e7;fill-opacity:1"><path
           d="M 43099.8,17248.35 C 29192.13,29601.16 5758.681,42919.04 1186.299,62027.29 -3386.083,81135.55 5758.681,108157.3 20047.37,113175.7 34336.07,118194 57388.49,105841.2 72629.76,87504.97 87871.03,69168.77 96253.73,39058.78 95872.7,21494.62 95491.66,3930.468 81012.46,842.2649 70534.09,70.21407 60055.71,-701.8368 57007.46,4895.532 43099.8,17248.35 Z"
           style="fill:#b4c7e7;stroke:#000000;stroke-width:12700;stroke-linecap:butt;stroke-linejoin:miter;stroke-miterlimit:8;stroke-dasharray:none;stroke-opacity:1;fill-opacity:1"
           id="path399" /></g><g
         id="g409"
         transform="matrix(2.6564021e-5,-8.1214349e-6,8.1214344e-6,2.6564022e-5,30.841964,58.240127)"
         style="fill:#b4c7e7;fill-opacity:1"><path
           d="M 15018.11,11.99709 C 6159.311,-622.8491 -2066.722,24771 464.3648,43181.54 2995.452,61592.08 17549.2,90160.16 26408.01,90795 35266.81,91429.85 47922.25,63496.62 45391.16,45086.08 42860.07,26675.54 23876.92,646.8433 15018.11,11.99709 Z"
           style="fill:#b4c7e7;stroke:#000000;stroke-width:12700;stroke-linecap:butt;stroke-linejoin:miter;stroke-miterlimit:8;stroke-dasharray:none;stroke-opacity:1;fill-opacity:1"
           id="path411" /></g></g><g
       id="g415"
       transform="matrix(2.7267417e-5,-5.3002498e-6,5.3002495e-6,2.7267419e-5,67.430806,55.277653)"
       style="fill:#dae3f3;fill-opacity:1"><path
         d="M 229364.2,364830.8 C 174969.9,378827.9 94155.42,360165.2 49085.84,330615.9 4016.247,301066.7 -5308.495,282404 2462.124,220195.1 10232.74,157986.2 30436.35,56896.68 89493.05,21126.54 148549.8,-14643.59 254230.2,-3757.027 299299.8,44454.89 c 45069.5,48211.91 32636.5,152411.91 18649.4,216176.01 -13987.1,63764.2 -34190.7,90202.9 -88585,104199.9 z"
         style="fill:#dae3f3;stroke:#000000;stroke-width:12700;stroke-linecap:butt;stroke-linejoin:miter;stroke-miterlimit:8;stroke-dasharray:none;stroke-opacity:1;fill-opacity:1"
         id="path417" /></g><g
       id="g421"
       transform="matrix(1.0853642e-5,2.556958e-5,-2.5569579e-5,1.0853642e-5,73.337995,56.197513)"
       style="fill:#b4c7e7;fill-opacity:1"><path
         d="M 35916.97,8461.041 C 55923.35,3237.668 72199.73,-4423.278 102039.8,3237.668 c 29840,7660.942 63070.9,23679.292 82738.2,44224.552 19667.3,20545.26 20684.6,39001.18 16276.4,58849.98 -4408.2,19848.8 -11529.1,35170.7 -37978.2,40394.1 C 136627,151929.7 98987.93,146009.8 68808.81,132429.1 38629.7,118848.3 25066.05,99347.72 11841.49,78802.45 -1383.065,58257.19 -2061.247,43283.52 2686.03,29354.53 7433.306,15425.54 15910.59,13684.41 35916.97,8461.041 Z"
         style="fill:#b4c7e7;stroke:#000000;stroke-width:12700;stroke-linecap:butt;stroke-linejoin:miter;stroke-miterlimit:8;stroke-dasharray:none;stroke-opacity:1;fill-opacity:1"
         id="path423" /></g></g></svg>
