<?xml version="1.0" encoding="UTF-8" standalone="no"?>
<!-- Created with Inkscape (http://www.inkscape.org/) -->

<svg
   width="69.767998mm"
   height="16.077097mm"
   viewBox="0 0 69.767998 16.077097"
   version="1.1"
   id="svg5"
   xml:space="preserve"
   sodipodi:docname="scmorph_logo_embeddedFont.svg"
   inkscape:version="1.2.1 (9c6d41e, 2022-07-14)"
   inkscape:export-filename="scmorph_logo.svg"
   inkscape:export-xdpi="96"
   inkscape:export-ydpi="96"
   xmlns:inkscape="http://www.inkscape.org/namespaces/inkscape"
   xmlns:sodipodi="http://sodipodi.sourceforge.net/DTD/sodipodi-0.dtd"
   xmlns="http://www.w3.org/2000/svg"
   xmlns:svg="http://www.w3.org/2000/svg"><sodipodi:namedview
     id="namedview7"
     pagecolor="#ffffff"
     bordercolor="#000000"
     borderopacity="0.25"
     inkscape:showpageshadow="2"
     inkscape:pageopacity="0.0"
     inkscape:pagecheckerboard="0"
     inkscape:deskcolor="#d1d1d1"
     inkscape:document-units="mm"
     showgrid="false"
     inkscape:zoom="2.2548587"
     inkscape:cx="159.87698"
     inkscape:cy="-25.722233"
     inkscape:window-width="1512"
     inkscape:window-height="916"
     inkscape:window-x="0"
     inkscape:window-y="38"
     inkscape:window-maximized="1"
     inkscape:current-layer="g621" /><defs
     id="defs2"><rect
       x="107.11483"
       y="149.74216"
       width="412.06418"
       height="136.62605"
       id="rect113" /></defs><g
     id="g621"
     transform="translate(-29.179597,-50.650207)"><g
       aria-label="scm rph"
       transform="matrix(0.26458333,0,0,0.26458333,15.760954,19.375852)"
       id="text111"
       style="line-height:0;letter-spacing:0px;word-spacing:27px;white-space:pre;shape-inside:url(#rect113)"><path
         d="m 119.10458,162.3346 q -2.64534,0 -5.07734,-0.896 -2.432,-0.896 -3.92534,-2.51733 -0.42666,-0.512 -0.42666,-0.98134 0,-0.72533 0.68266,-1.28 0.512,-0.384 1.06667,-0.384 0.72533,0 1.23734,0.59734 1.024,1.19466 2.688,1.83466 1.70667,0.64 3.75467,0.64 2.98667,0 4.48,-1.024 1.49333,-1.024 1.536,-2.688 0,-1.536 -1.49333,-2.56 -1.49334,-1.024 -4.73601,-1.536 -4.18133,-0.68267 -6.272,-2.34667 -2.048,-1.70667 -2.048,-4.096 0,-3.11467 2.38933,-4.82134 2.432,-1.70667 6.05867,-1.70667 2.81601,0 4.90667,0.98134 2.09067,0.93866 3.37067,2.64533 0.34134,0.55467 0.34134,0.98134 0,0.72533 -0.68267,1.152 -0.29867,0.21333 -0.81067,0.21333 -0.896,0 -1.49333,-0.64 -2.09067,-2.38934 -5.71734,-2.38934 -2.34667,0 -3.75467,0.98134 -1.408,0.93867 -1.408,2.38933 0,1.536 1.32267,2.47467 1.32266,0.896 4.69333,1.45067 4.56534,0.768 6.52801,2.51734 1.96267,1.70666 1.96267,4.26667 0,1.96266 -1.19467,3.49866 -1.152,1.53601 -3.24267,2.38934 -2.09067,0.85333 -4.736,0.85333 z"
         style="font-size:42.6667px;font-family:Comfortaa;-inkscape-font-specification:'Comfortaa, Normal'"
         id="path2437" /><path
         d="m 144.36324,162.3346 q -3.328,0 -5.97333,-1.536 -2.64534,-1.57867 -4.18134,-4.26667 -1.49334,-2.73067 -1.49334,-6.05867 0,-3.41333 1.45067,-6.10134 1.45067,-2.73067 4.01067,-4.26667 2.56,-1.536 5.76001,-1.536 5.33333,0 8.66134,4.09601 0.34133,0.384 0.34133,0.896 0,0.68266 -0.72533,1.19466 -0.384,0.256 -0.81067,0.256 -0.64,0 -1.23734,-0.64 -1.28,-1.408 -2.816,-2.09066 -1.536,-0.72534 -3.41333,-0.72534 -2.34667,0 -4.18134,1.152 -1.83467,1.10934 -2.85867,3.15734 -0.98133,2.048 -0.98133,4.608 0,2.51734 1.06666,4.56534 1.06667,2.00533 2.98667,3.15733 1.92,1.152 4.39467,1.152 3.41334,0 5.50401,-1.83466 0.55466,-0.46934 1.152,-0.46934 0.512,0 0.93867,0.34134 0.59733,0.512 0.59733,1.152 0,0.55466 -0.42667,0.93866 -3.072,2.85867 -7.76534,2.85867 z"
         style="font-size:42.6667px;font-family:Comfortaa;-inkscape-font-specification:'Comfortaa, Normal'"
         id="path2439" /><path
         d="m 183.95789,138.52659 q 2.51733,0 4.43733,1.19466 1.96267,1.19467 3.02934,3.41334 1.10933,2.176 1.10933,5.07734 v 12.28801 q 0,0.72533 -0.46933,1.19466 -0.42667,0.42667 -1.152,0.42667 -0.72533,0 -1.19467,-0.42667 -0.46933,-0.46933 -0.46933,-1.19466 v -12.28801 q 0,-3.02934 -1.57867,-4.77867 -1.536,-1.79201 -4.05334,-1.79201 -2.688,0 -4.352,1.79201 -1.664,1.792 -1.62133,4.69333 v 0.0853 12.28801 q 0,0.72533 -0.46934,1.19466 -0.42666,0.42667 -1.152,0.42667 -0.72533,0 -1.19467,-0.42667 -0.46933,-0.46933 -0.46933,-1.19466 v -12.28801 q 0,-3.02934 -1.57867,-4.77867 -1.536,-1.79201 -4.05333,-1.79201 -2.64534,0 -4.35201,1.74934 -1.70667,1.74933 -1.70667,4.48 v 12.62935 q 0,0.72533 -0.46933,1.19466 -0.42667,0.42667 -1.152,0.42667 -0.72533,0 -1.19467,-0.42667 -0.46933,-0.46933 -0.46933,-1.19466 v -20.05335 q 0,-0.72534 0.46933,-1.19467 0.46934,-0.46933 1.19467,-0.46933 0.72533,0 1.152,0.46933 0.46933,0.46933 0.46933,1.19467 v 0.93866 q 1.19467,-1.36533 2.81601,-2.09066 1.664,-0.768 3.584,-0.768 2.34667,0 4.224,1.06666 1.87734,1.06667 2.98667,2.98667 1.23734,-1.92 3.2,-2.98667 2.00534,-1.06666 4.48001,-1.06666 z"
         style="font-size:42.6667px;font-family:Comfortaa;-inkscape-font-specification:'Comfortaa, Normal'"
         id="path2441" /><path
         d="m 249.82716,138.52659 q 1.79201,0 2.81601,0.46933 1.06666,0.46933 1.06666,1.32267 0,0.256 -0.0427,0.384 -0.17067,0.59733 -0.55467,0.81066 -0.34133,0.21334 -0.98133,0.21334 -0.384,0 -1.32267,-0.0853 -0.34134,-0.0427 -1.024,-0.0427 -3.20001,0 -5.24801,1.70667 -2.00533,1.70666 -2.00533,4.43733 v 12.75735 q 0,0.768 -0.42667,1.19466 -0.42667,0.42667 -1.19467,0.42667 -0.768,0 -1.19466,-0.42667 -0.42667,-0.42666 -0.42667,-1.19466 v -20.09602 q 0,-0.768 0.42667,-1.19467 0.42666,-0.42666 1.19466,-0.42666 0.768,0 1.19467,0.42666 0.42667,0.42667 0.42667,1.19467 v 1.87734 q 1.23733,-1.79201 3.15733,-2.77334 1.92001,-0.98133 4.13867,-0.98133 z"
         style="font-size:42.6667px;font-family:Comfortaa;-inkscape-font-specification:'Comfortaa, Normal'"
         id="path2443" /><path
         d="m 270.69111,138.56925 q 3.328,0 6.016,1.57867 2.73067,1.536 4.26667,4.26667 1.57867,2.73067 1.57867,6.05867 0,3.328 -1.536,6.05867 -1.49334,2.688 -4.13867,4.26667 -2.60267,1.536 -5.84534,1.536 -2.77334,0 -5.07734,-1.152 -2.304,-1.19466 -3.79733,-3.24267 v 12.50135 q 0,0.72533 -0.46934,1.19466 -0.46933,0.46934 -1.19466,0.46934 -0.72534,0 -1.19467,-0.46934 -0.42667,-0.46933 -0.42667,-1.19466 v -9.55734 q -0.0427,-0.128 -0.0427,-0.384 v -10.02668 q 0,-3.328 1.53601,-6.05867 1.57866,-2.73067 4.26667,-4.26667 2.73066,-1.57867 6.05867,-1.57867 z m 0,20.77868 q 2.432,0 4.39467,-1.152 2.00533,-1.152 3.11467,-3.15733 1.152,-2.048 1.152,-4.56534 0,-2.51733 -1.152,-4.52267 -1.10934,-2.048 -3.11467,-3.2 -1.96267,-1.19467 -4.39467,-1.19467 -2.43201,0 -4.39467,1.19467 -1.96267,1.152 -3.11467,3.2 -1.10934,2.00534 -1.10934,4.52267 0,0.72534 0.0427,1.06667 0.0427,0.0853 0.0427,0.21333 0.42666,3.328 2.77333,5.46134 2.38934,2.13333 5.76001,2.13333 z"
         style="font-size:42.6667px;font-family:Comfortaa;-inkscape-font-specification:'Comfortaa, Normal'"
         id="path2445" /><path
         d="m 300.04574,138.52659 q 3.02933,0 5.41867,1.28 2.432,1.28 3.79733,3.75467 1.36534,2.432 1.36534,5.84533 v 11.09335 q 0,0.68266 -0.46933,1.152 -0.46934,0.46933 -1.15201,0.46933 -0.72533,0 -1.19466,-0.46933 -0.46934,-0.46934 -0.46934,-1.152 v -11.09335 q 0,-3.79733 -2.13333,-5.76 -2.09067,-2.00534 -5.50401,-2.00534 -2.09066,0 -3.79733,0.81067 -1.664,0.81067 -2.64534,2.26134 -0.98133,1.408 -0.98133,3.15733 v 12.62935 q 0,0.72533 -0.46934,1.19466 -0.42666,0.42667 -1.152,0.42667 -0.72533,0 -1.19466,-0.42667 -0.46934,-0.46933 -0.46934,-1.19466 v -30.03736 q 0,-0.72533 0.46934,-1.19467 0.46933,-0.46933 1.19466,-0.46933 0.72534,0 1.152,0.46933 0.46934,0.46934 0.46934,1.19467 v 11.43467 q 1.408,-1.57866 3.41333,-2.47466 2.00534,-0.896 4.35201,-0.896 z"
         style="font-size:42.6667px;font-family:Comfortaa;-inkscape-font-specification:'Comfortaa, Normal'"
         id="path2447" /></g><g
       id="g2331"><g
         id="g373"
         transform="matrix(2.7777777e-5,0,0,2.7777779e-5,36.231381,58.965151)"
         style="fill:#dae3f3;fill-opacity:1"><path
           d="M 3619.805,72624.01 C 18240.17,21870.13 93884.69,-11119.9 144102.5,3471.845 194320.3,18063.59 270600.4,95463.25 255980.1,146217.1 241359.7,196971 120582.8,272467.4 70364.97,257875.7 20147.18,243283.9 -11000.56,123377.9 3619.805,72624.01 Z"
           style="fill:#dae3f3;stroke:#000000;stroke-width:12700;stroke-linecap:butt;stroke-linejoin:miter;stroke-miterlimit:8;stroke-dasharray:none;stroke-opacity:1;fill-opacity:1"
           id="path375" /></g><g
         id="g379"
         transform="matrix(2.7777777e-5,0,0,2.7777779e-5,33.496489,50.826867)"
         style="fill:#dae3f3;fill-opacity:1"><path
           d="M 44182.58,48356.81 C 72904.39,26746.67 94924.45,1294.718 144708.9,334.2672 194493.4,-626.1837 277786.6,-2547.085 293104.9,43554.55 308423.2,89656.2 257681.3,202989.4 221300.4,230842.5 c -36381,27853 -70847.1,-40339 -110100.3,-48022.6 C 71947,175136.3 47054.76,207311.4 25034.71,192424.4 3014.659,177537.5 -2729.702,137198.5 1099.872,108385 4929.446,79571.46 15460.78,69966.95 44182.58,48356.81 Z"
           style="fill:#dae3f3;stroke:#000000;stroke-width:12700;stroke-linecap:butt;stroke-linejoin:miter;stroke-miterlimit:8;stroke-dasharray:none;stroke-opacity:1;fill-opacity:1"
           id="path381" /></g><g
         id="g385"
         transform="matrix(7.1894167e-6,2.6831273e-5,-2.6831271e-5,7.1894171e-6,33.704934,56.185585)"
         style="fill:#dae3f3;fill-opacity:1"><path
           d="M 294512,46424.95 C 240565.7,33706.06 157425.1,-9538.167 98401.54,1908.835 39378.01,13355.84 -1240.339,66139.23 28.98455,103660 1298.308,141180.7 67303.12,184424.9 104748.2,189512.5 c 37445,5087.5 41253,-46424 81871.3,-60414.8 40618.4,-13990.7 84410,3179.8 120585.7,-9539.1 36175.7,-12718.9 62831.5,-39428.58 60292.9,-54055.31 C 364959.4,50876.57 348458.2,59143.84 294512,46424.95 Z"
           style="fill:#dae3f3;stroke:#000000;stroke-width:12700;stroke-linecap:butt;stroke-linejoin:miter;stroke-miterlimit:8;stroke-dasharray:none;stroke-opacity:1;fill-opacity:1"
           id="path387" /></g><g
         id="g391"
         transform="matrix(2.6418235e-5,8.5838066e-6,-8.5838061e-6,2.6418237e-5,39.027251,61.27715)"
         style="fill:#b4c7e7;fill-opacity:1"><path
           d="M 43099.8,17248.35 C 29192.13,29601.16 5758.681,42919.04 1186.299,62027.29 -3386.083,81135.55 5758.681,108157.3 20047.37,113175.7 34336.07,118194 57388.49,105841.2 72629.76,87504.97 87871.03,69168.77 96253.73,39058.78 95872.7,21494.63 95491.66,3930.468 81012.46,842.2649 70534.09,70.21407 60055.71,-701.8368 57007.46,4895.532 43099.8,17248.35 Z"
           style="fill:#b4c7e7;stroke:#000000;stroke-width:12700;stroke-linecap:butt;stroke-linejoin:miter;stroke-miterlimit:8;stroke-dasharray:none;stroke-opacity:1;fill-opacity:1"
           id="path393" /></g><g
         id="g397"
         transform="matrix(3.8659186e-6,-2.7507445e-5,2.7507444e-5,3.8659188e-6,37.392359,54.217767)"
         style="fill:#b4c7e7;fill-opacity:1"><path
           d="M 43099.8,17248.35 C 29192.13,29601.16 5758.681,42919.04 1186.299,62027.29 -3386.083,81135.55 5758.681,108157.3 20047.37,113175.7 34336.07,118194 57388.49,105841.2 72629.76,87504.97 87871.03,69168.77 96253.73,39058.78 95872.7,21494.62 95491.66,3930.468 81012.46,842.2649 70534.09,70.21407 60055.71,-701.8368 57007.46,4895.532 43099.8,17248.35 Z"
           style="fill:#b4c7e7;stroke:#000000;stroke-width:12700;stroke-linecap:butt;stroke-linejoin:miter;stroke-miterlimit:8;stroke-dasharray:none;stroke-opacity:1;fill-opacity:1"
           id="path399" /></g><g
         id="g409"
         transform="matrix(2.6564021e-5,-8.1214349e-6,8.1214344e-6,2.6564022e-5,30.841964,58.240127)"
         style="fill:#b4c7e7;fill-opacity:1"><path
           d="M 15018.11,11.99709 C 6159.311,-622.8491 -2066.722,24771 464.3648,43181.54 2995.452,61592.08 17549.2,90160.16 26408.01,90795 35266.81,91429.85 47922.25,63496.62 45391.16,45086.08 42860.07,26675.54 23876.92,646.8433 15018.11,11.99709 Z"
           style="fill:#b4c7e7;stroke:#000000;stroke-width:12700;stroke-linecap:butt;stroke-linejoin:miter;stroke-miterlimit:8;stroke-dasharray:none;stroke-opacity:1;fill-opacity:1"
           id="path411" /></g></g><g
       id="g415"
       transform="matrix(2.7267417e-5,-5.3002498e-6,5.3002495e-6,2.7267419e-5,67.430806,55.277653)"
       style="fill:#dae3f3;fill-opacity:1"><path
         d="M 229364.2,364830.8 C 174969.9,378827.9 94155.42,360165.2 49085.84,330615.9 4016.247,301066.7 -5308.495,282404 2462.124,220195.1 10232.74,157986.2 30436.35,56896.68 89493.05,21126.54 148549.8,-14643.59 254230.2,-3757.027 299299.8,44454.89 c 45069.5,48211.91 32636.5,152411.91 18649.4,216176.01 -13987.1,63764.2 -34190.7,90202.9 -88585,104199.9 z"
         style="fill:#dae3f3;stroke:#000000;stroke-width:12700;stroke-linecap:butt;stroke-linejoin:miter;stroke-miterlimit:8;stroke-dasharray:none;stroke-opacity:1;fill-opacity:1"
         id="path417" /></g><g
       id="g421"
       transform="matrix(1.0853642e-5,2.556958e-5,-2.5569579e-5,1.0853642e-5,73.337995,56.197513)"
       style="fill:#b4c7e7;fill-opacity:1"><path
         d="M 35916.97,8461.041 C 55923.35,3237.668 72199.73,-4423.278 102039.8,3237.668 c 29840,7660.942 63070.9,23679.292 82738.2,44224.552 19667.3,20545.26 20684.6,39001.18 16276.4,58849.98 -4408.2,19848.8 -11529.1,35170.7 -37978.2,40394.1 C 136627,151929.7 98987.93,146009.8 68808.81,132429.1 38629.7,118848.3 25066.05,99347.72 11841.49,78802.45 -1383.065,58257.19 -2061.247,43283.52 2686.03,29354.53 7433.306,15425.54 15910.59,13684.41 35916.97,8461.041 Z"
         style="fill:#b4c7e7;stroke:#000000;stroke-width:12700;stroke-linecap:butt;stroke-linejoin:miter;stroke-miterlimit:8;stroke-dasharray:none;stroke-opacity:1;fill-opacity:1"
         id="path423" /></g></g></svg>
