<?xml version="1.0" encoding="UTF-8" standalone="no"?>
<!-- Created with Inkscape (http://www.inkscape.org/) -->

<svg
   width="68.768105mm"
   height="16.077097mm"
   viewBox="0 0 68.768105 16.077097"
   version="1.1"
   id="svg5"
   xml:space="preserve"
   sodipodi:docname="scmorph_logo_white.svg"
   inkscape:version="1.2.1 (9c6d41e, 2022-07-14)"
   xmlns:inkscape="http://www.inkscape.org/namespaces/inkscape"
   xmlns:sodipodi="http://sodipodi.sourceforge.net/DTD/sodipodi-0.dtd"
   xmlns="http://www.w3.org/2000/svg"
   xmlns:svg="http://www.w3.org/2000/svg"><sodipodi:namedview
     id="namedview7"
     pagecolor="#8a8a8a"
     bordercolor="#000000"
     borderopacity="0.25"
     inkscape:showpageshadow="2"
     inkscape:pageopacity="0"
     inkscape:pagecheckerboard="true"
     inkscape:deskcolor="#d1d1d1"
     inkscape:document-units="mm"
     showgrid="false"
     inkscape:zoom="2.5877449"
     inkscape:cx="66.273921"
     inkscape:cy="39.996214"
     inkscape:window-width="1390"
     inkscape:window-height="1205"
     inkscape:window-x="528"
     inkscape:window-y="30"
     inkscape:window-maximized="0"
     inkscape:current-layer="g621" /><defs
     id="defs2"><rect
       x="107.11483"
       y="149.74216"
       width="412.06418"
       height="136.62605"
       id="rect113" /></defs><g
     id="g621"
     transform="translate(-29.179597,-50.650207)"><text
       xml:space="preserve"
       transform="matrix(0.26458333,0,0,0.26458333,15.760954,19.375852)"
       id="text111"
       style="line-height:0;letter-spacing:0px;word-spacing:27px;white-space:pre;shape-inside:url(#rect113);display:inline;fill:#ffffff"><tspan
         x="107.11523"
         y="162.12127"
         id="tspan188"><tspan
           dx="0 0 0 -26.999996 27"
           style="font-size:42.6667px;font-family:Comfortaa;-inkscape-font-specification:'Comfortaa, Normal'"
           id="tspan186">scm rph</tspan></tspan></text><path
       d="m 36.331921,60.982475 c 0.40612,-1.409806 2.50737,-2.326217 3.90229,-1.920875 1.39495,0.405306 3.51384,2.555311 3.10772,3.965152 -0.40611,1.409806 -3.76103,3.506928 -5.15598,3.101622 -1.39492,-0.405342 -2.26015,-3.736058 -1.85403,-5.145899 z"
       style="fill:#dae3f3;fill-opacity:1;fill-rule:evenodd;stroke:none;stroke-width:0.352778"
       id="path371" /><g
       id="g373"
       transform="matrix(2.7777777e-5,0,0,2.7777779e-5,36.231381,58.965151)"><path
         d="M 3619.805,72624.01 C 18240.17,21870.13 93884.69,-11119.9 144102.5,3471.845 194320.3,18063.59 270600.4,95463.25 255980.1,146217.1 241359.7,196971 120582.8,272467.4 70364.97,257875.7 20147.18,243283.9 -11000.56,123377.9 3619.805,72624.01 Z"
         style="fill:none;stroke:#000000;stroke-width:12700;stroke-linecap:butt;stroke-linejoin:miter;stroke-miterlimit:8;stroke-dasharray:none;stroke-opacity:1"
         id="path375" /></g><path
       d="m 34.723769,52.170104 c 0.79785,-0.600287 1.40949,-1.307289 2.79242,-1.333959 1.38288,-0.02667 3.69658,-0.08004 4.1221,1.200574 0.42552,1.280583 -0.98397,4.428737 -1.99457,5.202449 -1.01057,0.773677 -1.96797,-1.120528 -3.05834,-1.333959 -1.09036,-0.21343 -1.78181,0.680297 -2.39349,0.266771 -0.61165,-0.413526 -0.77124,-1.534054 -0.66484,-2.334436 0.10636,-0.800347 0.39892,-1.067153 1.19672,-1.66744 z"
       style="fill:#dae3f3;fill-opacity:1;fill-rule:evenodd;stroke:none;stroke-width:0.352778"
       id="path377" /><g
       id="g379"
       transform="matrix(2.7777777e-5,0,0,2.7777779e-5,33.496489,50.826867)"><path
         d="M 44182.58,48356.81 C 72904.39,26746.67 94924.45,1294.718 144708.9,334.2672 194493.4,-626.1837 277786.6,-2547.085 293104.9,43554.55 308423.2,89656.2 257681.3,202989.4 221300.4,230842.5 c -36381,27853 -70847.1,-40339 -110100.3,-48022.6 C 71947,175136.3 47054.76,207311.4 25034.71,192424.4 3014.659,177537.5 -2729.702,137198.5 1099.872,108385 4929.446,79571.46 15460.78,69966.95 44182.58,48356.81 Z"
         style="fill:none;stroke:#000000;stroke-width:12700;stroke-linecap:butt;stroke-linejoin:miter;stroke-miterlimit:8;stroke-dasharray:none;stroke-opacity:1"
         id="path381" /></g><path
       d="m 34.576644,64.421464 c -0.0466,-1.538887 0.51601,-4.080545 -0.21548,-5.581932 -0.73148,-1.501387 -2.43974,-2.21174 -3.43736,-1.907928 -0.99762,0.303812 -1.68335,2.385695 -1.55067,3.426989 0.13272,1.041259 1.54221,0.773077 2.20963,1.762337 0.66742,0.989259 0.52154,2.287693 1.12289,3.166886 0.60134,0.879228 1.50964,1.402397 1.88383,1.229113 0.37419,-0.173249 0.0338,-0.556578 -0.0128,-2.095465 z"
       style="fill:#dae3f3;fill-opacity:1;fill-rule:evenodd;stroke:none;stroke-width:0.352778"
       id="path383" /><g
       id="g385"
       transform="matrix(7.1894167e-6,2.6831273e-5,-2.6831271e-5,7.1894171e-6,33.704934,56.185585)"><path
         d="M 294512,46424.95 C 240565.7,33706.06 157425.1,-9538.167 98401.54,1908.835 39378.01,13355.84 -1240.339,66139.23 28.98455,103660 1298.308,141180.7 67303.12,184424.9 104748.2,189512.5 c 37445,5087.5 41253,-46424 81871.3,-60414.8 40618.4,-13990.7 84410,3179.8 120585.7,-9539.1 36175.7,-12718.9 62831.5,-39428.58 60292.9,-54055.31 C 364959.4,50876.57 348458.2,59143.84 294512,46424.95 Z"
         style="fill:none;stroke:#000000;stroke-width:12700;stroke-linecap:butt;stroke-linejoin:miter;stroke-miterlimit:8;stroke-dasharray:none;stroke-opacity:1"
         id="path387" /></g><path
       d="m 40.017811,62.102791 c -0.47342,0.20694 -1.20681,0.357647 -1.49165,0.823207 -0.28479,0.465561 -0.27516,1.2579 0.0592,1.513135 0.33439,0.255235 1.04944,0.126753 1.60947,-0.226801 0.56004,-0.353589 1.03996,-1.077101 1.18068,-1.544391 0.14069,-0.467289 -0.2153,-0.673135 -0.48549,-0.783484 -0.2702,-0.110349 -0.39878,0.01136 -0.87225,0.218334 z"
       style="fill:#b4c7e7;fill-opacity:1;fill-rule:evenodd;stroke:none;stroke-width:0.352778"
       id="path389" /><g
       id="g391"
       transform="matrix(2.6418235e-5,8.5838066e-6,-8.5838061e-6,2.6418237e-5,39.027251,61.27715)"><path
         d="M 43099.8,17248.35 C 29192.13,29601.16 5758.681,42919.04 1186.299,62027.29 -3386.083,81135.55 5758.681,108157.3 20047.37,113175.7 34336.07,118194 57388.49,105841.2 72629.76,87504.97 87871.03,69168.77 96253.73,39058.78 95872.7,21494.63 95491.66,3930.468 81012.46,842.2649 70534.09,70.21407 60055.71,-701.8368 57007.46,4895.532 43099.8,17248.35 Z"
         style="fill:none;stroke:#000000;stroke-width:12700;stroke-linecap:butt;stroke-linejoin:miter;stroke-miterlimit:8;stroke-dasharray:none;stroke-opacity:1"
         id="path393" /></g><path
       d="m 38.033429,53.098862 c 0.28603,0.430318 0.5618,1.12642 1.06973,1.326057 0.50796,0.199636 1.28661,0.05256 1.47986,-0.321099 0.19329,-0.373627 -0.0574,-1.055511 -0.50285,-1.545625 -0.44545,-0.49015 -1.24128,-0.837142 -1.72589,-0.894539 -0.48465,-0.05743 -0.62555,0.32893 -0.68732,0.614151 -0.0617,0.285256 0.0805,0.390737 0.36647,0.821055 z"
       style="fill:#b4c7e7;fill-opacity:1;fill-rule:evenodd;stroke:none;stroke-width:0.352778"
       id="path395" /><g
       id="g397"
       transform="matrix(3.8659186e-6,-2.7507445e-5,2.7507444e-5,3.8659188e-6,37.392359,54.217767)"><path
         d="M 43099.8,17248.35 C 29192.13,29601.16 5758.681,42919.04 1186.299,62027.29 -3386.083,81135.55 5758.681,108157.3 20047.37,113175.7 34336.07,118194 57388.49,105841.2 72629.76,87504.97 87871.03,69168.77 96253.73,39058.78 95872.7,21494.62 95491.66,3930.468 81012.46,842.2649 70534.09,70.21407 60055.71,-701.8368 57007.46,4895.532 43099.8,17248.35 Z"
         style="fill:none;stroke:#000000;stroke-width:12700;stroke-linecap:butt;stroke-linejoin:miter;stroke-miterlimit:8;stroke-dasharray:none;stroke-opacity:1"
         id="path399" /></g><path
       d="m 31.241024,58.118454 c -0.24049,0.0551 -0.25276,0.796467 -0.036,1.264955 0.21675,0.468525 0.83538,1.109204 1.07587,1.054136 0.24045,-0.0551 0.34978,-0.899901 0.13303,-1.36839 -0.21674,-0.468524 -0.93242,-1.005769 -1.17288,-0.950701 z"
       style="fill:#b4c7e7;fill-opacity:1;fill-rule:evenodd;stroke:none;stroke-width:0.352778"
       id="path407" /><g
       id="g409"
       transform="matrix(2.6564021e-5,-8.1214349e-6,8.1214344e-6,2.6564022e-5,30.841964,58.240127)"><path
         d="M 15018.11,11.99709 C 6159.311,-622.8491 -2066.722,24771 464.3648,43181.54 2995.452,61592.08 17549.2,90160.16 26408.01,90795 35266.81,91429.85 47922.25,63496.62 45391.16,45086.08 42860.07,26675.54 23876.92,646.8433 15018.11,11.99709 Z"
         style="fill:none;stroke:#000000;stroke-width:12700;stroke-linecap:butt;stroke-linejoin:miter;stroke-miterlimit:8;stroke-dasharray:none;stroke-opacity:1"
         id="path411" /></g><path
       d="m 75.618676,64.009961 c -1.40903,0.66996 -3.71154,0.589421 -5.09708,0.02258 -1.38557,-0.566844 -1.73873,-1.026301 -1.85656,-2.763767 -0.11787,-1.737466 -0.10277,-4.600999 1.31798,-5.889378 1.42074,-1.28838 4.36005,-1.551658 5.84453,-0.475933 1.48446,1.075725 1.69775,3.982897 1.65432,5.795716 -0.0434,1.812819 -0.4542,2.640824 -1.86319,3.310784 z"
       style="fill:#dae3f3;fill-opacity:1;fill-rule:evenodd;stroke:none;stroke-width:0.352778"
       id="path413" /><g
       id="g415"
       transform="matrix(2.7267417e-5,-5.3002498e-6,5.3002495e-6,2.7267419e-5,67.430806,55.277653)"><path
         d="M 229364.2,364830.8 C 174969.9,378827.9 94155.42,360165.2 49085.84,330615.9 4016.247,301066.7 -5308.495,282404 2462.124,220195.1 10232.74,157986.2 30436.35,56896.68 89493.05,21126.54 148549.8,-14643.59 254230.2,-3757.027 299299.8,44454.89 c 45069.5,48211.91 32636.5,152411.91 18649.4,216176.01 -13987.1,63764.2 -34190.7,90202.9 -88585,104199.9 z"
         style="fill:none;stroke:#000000;stroke-width:12700;stroke-linecap:butt;stroke-linejoin:miter;stroke-miterlimit:8;stroke-dasharray:none;stroke-opacity:1"
         id="path417" /></g><path
       d="m 73.511485,57.207727 c 0.3507,0.454872 0.72327,0.787894 0.85126,1.634032 0.12798,0.846137 0.079,1.869722 -0.2328,2.595598 -0.31189,0.725875 -0.77276,0.952182 -1.32814,1.054911 -0.55534,0.102694 -1.02443,0.08692 -1.44505,-0.532659 -0.42062,-0.619619 -0.67779,-1.646273 -0.65807,-2.565365 0.0197,-0.919057 0.37109,-1.477539 0.7529,-2.038667 0.38181,-0.561129 0.75731,-0.740975 1.16498,-0.770785 0.4077,-0.02981 0.54423,0.168064 0.89492,0.622935 z"
       style="fill:#b4c7e7;fill-opacity:1;fill-rule:evenodd;stroke:none;stroke-width:0.352778"
       id="path419" /><g
       id="g421"
       transform="matrix(1.0853642e-5,2.556958e-5,-2.5569579e-5,1.0853642e-5,73.337995,56.197513)"><path
         d="M 35916.97,8461.041 C 55923.35,3237.668 72199.73,-4423.278 102039.8,3237.668 c 29840,7660.942 63070.9,23679.292 82738.2,44224.552 19667.3,20545.26 20684.6,39001.18 16276.4,58849.98 -4408.2,19848.8 -11529.1,35170.7 -37978.2,40394.1 C 136627,151929.7 98987.93,146009.8 68808.81,132429.1 38629.7,118848.3 25066.05,99347.72 11841.49,78802.45 -1383.065,58257.19 -2061.247,43283.52 2686.03,29354.53 7433.306,15425.54 15910.59,13684.41 35916.97,8461.041 Z"
         style="fill:none;stroke:#000000;stroke-width:12700;stroke-linecap:butt;stroke-linejoin:miter;stroke-miterlimit:8;stroke-dasharray:none;stroke-opacity:1"
         id="path423" /></g></g></svg>
