<?xml version='1.0' encoding='utf-8'?>
<svg xmlns="http://www.w3.org/2000/svg" xmlns:cc="http://creativecommons.org/ns#" xmlns:dc="http://purl.org/dc/elements/1.1/" xmlns:dcterms="http://purl.org/dc/terms/" xmlns:foaf="http://xmlns.com/foaf/0.1/" xmlns:owl="http://www.w3.org/2002/07/owl#" xmlns:rdf="http://www.w3.org/1999/02/22-rdf-syntax-ns#" viewBox="-3 -3 6 6" width="64" height="64">
  <metadata>
    <rdf:RDF>
      <rdf:Description rdf:about="http://github.com/innocampus/elva/logo/breakdown.svg">
        <dc:title>ELVA Logo Breakdown</dc:title>
        <dc:type>Image</dc:type>
        <dc:format>image/svg+xml</dc:format>
        <dc:description xml:lang="en">Breakdown of the logo of the ELVA Project of Technische Universität Berlin</dc:description>
        <dc:relation rdf:resource="http://github.com/innocampus/elva/logo/logo.svg" />
        <dc:creator>Technische Universität Berlin</dc:creator>
        <dc:creator>ELVA Team</dc:creator>
        <dc:creator>Jakob Zahn</dc:creator>
      </rdf:Description>
      <cc:License rdf:about="http://creativecommons.org/licenses/by-nc-sa/4.0/">
        <cc:legalcode xml:lang="en">http://creativecommons.org/licenses/by-nc-sa/4.0/legalcode.en</cc:legalcode>
        <cc:licenseClass rdf:resource="http://creativecommons.org/license/" />
        <cc:permits rdf:resource="http://creativecommons.org/ns#DerivateWorks" />
        <cc:permits rdf:resource="http://creativecommons.org/ns#Distribution" />
        <cc:permits rdf:resource="http://creativecommons.org/ns#Reproduction" />
        <cc:prohibits rdf:resource="http://creativecommons.org/ns#CommercialUse" />
        <cc:requires rdf:resource="http://creativecommons.org/ns#Attribution" />
        <cc:requires rdf:resource="http://creativecommons.org/ns#Notice" />
        <cc:requires rdf:resource="http://creativecommons.org/ns#ShareAlike" />
        <dcterms:LicenseDocument xml:lang="en">http://creativecommons.org/licenses/by-nc-sa/4.0/legalcode.en</dcterms:LicenseDocument>
        <dcterms:creator rdf:resource="http://creativecommons.org" />
        <dcterms:hasVersion>4.0</dcterms:hasVersion>
        <dcterms:identifier>by-nc-sa</dcterms:identifier>
        <dcterms:source>http://creativecommons.org/licenses/by-nc-sa/3.0/</dcterms:source>
        <dcterms:title xml:lang="en">Attribution-NonCommercial-ShareAlike 4.0 International</dcterms:title>
        <foaf:logo rdf:resource="http://licensebuttons.net/l/by-nc-sa/4.0/80x15.png" />
        <foaf:logo rdf:resource="http://licensebuttons.net/l/by-nc-sa/4.0/88x31.png" />
        <owl:sameAs rdf:resource="http://creativecommons.org/licenses/by-nc-sa/4.0/" />
      </cc:License>
    </rdf:RDF>
  </metadata>
  <defs>
    <circle stroke="black" stroke-width="0.05" id="marker" cx="0" cy="0" r="0.05" fill="white" />
    <polygon stroke="gray" stroke-width="0.025" id="hexagon" points="0.0 -1.0 -0.86603 -0.5 -0.86603 0.5 -0.0 1.0 0.86603 0.5 0.86603 -0.5" fill="none" />
    <g id="trigrid">
      <g id="trilines">
        <path stroke="lightgray" stroke-width="0.025" d="M -0.43301 0.25 L -0.43301 -0.25" stroke-linecap="round" />
        <path stroke="lightgray" stroke-width="0.025" d="M -0.21651 0.375 L -0.21651 -0.375" stroke-linecap="round" />
        <path stroke="lightgray" stroke-width="0.025" d="M -0.0 0.5 L -0.0 -0.5" stroke-linecap="round" />
        <path stroke="lightgray" stroke-width="0.025" d="M 0.21651 0.375 L 0.21651 -0.375" stroke-linecap="round" />
        <path stroke="lightgray" stroke-width="0.025" d="M 0.43301 0.25 L 0.43301 -0.25" stroke-linecap="round" />
      </g>
      <use href="#trilines" transform="rotate(60)" />
      <use href="#trilines" transform="rotate(-60)" />
    </g>
  </defs>
  <g>
    <use href="#trigrid" transform="translate(0.0 0.0)" />
    <use href="#trigrid" transform="translate(1.73205 0.0)" />
    <use href="#trigrid" transform="translate(0.0 -1.0)" />
    <use href="#trigrid" transform="translate(-0.86603 -0.5)" />
    <use href="#trigrid" transform="translate(-0.86603 0.5)" />
    <use href="#trigrid" transform="translate(-0.0 1.0)" />
    <use href="#trigrid" transform="translate(0.86603 0.5)" />
    <use href="#trigrid" transform="translate(0.86603 -0.5)" />
    <use href="#trigrid" transform="translate(0.0 -2.0)" />
    <use href="#trigrid" transform="translate(-1.73205 -1.0)" />
    <use href="#trigrid" transform="translate(-1.73205 1.0)" />
    <use href="#trigrid" transform="translate(-0.0 2.0)" />
    <use href="#trigrid" transform="translate(1.73205 1.0)" />
    <use href="#trigrid" transform="translate(1.73205 -1.0)" />
  </g>
  <g>
    <use href="#hexagon" transform="translate(-0.86603 -1.5)" />
    <use href="#hexagon" transform="translate(-1.73205 -0.0)" />
    <use href="#hexagon" transform="translate(-0.86603 1.5)" />
    <use href="#hexagon" transform="translate(0.86603 1.5)" />
    <use href="#hexagon" transform="translate(1.73205 0.0)" />
    <use href="#hexagon" transform="translate(0.86603 -1.5)" />
  </g>
  <g>
    <path stroke="black" stroke-width="0.05" d="M 0.21651 -1.625 Q 0.0 -1.75 -0.21651 -1.625 L -1.29904 -1.0 Q -1.51555 -0.875 -1.51555 -0.625 L -1.51555 0.375 Q -1.51555 0.625 -1.29904 0.5 L -1.29904 0.5 Q -1.08253 0.375 -1.08253 0.125 L -1.08253 -0.5 A 0.216505 0.216505 0 0 1 -0.64952 -0.5 L -0.64952 0.125 Q -0.64952 0.625 -1.08253 0.875 L -1.08254 0.875 Q -1.29904 1.0 -1.08254 1.125 L -0.43301 1.5 Q -0.21651 1.625 -0.21651 1.375 L -0.21651 1.0 A 0.216505 0.216505 0 0 1 0.2165 1.0 L 0.2165 1.375 Q 0.2165 1.625 0.43301 1.5 L 1.08254 1.125 Q 1.29904 1.0 1.08254 0.875 L 0.21651 0.375 Q -0.21651 0.125 -0.2165 -0.375 L -0.2165 -1.0 A 0.216505 0.216505 0 0 1 0.2165 -1.0 L 0.21651 -0.375 Q 0.2165 -0.125 0.43301 0.0 L 1.29904 0.5 Q 1.51555 0.625 1.51555 0.375 L 1.51555 0.375 Q 1.51555 0.125 1.29904 0.0 L 0.75777 -0.3125 A 0.216505 0.216505 0 0 1 0.97428 -0.6875 L 1.29904 -0.5 Q 1.51555 -0.375 1.51555 -0.625 L 1.51555 -0.625 Q 1.51555 -0.875 1.29904 -1.0 Z " fill="none" />
    <path stroke="black" stroke-width="0.05" d="M 0.43301 -2.0 Q 0.0 -2.25 -0.43301 -2.0 L -1.51555 -1.375 Q -1.94856 -1.125 -1.94856 -0.625 L -1.94856 0.625 Q -1.94856 1.125 -1.51555 1.375 L -0.43301 2.0 Q 0.0 2.25 0.43301 2.0 L 1.51555 1.375 Q 1.94856 1.125 1.94856 0.625 L 1.94856 -0.625 Q 1.94856 -1.125 1.51555 -1.375 Z " fill="none" />
  </g>
  <g>
    <use href="#marker" transform="translate(0.43301 -2.0)" />
    <use href="#marker" transform="translate(0.0 -2.25)" />
    <use href="#marker" transform="translate(-0.43301 -2.0)" />
    <use href="#marker" transform="translate(-1.51555 -1.375)" />
    <use href="#marker" transform="translate(-1.94856 -1.125)" />
    <use href="#marker" transform="translate(-1.94856 -0.625)" />
    <use href="#marker" transform="translate(-1.94856 0.625)" />
    <use href="#marker" transform="translate(-1.94856 1.125)" />
    <use href="#marker" transform="translate(-1.51555 1.375)" />
    <use href="#marker" transform="translate(-0.43301 2.0)" />
    <use href="#marker" transform="translate(-0.0 2.25)" />
    <use href="#marker" transform="translate(0.43301 2.0)" />
    <use href="#marker" transform="translate(1.51555 1.375)" />
    <use href="#marker" transform="translate(1.94856 1.125)" />
    <use href="#marker" transform="translate(1.94856 0.625)" />
    <use href="#marker" transform="translate(1.94856 -0.625)" />
    <use href="#marker" transform="translate(1.94856 -1.125)" />
    <use href="#marker" transform="translate(1.51555 -1.375)" />
    <use href="#marker" transform="translate(0.21651 -1.625)" />
    <use href="#marker" transform="translate(0.0 -1.75)" />
    <use href="#marker" transform="translate(-0.21651 -1.625)" />
    <use href="#marker" transform="translate(-1.29904 -1.0)" />
    <use href="#marker" transform="translate(-1.51555 -0.875)" />
    <use href="#marker" transform="translate(-1.51555 -0.625)" />
    <use href="#marker" transform="translate(-1.51555 0.375)" />
    <use href="#marker" transform="translate(-1.51555 0.625)" />
    <use href="#marker" transform="translate(-1.29904 0.5)" />
    <use href="#marker" transform="translate(-1.29904 0.5)" />
    <use href="#marker" transform="translate(-1.08253 0.375)" />
    <use href="#marker" transform="translate(-1.08253 0.125)" />
    <use href="#marker" transform="translate(-1.08253 -0.5)" />
    <use href="#marker" transform="translate(-0.64952 -0.5)" />
    <use href="#marker" transform="translate(-0.64952 0.125)" />
    <use href="#marker" transform="translate(-0.64952 0.625)" />
    <use href="#marker" transform="translate(-1.08253 0.875)" />
    <use href="#marker" transform="translate(-1.08254 0.875)" />
    <use href="#marker" transform="translate(-1.29904 1.0)" />
    <use href="#marker" transform="translate(-1.08254 1.125)" />
    <use href="#marker" transform="translate(-0.43301 1.5)" />
    <use href="#marker" transform="translate(-0.21651 1.625)" />
    <use href="#marker" transform="translate(-0.21651 1.375)" />
    <use href="#marker" transform="translate(-0.21651 1.0)" />
    <use href="#marker" transform="translate(0.2165 1.0)" />
    <use href="#marker" transform="translate(0.2165 1.375)" />
    <use href="#marker" transform="translate(0.2165 1.625)" />
    <use href="#marker" transform="translate(0.43301 1.5)" />
    <use href="#marker" transform="translate(1.08254 1.125)" />
    <use href="#marker" transform="translate(1.29904 1.0)" />
    <use href="#marker" transform="translate(1.08254 0.875)" />
    <use href="#marker" transform="translate(0.21651 0.375)" />
    <use href="#marker" transform="translate(-0.21651 0.125)" />
    <use href="#marker" transform="translate(-0.2165 -0.375)" />
    <use href="#marker" transform="translate(-0.2165 -1.0)" />
    <use href="#marker" transform="translate(0.2165 -1.0)" />
    <use href="#marker" transform="translate(0.21651 -0.375)" />
    <use href="#marker" transform="translate(0.2165 -0.125)" />
    <use href="#marker" transform="translate(0.43301 -0.0)" />
    <use href="#marker" transform="translate(1.29904 0.5)" />
    <use href="#marker" transform="translate(1.51555 0.625)" />
    <use href="#marker" transform="translate(1.51555 0.375)" />
    <use href="#marker" transform="translate(1.51555 0.375)" />
    <use href="#marker" transform="translate(1.51555 0.125)" />
    <use href="#marker" transform="translate(1.29904 0.0)" />
    <use href="#marker" transform="translate(0.75777 -0.3125)" />
    <use href="#marker" transform="translate(0.97428 -0.6875)" />
    <use href="#marker" transform="translate(1.29904 -0.5)" />
    <use href="#marker" transform="translate(1.51555 -0.375)" />
    <use href="#marker" transform="translate(1.51555 -0.625)" />
    <use href="#marker" transform="translate(1.51555 -0.625)" />
    <use href="#marker" transform="translate(1.51555 -0.875)" />
    <use href="#marker" transform="translate(1.29904 -1.0)" />
  </g>
</svg>